<?xml version="1.0" encoding="utf-8"?>
<!-- Generator: Adobe Illustrator 26.0.3, SVG Export Plug-In . SVG Version: 6.00 Build 0)  -->
<svg version="1.1" id="Layer_1" xmlns="http://www.w3.org/2000/svg" xmlns:xlink="http://www.w3.org/1999/xlink" x="0px" y="0px"
	 viewBox="0 0 59 82.1" style="enable-background:new 0 0 59 82.1;" xml:space="preserve">
<style type="text/css">
	.st0{fill-rule:evenodd;clip-rule:evenodd;fill:#B0A18B;}
	.st1{fill-rule:evenodd;clip-rule:evenodd;fill:#EAE0C7;}
	.st2{fill-rule:evenodd;clip-rule:evenodd;fill:#FFFFFF;}
	
		.st3{clip-path:url(#SVGID_00000005257980864455253910000014532479992940977850_);fill-rule:evenodd;clip-rule:evenodd;fill:#FFFFFF;}
	.st4{clip-path:url(#SVGID_00000005257980864455253910000014532479992940977850_);}
	
		.st5{clip-path:url(#SVGID_00000116919310931313028230000012947448005238207366_);fill-rule:evenodd;clip-rule:evenodd;fill:#DB415D;}
	
		.st6{clip-path:url(#SVGID_00000005257980864455253910000014532479992940977850_);fill-rule:evenodd;clip-rule:evenodd;fill:#D9DADA;}
	
		.st7{clip-path:url(#SVGID_00000031890727171789249970000012046248115921382277_);fill-rule:evenodd;clip-rule:evenodd;fill:#F9D2E5;}
	.st8{fill-rule:evenodd;clip-rule:evenodd;fill:#A7D3AE;}
</style>
<path class="st0" d="M29.5,56.3c7.9,0,15.1-0.4,20.3-1c5.2-0.6,8.4-1.4,8.4-2.3c0-1,0-2,0-3h-3.2H3.9H0.8v3c0,0.9,3.2,1.7,8.4,2.3
	C14.4,56,21.6,56.3,29.5,56.3"/>
<path d="M40.6,56.9c-3.4,0.2-7.2,0.3-11,0.3c-3.9,0-7.6-0.1-11-0.3c-3.5-0.2-6.7-0.4-9.4-0.7c-2.7-0.3-4.9-0.7-6.4-1.1
	C1,54.6,0,53.9,0,53.1v-3c0-0.4,0.3-0.8,0.8-0.8h57.5c0.4,0,0.8,0.3,0.8,0.8v3c0,0.8-1,1.5-2.7,2c-1.5,0.4-3.7,0.8-6.4,1.1
	C47.3,56.4,44.1,56.7,40.6,56.9 M29.5,55.6c3.9,0,7.6-0.1,11-0.2c3.5-0.2,6.6-0.4,9.3-0.7c2.6-0.3,4.7-0.7,6.1-1
	c1-0.3,1.6-0.5,1.6-0.5v-2.3h-56v2.3c0,0.1,0.6,0.2,1.6,0.5c1.4,0.4,3.5,0.7,6.1,1c2.6,0.3,5.8,0.5,9.3,0.7
	C21.9,55.5,25.6,55.6,29.5,55.6z"/>
<path class="st1" d="M29.5,53.3c7.9,0,15.1-0.4,20.3-1c5.2-0.6,8.4-1.4,8.4-2.3c0-0.9-3.2-1.7-8.4-2.3c-5.2-0.6-12.4-1-20.3-1
	c-7.9,0-15.1,0.4-20.3,1C4,48.3,0.8,49.1,0.8,50c0,0.9,3.2,1.7,8.4,2.3C14.4,53,21.6,53.3,29.5,53.3"/>
<path d="M40.6,53.8c-3.4,0.2-7.2,0.3-11,0.3c-3.9,0-7.6-0.1-11-0.3c-3.5-0.2-6.7-0.4-9.4-0.7c-2.7-0.3-4.9-0.7-6.4-1.1
	C1,51.5,0,50.9,0,50c0-0.8,1-1.5,2.7-2c1.5-0.4,3.7-0.8,6.4-1.1c2.7-0.3,5.8-0.5,9.4-0.7c3.4-0.2,7.2-0.3,11-0.3
	c3.9,0,7.6,0.1,11,0.3c3.5,0.2,6.7,0.4,9.4,0.7c2.7,0.3,4.9,0.7,6.4,1.1c1.8,0.5,2.7,1.2,2.7,2c0,0.8-1,1.5-2.7,2
	c-1.5,0.4-3.7,0.8-6.4,1.1C47.3,53.4,44.1,53.7,40.6,53.8 M29.5,52.6c3.9,0,7.6-0.1,11-0.2c3.5-0.2,6.6-0.4,9.3-0.7
	c2.6-0.3,4.7-0.7,6.1-1c1-0.3,1.6-0.5,1.6-0.5c0-0.1-0.6-0.2-1.6-0.5c-1.4-0.4-3.5-0.7-6.1-1c-2.6-0.3-5.8-0.5-9.3-0.7
	c-3.3-0.2-7-0.2-11-0.2c-3.9,0-7.6,0.1-11,0.2c-3.5,0.2-6.6,0.4-9.3,0.7c-2.6,0.3-4.7,0.7-6.1,1c-1,0.3-1.6,0.5-1.6,0.5
	c0,0.1,0.6,0.2,1.6,0.5c1.4,0.4,3.5,0.7,6.1,1c2.6,0.3,5.8,0.5,9.3,0.7C21.9,52.5,25.6,52.6,29.5,52.6z"/>
<path class="st2" d="M43.5,50.5L43.5,50.5c0-1.6-6.6-2.9-13.9-2.9s-12.9,1.5-13.9,2.9c-0.7-2.3-1.1-4.8-1.1-7.4
	c0-11,6.7-19.9,15-19.9s15,8.9,15,19.9C44.5,45.7,44.1,48.2,43.5,50.5"/>
<g>
	<defs>
		<path id="SVGID_1_" d="M43.5,50.5L43.5,50.5c0-1.6-6.6-2.9-13.9-2.9s-12.9,1.5-13.9,2.9c-0.7-2.3-1.1-4.8-1.1-7.4
			c0-11,6.7-19.9,15-19.9s15,8.9,15,19.9C44.5,45.7,44.1,48.2,43.5,50.5"/>
	</defs>
	<clipPath id="SVGID_00000044157199636392702680000003677351597946640301_">
		<use xlink:href="#SVGID_1_"  style="overflow:visible;"/>
	</clipPath>
	
		<path style="clip-path:url(#SVGID_00000044157199636392702680000003677351597946640301_);fill-rule:evenodd;clip-rule:evenodd;fill:#FFFFFF;" d="
		M40.3,49.4c-0.5-9-5.1-16-10.8-16s-10.3,7-10.8,16c2.9-0.3,6.6-0.6,10.8-0.6S37.4,49.1,40.3,49.4"/>
	<g style="clip-path:url(#SVGID_00000044157199636392702680000003677351597946640301_);">
		<defs>
			<path id="SVGID_00000114792354524487734030000007709544032127985065_" d="M40.3,49.4c-0.5-9-5.1-16-10.8-16s-10.3,7-10.8,16
				c2.9-0.3,6.6-0.6,10.8-0.6S37.4,49.1,40.3,49.4"/>
		</defs>
		<clipPath id="SVGID_00000073716812935089718650000011936694201921073066_">
			<use xlink:href="#SVGID_00000114792354524487734030000007709544032127985065_"  style="overflow:visible;"/>
		</clipPath>
		
			<path style="clip-path:url(#SVGID_00000073716812935089718650000011936694201921073066_);fill-rule:evenodd;clip-rule:evenodd;fill:#DB415D;" d="
			M38.6,50.1c-0.5-9-5.1-16-10.8-16c-5.6,0-10.3,7-10.8,16c2.9-0.3,6.6-0.6,10.8-0.6C31.9,49.6,35.7,49.8,38.6,50.1"/>
	</g>
	<path style="clip-path:url(#SVGID_00000044157199636392702680000003677351597946640301_);" d="M37.4,37.6c2,3,3.4,7.1,3.6,11.8
		l0,0.9l-0.9-0.1c-1.4-0.2-3.1-0.3-5-0.4c-1.8-0.1-3.7-0.1-5.7-0.1s-4,0-5.7,0.1c-1.8,0.1-3.5,0.2-5,0.4l-0.9,0.1l0-0.9
		c0.3-4.6,1.6-8.8,3.6-11.8c2.1-3.1,4.8-4.9,7.9-4.9C32.6,32.7,35.4,34.6,37.4,37.6 M39.5,48.6c-0.4-4-1.6-7.5-3.3-10.1
		c-1.8-2.6-4.1-4.3-6.7-4.3c-2.5,0-4.9,1.6-6.7,4.3c-1.7,2.6-2.9,6.1-3.3,10.1c1.2-0.1,2.6-0.2,4.1-0.3c1.8-0.1,3.8-0.1,5.8-0.1
		c2,0,4,0.1,5.8,0.1C36.8,48.4,38.2,48.5,39.5,48.6z"/>
	
		<path style="clip-path:url(#SVGID_00000044157199636392702680000003677351597946640301_);fill-rule:evenodd;clip-rule:evenodd;fill:#D9DADA;" d="
		M27.6,10.6c14.7,0,26.7,11.7,26.7,26.2c0,4.6-1.2,8.9-3.3,12.6c-2.2,0.4-5.5,0.8-9.5,1c0.7-2.3,1.1-4.8,1.1-7.4
		c0-11-6.7-19.9-15-19.9c-8.3,0-15,8.9-15,19.9c0,2.6,0.4,5.1,1.1,7.4c-4-0.3-7.2-0.6-9.5-1c-2.1-3.7-3.3-8.1-3.3-12.6
		C0.9,22.4,12.9,10.6,27.6,10.6"/>
</g>
<path d="M39.5,47.7c1.5,0.3,2.8,0.7,3.6,1.3c0.2-0.7,0.3-1.4,0.4-2.2c0.2-1.2,0.3-2.4,0.3-3.6c0-5.3-1.6-10.1-4.2-13.6
	c-2.6-3.4-6.1-5.5-10-5.5c-3.9,0-7.4,2.1-10,5.5c-2.6,3.5-4.2,8.3-4.2,13.6c0,1.3,0.1,2.5,0.3,3.6c0.1,0.8,0.3,1.6,0.5,2.4
	c1-0.6,2.5-1.1,4.5-1.5c2.4-0.5,5.5-0.8,9-0.8C33.3,46.8,36.8,47.1,39.5,47.7 M43.5,51.2c-0.4,0-0.8-0.3-0.8-0.8l0,0
	c-0.1-0.4-1.4-0.8-3.5-1.3c-2.5-0.5-6-0.9-9.6-0.9c-3.4,0-6.4,0.3-8.7,0.8c-2.5,0.5-4.2,1.2-4.6,1.8c-0.2,0.3-0.7,0.4-1.1,0.2
	c-0.1-0.1-0.2-0.2-0.3-0.4c-0.4-1.2-0.6-2.4-0.8-3.7c-0.2-1.3-0.3-2.5-0.3-3.9c0-5.7,1.7-10.8,4.5-14.5c2.9-3.8,6.8-6.1,11.2-6.1
	c4.4,0,8.4,2.3,11.2,6.1c2.8,3.7,4.5,8.9,4.5,14.5c0,1.3-0.1,2.6-0.3,3.9c-0.2,1.3-0.5,2.5-0.8,3.7C44.1,51,43.8,51.2,43.5,51.2z"/>
<path d="M47.7,75.2c0-0.6,0.1-1.1,0.2-1.7c0.1-0.6,0.3-1.1,0.6-1.6c0.3-0.5,0.7-0.9,1.2-1.2c0.5-0.3,1.1-0.4,1.7-0.4
	c0.7,0,1.3,0.1,1.8,0.4c0.5,0.3,0.9,0.7,1.2,1.2c0.3,0.5,0.5,1,0.6,1.6c0.1,0.6,0.2,1.1,0.2,1.7c0,0.6-0.1,1.1-0.2,1.7
	c-0.1,0.6-0.3,1.1-0.6,1.6c-0.3,0.5-0.7,0.9-1.2,1.2c-0.5,0.3-1.1,0.4-1.8,0.4c-0.7,0-1.3-0.1-1.7-0.4c-0.5-0.3-0.9-0.7-1.2-1.2
	c-0.3-0.5-0.5-1-0.6-1.6C47.7,76.3,47.7,75.7,47.7,75.2 M45.4,75.2c0,0.9,0.1,1.7,0.4,2.6c0.3,0.8,0.7,1.5,1.2,2.2
	c0.5,0.6,1.1,1.1,1.9,1.5c0.7,0.4,1.6,0.6,2.6,0.6c1,0,1.8-0.2,2.6-0.6c0.7-0.4,1.4-0.9,1.9-1.5c0.5-0.6,0.9-1.4,1.2-2.2
	c0.3-0.8,0.4-1.7,0.4-2.6s-0.1-1.7-0.4-2.6c-0.3-0.8-0.7-1.5-1.2-2.2c-0.5-0.6-1.1-1.1-1.9-1.5c-0.7-0.4-1.6-0.6-2.6-0.6
	c-1,0-1.8,0.2-2.6,0.6c-0.7,0.4-1.4,0.9-1.9,1.5c-0.5,0.6-0.9,1.4-1.2,2.2C45.5,73.4,45.4,74.3,45.4,75.2z"/>
<path d="M34.1,65.7h2.6c1,0,1.8,0.3,2.2,0.8c0.5,0.5,0.7,1.2,0.7,2c0,0.8-0.3,1.5-0.8,2.1c-0.5,0.6-1.3,0.8-2.2,0.8h-2.6V65.7z
	 M34.1,73.3h3.3c0.6,0,1.1,0.1,1.6,0.3c0.5,0.2,0.8,0.4,1.2,0.7c0.3,0.3,0.6,0.7,0.7,1.1c0.2,0.4,0.2,0.8,0.2,1.3
	c0,1-0.4,1.8-1.1,2.5c-0.7,0.6-1.6,0.9-2.7,0.9h-3.2V73.3z M31.9,80.8c0,0.3,0.1,0.6,0.3,0.9c0.2,0.2,0.5,0.4,0.9,0.4h4.3
	c1,0,1.8-0.1,2.6-0.4c0.7-0.3,1.4-0.7,1.9-1.2c0.5-0.5,0.9-1.1,1.2-1.7c0.3-0.6,0.4-1.3,0.4-2c0-0.6-0.1-1.2-0.3-1.7
	c-0.2-0.5-0.5-1-0.8-1.4c-0.4-0.4-0.8-0.7-1.3-1c-0.5-0.3-1-0.4-1.5-0.5v-0.1c0.8-0.2,1.4-0.7,1.8-1.4c0.5-0.7,0.7-1.6,0.7-2.6
	c0-0.5-0.1-1-0.3-1.6c-0.2-0.5-0.5-1-0.9-1.4c-0.4-0.4-0.9-0.8-1.5-1c-0.6-0.3-1.3-0.4-2.1-0.4h-4c-0.4,0-0.7,0.1-0.9,0.4
	c-0.2,0.2-0.3,0.5-0.3,0.9V80.8z"/>
<path d="M8.7,78.3L8.7,78.3L4,65.2c-0.1-0.4-0.3-0.7-0.5-1c-0.2-0.3-0.5-0.4-0.9-0.4c-0.3,0-0.6,0.1-0.7,0.3
	c-0.2,0.2-0.3,0.4-0.3,0.6c0,0.3,0.1,0.6,0.2,0.9l5.6,15.3c0.1,0.4,0.3,0.7,0.5,0.9C8,81.9,8.3,82,8.7,82c0.4,0,0.7-0.1,0.8-0.3
	c0.2-0.2,0.3-0.5,0.5-0.9l5.6-15.3c0.1-0.3,0.2-0.6,0.2-0.9c0-0.2-0.1-0.4-0.3-0.6c-0.2-0.2-0.4-0.3-0.7-0.3c-0.4,0-0.8,0.1-0.9,0.4
	c-0.2,0.3-0.3,0.6-0.5,1L8.7,78.3z"/>
<path d="M18.8,82c-0.6,0-1.1-0.5-1.1-1.1c0-0.6,0.5-1.1,1.1-1.1h7.8c0.6,0,1.1,0.5,1.1,1.1c0,0.6-0.5,1.1-1.1,1.1H18.8z"/>
<path d="M47.5,65.9c-0.6,0-1.1-0.5-1.1-1.1s0.5-1.1,1.1-1.1h7.8c0.6,0,1.1,0.5,1.1,1.1s-0.5,1.1-1.1,1.1H47.5z"/>
<path d="M19,70.6c0-0.6,0.1-1.1,0.2-1.7c0.1-0.6,0.3-1.1,0.6-1.6c0.3-0.5,0.7-0.9,1.2-1.2c0.5-0.3,1.1-0.4,1.7-0.4
	c0.7,0,1.3,0.1,1.8,0.4c0.5,0.3,0.9,0.7,1.2,1.2c0.3,0.5,0.5,1,0.6,1.6c0.1,0.6,0.2,1.1,0.2,1.7c0,0.6-0.1,1.1-0.2,1.7
	c-0.1,0.6-0.3,1.1-0.6,1.6c-0.3,0.5-0.7,0.9-1.2,1.2c-0.5,0.3-1.1,0.4-1.8,0.4c-0.7,0-1.3-0.1-1.7-0.4c-0.5-0.3-0.9-0.7-1.2-1.2
	c-0.3-0.5-0.5-1-0.6-1.6C19,71.7,19,71.1,19,70.6 M16.7,70.6c0,0.9,0.1,1.7,0.4,2.6c0.3,0.8,0.7,1.5,1.2,2.2
	c0.5,0.6,1.1,1.1,1.9,1.5c0.7,0.4,1.6,0.6,2.6,0.6c1,0,1.8-0.2,2.6-0.6c0.7-0.4,1.4-0.9,1.9-1.5c0.5-0.6,0.9-1.4,1.2-2.2
	c0.3-0.8,0.4-1.7,0.4-2.6s-0.1-1.7-0.4-2.6c-0.3-0.8-0.7-1.5-1.2-2.2c-0.5-0.6-1.1-1.1-1.9-1.5c-0.7-0.4-1.6-0.6-2.6-0.6
	c-1,0-1.8,0.2-2.6,0.6c-0.7,0.4-1.4,0.9-1.9,1.5c-0.5,0.6-0.9,1.4-1.2,2.2C16.8,68.8,16.7,69.7,16.7,70.6z"/>
<path d="M26.5,64.8c0-0.6,0.5-1.1,1.1-1.1c0.6,0,1.1,0.5,1.1,1.1v7.8c0,0.6-0.5,1.1-1.1,1.1c-0.6,0-1.1-0.5-1.1-1.1V64.8z"/>
<path d="M26.5,68.5c0-0.6,0.5-1.1,1.1-1.1c0.6,0,1.1,0.5,1.1,1.1v7.8c0,0.6-0.5,1.1-1.1,1.1c-0.6,0-1.1-0.5-1.1-1.1V68.5z"/>
<path class="st2" d="M29.5,10.6c14.7,0,26.7,11.7,26.7,26.2c0,4.6-1.2,8.9-3.3,12.6c-2.2,0.4-5.5,0.8-9.5,1c0.7-2.3,1.1-4.8,1.1-7.4
	c0-11-6.7-19.9-15-19.9c-8.3,0-15,8.9-15,19.9c0,2.6,0.4,5.1,1.1,7.4c-4-0.3-7.2-0.6-9.5-1C4,45.7,2.8,41.4,2.8,36.8
	C2.8,22.4,14.8,10.6,29.5,10.6"/>
<g>
	<defs>
		<path id="SVGID_00000180344453576951421820000003864423039101628049_" d="M29.5,10.6c14.7,0,26.7,11.7,26.7,26.2
			c0,4.6-1.2,8.9-3.3,12.6c-2.2,0.4-5.5,0.8-9.5,1c0.7-2.3,1.1-4.8,1.1-7.4c0-11-6.7-19.9-15-19.9c-8.3,0-15,8.9-15,19.9
			c0,2.6,0.4,5.1,1.1,7.4c-4-0.3-7.2-0.6-9.5-1C4,45.7,2.8,41.4,2.8,36.8C2.8,22.4,14.8,10.6,29.5,10.6"/>
	</defs>
	<clipPath id="SVGID_00000061470595647105957440000009484805984930494093_">
		<use xlink:href="#SVGID_00000180344453576951421820000003864423039101628049_"  style="overflow:visible;"/>
	</clipPath>
	
		<path style="clip-path:url(#SVGID_00000061470595647105957440000009484805984930494093_);fill-rule:evenodd;clip-rule:evenodd;fill:#F9D2E5;" d="
		M27.2,11.7c14.7,0,26.7,11.7,26.7,26.2c0,4.6-1.2,8.9-3.3,12.6c-2.2,0.4-5.5,0.8-9.5,1c0.7-2.3,1.1-4.8,1.1-7.4
		c0-11-6.7-19.9-15-19.9c-8.3,0-3.7,13.2-3.7,19.9c0,6.8-0.5,5.6,0.2,7.9c-4-0.3-17.7-1.2-20-1.6c-2.1-3.7-3.3-8.1-3.3-12.6
		C0.5,23.4,12.5,11.7,27.2,11.7"/>
</g>
<path d="M47.9,18.8c-4.7-4.6-11.2-7.4-18.3-7.4s-13.7,2.8-18.3,7.4c-4.7,4.6-7.6,10.9-7.6,18c0,2.2,0.3,4.3,0.8,6.3
	c0.5,2,1.3,3.9,2.2,5.6c1,0.2,2.3,0.4,3.7,0.5c1.3,0.1,2.7,0.3,4.3,0.4c-0.2-0.9-0.4-1.8-0.5-2.7c-0.2-1.3-0.3-2.5-0.3-3.9
	c0-5.7,1.7-10.8,4.5-14.5c2.9-3.8,6.8-6.1,11.2-6.1c4.4,0,8.4,2.3,11.2,6.1c2.8,3.7,4.5,8.9,4.5,14.5c0,1.3-0.1,2.6-0.3,3.9
	c-0.1,0.9-0.3,1.8-0.5,2.7c1.6-0.1,3-0.2,4.3-0.4c1.4-0.2,2.6-0.3,3.7-0.5c1-1.8,1.7-3.6,2.2-5.6c0.5-2,0.8-4.1,0.8-6.3
	C55.5,29.8,52.6,23.4,47.9,18.8 M29.5,9.9c7.6,0,14.4,3,19.4,7.9c5,4.9,8,11.6,8,19c0,2.3-0.3,4.6-0.9,6.7c-0.6,2.2-1.4,4.3-2.6,6.3
	c-0.1,0.2-0.3,0.3-0.5,0.4l0,0c-1.1,0.2-2.5,0.4-4.1,0.6c-1.6,0.2-3.4,0.3-5.4,0.5c-0.4,0-0.8-0.3-0.8-0.7c0-0.1,0-0.2,0-0.3
	c0.3-1.1,0.6-2.3,0.8-3.5c0.2-1.2,0.3-2.4,0.3-3.6c0-5.3-1.6-10.1-4.2-13.6c-2.6-3.4-6.1-5.5-10-5.5c-3.9,0-7.4,2.1-10,5.5
	c-2.6,3.5-4.2,8.3-4.2,13.6c0,1.3,0.1,2.5,0.3,3.6c0.2,1.2,0.4,2.4,0.8,3.5c0.1,0.4-0.1,0.8-0.5,0.9c-0.1,0-0.2,0-0.3,0
	c-2-0.1-3.8-0.3-5.4-0.5c-1.6-0.2-3-0.4-4.1-0.6c-0.2,0-0.4-0.2-0.5-0.4c-1.1-1.9-1.9-4-2.5-6.2c-0.6-2.2-0.9-4.4-0.9-6.7
	c0-7.4,3.1-14.2,8-19C15.1,12.9,21.9,9.9,29.5,9.9z"/>
<path class="st8" d="M29.5,10.6c-1.8,0.8-4.7,0.8-7.7-0.2c-3-1-5.3-2.7-6.3-4.4c1.8-0.8,4.7-0.8,7.7,0.2
	C26.2,7.2,28.5,8.9,29.5,10.6"/>
<path d="M26.1,10.5c0.8,0,1.6-0.1,2.3-0.2c-0.4-0.5-1-1-1.7-1.5C25.6,8,24.4,7.4,23,7c-1.4-0.5-2.8-0.7-4-0.7
	c-0.8,0-1.6,0.1-2.3,0.2c0.4,0.5,1,1,1.7,1.5c1,0.7,2.2,1.3,3.6,1.8C23.5,10.2,24.8,10.4,26.1,10.5 M29.8,11.3
	c-1,0.5-2.3,0.7-3.8,0.6c-1.4,0-2.9-0.3-4.4-0.8c-1.5-0.5-2.9-1.2-4-2c-1.2-0.8-2.1-1.8-2.7-2.8l-0.4-0.7l0.8-0.3
	c1-0.5,2.3-0.7,3.8-0.6c1.4,0,2.9,0.3,4.4,0.8c1.5,0.5,2.9,1.2,4,2c1.2,0.8,2.1,1.8,2.7,2.8l0.4,0.7L29.8,11.3z"/>
<path class="st8" d="M40.5,0.8c-0.2,2-1.6,4.5-4,6.6c-2.3,2.1-5,3.3-7,3.2c0.2-2,1.6-4.5,4-6.6C35.8,2,38.5,0.8,40.5,0.8"/>
<path d="M38.6,3.7C39,3,39.3,2.3,39.5,1.7c-0.7,0.1-1.4,0.4-2.2,0.7c-1.1,0.5-2.3,1.3-3.4,2.3c-1.1,1-2,2-2.6,3.1
	c-0.4,0.7-0.7,1.4-0.9,2.1c0.7-0.1,1.4-0.4,2.2-0.7c1.1-0.5,2.3-1.3,3.4-2.3C37.1,5.9,37.9,4.8,38.6,3.7 M41.2,0.9
	c-0.1,1.1-0.6,2.4-1.3,3.6C39.2,5.7,38.2,6.9,37,8c-1.2,1.1-2.5,1.9-3.7,2.5c-1.3,0.6-2.6,0.9-3.7,0.9l-0.8,0l0.1-0.8
	c0.1-1.1,0.6-2.4,1.3-3.6c0.7-1.2,1.7-2.4,2.9-3.4c1.2-1.1,2.5-1.9,3.7-2.5c1.3-0.6,2.6-0.9,3.7-0.9l0.8,0L41.2,0.9z"/>
</svg>
