<?xml version="1.0" encoding="utf-8"?>
<!-- Generator: Adobe Illustrator 26.0.3, SVG Export Plug-In . SVG Version: 6.00 Build 0)  -->
<svg version="1.1" id="Layer_1" xmlns:xodm="http://www.corel.com/coreldraw/odm/2003"
	 xmlns="http://www.w3.org/2000/svg" xmlns:xlink="http://www.w3.org/1999/xlink" x="0px" y="0px" viewBox="0 0 137.6 483.6"
	 style="enable-background:new 0 0 137.6 483.6;" xml:space="preserve">
<style type="text/css">
	.st0{fill-rule:evenodd;clip-rule:evenodd;fill:#FEFEFE;}
	.st1{fill-rule:evenodd;clip-rule:evenodd;fill:#F9D2E5;}
	.st2{fill:#2B2A29;}
	.st3{fill-rule:evenodd;clip-rule:evenodd;fill:#B1A28D;}
	.st4{fill-rule:evenodd;clip-rule:evenodd;fill:#EAE0C7;}
	.st5{clip-path:url(#SVGID_00000098919465071142318360000000183989200156354747_);}
	.st6{clip-path:url(#SVGID_00000104684967859651520340000016750273588452744083_);}
	.st7{fill-rule:evenodd;clip-rule:evenodd;fill:#DB4762;}
	.st8{clip-path:url(#SVGID_00000096034584795116691590000000209433554366649018_);}
	.st9{fill:none;}
	.st10{fill-rule:evenodd;clip-rule:evenodd;fill:#D9DADA;}
	.st11{clip-path:url(#SVGID_00000152246298803596709690000010723779965488903857_);}
	.st12{fill-rule:evenodd;clip-rule:evenodd;fill:#A8D4AF;}
	.st13{clip-path:url(#SVGID_00000147916629221465994280000000725906856429706629_);}
	.st14{clip-path:url(#SVGID_00000102506893434516749510000012343488113422351526_);}
	.st15{clip-path:url(#SVGID_00000083060326111221863300000015614228859018153601_);}
	.st16{clip-path:url(#SVGID_00000132053784813165346420000014148032565973264805_);}
	.st17{fill:#FFFFFF;}
	.st18{fill-rule:evenodd;clip-rule:evenodd;fill:#FFFFFF;}
</style>
<g id="Layer_x0020_1">
	<g id="_2941355554864">
		<path class="st0" d="M68.8,375.9c27.4,0,49.7,22.2,49.7,49.7c0,27.4-22.2,49.7-49.7,49.7S19.2,453,19.2,425.5
			C19.2,398.1,41.4,375.9,68.8,375.9z"/>
		<path class="st1" d="M68.8,368c31.8,0,57.5,25.7,57.5,57.5c0,31.8-25.7,57.5-57.5,57.5s-57.5-25.7-57.5-57.5
			C11.3,393.8,37.1,368,68.8,368L68.8,368z M68.8,382.4c23.8,0,43.2,19.3,43.2,43.2s-19.3,43.2-43.2,43.2s-43.2-19.3-43.2-43.2
			C25.7,401.7,45,382.4,68.8,382.4z"/>
		<path class="st2" d="M68.8,367.4c16,0,30.6,6.5,41.1,17s17,25,17,41.1c0,16-6.5,30.6-17,41.1c-10.5,10.5-25,17-41.1,17
			s-30.6-6.5-41.1-17c-10.5-10.5-17-25-17-41.1c0-16,6.5-30.6,17-41.1S52.8,367.4,68.8,367.4z M109.1,385.3
			c-10.3-10.3-24.5-16.7-40.2-16.7s-29.9,6.4-40.2,16.7c-10.3,10.3-16.7,24.5-16.7,40.2c0,15.7,6.4,29.9,16.7,40.2
			c10.3,10.3,24.5,16.7,40.2,16.7s29.9-6.4,40.2-16.7c10.3-10.3,16.7-24.5,16.7-40.2S119.4,395.6,109.1,385.3L109.1,385.3z
			 M68.8,381.8c12.1,0,23,4.9,30.9,12.8c7.9,7.9,12.8,18.9,12.8,30.9c0,12.1-4.9,23-12.8,30.9c-7.9,7.9-18.9,12.8-30.9,12.8
			c-12.1,0-23-4.9-30.9-12.8c-7.9-7.9-12.8-18.9-12.8-30.9c0-12.1,4.9-23,12.8-30.9C45.8,386.7,56.7,381.8,68.8,381.8L68.8,381.8z
			 M98.9,395.4c-7.7-7.7-18.3-12.5-30.1-12.5c-11.8,0-22.4,4.8-30.1,12.5c-7.7,7.7-12.5,18.3-12.5,30.1c0,11.8,4.8,22.4,12.5,30.1
			c7.7,7.7,18.3,12.5,30.1,12.5c11.8,0,22.4-4.8,30.1-12.5c7.7-7.7,12.5-18.3,12.5-30.1C111.4,413.8,106.6,403.1,98.9,395.4z"/>
		<path class="st1" d="M1.2,435h25.5c-0.7-3.1-1.1-6.2-1.1-9.5c0-3.3,0.4-6.4,1.1-9.5H1.2l7,9.5C8.1,425.5,1.2,435,1.2,435z
			 M136.5,435h-25.5c0.7-3.1,1-6.2,1-9.5c0-3.3-0.4-6.4-1-9.5h25.5l-7,9.5L136.5,435z"/>
		<path class="st2" d="M2.3,434.4H26c-0.3-1.3-0.5-2.7-0.6-4.1c-0.2-1.6-0.3-3.2-0.3-4.8c0-1.6,0.1-3.2,0.3-4.8
			c0.2-1.4,0.4-2.7,0.6-4.1H2.3l6.5,8.9L2.3,434.4L2.3,434.4z M26.7,435.6H0l7.4-10.1L0,415.4h27.4l-0.2,0.7
			c-0.3,1.5-0.6,3.1-0.8,4.6c-0.2,1.5-0.3,3.1-0.3,4.7c0,1.6,0.1,3.2,0.3,4.7c0.2,1.6,0.4,3.1,0.8,4.6l0.2,0.7L26.7,435.6
			L26.7,435.6z M136.5,435.6h-26.3l0.2-0.7c0.3-1.5,0.6-3.1,0.8-4.6c0.2-1.5,0.3-3.1,0.3-4.7c0-1.6-0.1-3.2-0.3-4.7
			c-0.2-1.6-0.4-3.1-0.8-4.6l-0.2-0.7h27.4l-7.4,10.1l7.4,10.1L136.5,435.6L136.5,435.6z M111.7,434.4h23.6l-6.5-8.9l6.5-8.9h-23.6
			c0.3,1.3,0.5,2.7,0.6,4.1c0.2,1.6,0.3,3.2,0.3,4.8c0,1.6-0.1,3.2-0.3,4.8C112.1,431.7,111.9,433.1,111.7,434.4L111.7,434.4z"/>
		<path class="st2" d="M12.7,428.7l2.3-3.1c0.3-0.3,0.4-0.6,0.5-0.9c0.1-0.3,0.2-0.5,0.2-0.8c0-0.6-0.2-1-0.5-1.4
			c-0.4-0.3-0.8-0.5-1.4-0.5c-0.3,0-0.6,0.1-0.9,0.2c-0.3,0.1-0.5,0.3-0.7,0.5c-0.2,0.2-0.3,0.4-0.4,0.7c-0.1,0.3-0.2,0.6-0.2,0.9
			c0,0.2,0,0.3,0.1,0.4c0.1,0.1,0.2,0.1,0.3,0.1c0.1,0,0.2,0,0.3-0.1c0.1-0.1,0.1-0.2,0.1-0.3c0-0.6,0.1-1,0.4-1.2
			c0.2-0.3,0.6-0.4,1-0.4c0.4,0,0.6,0.1,0.9,0.3c0.2,0.2,0.3,0.5,0.3,0.9c0,0.2,0,0.4-0.1,0.6c-0.1,0.2-0.3,0.5-0.5,0.8l-2.4,3.2
			c-0.1,0.1-0.1,0.2-0.2,0.3c0,0.1,0,0.1,0,0.2c0,0.1,0,0.1,0.1,0.2c0.1,0.1,0.2,0.1,0.3,0.1h3.4c0.1,0,0.2,0,0.3-0.1
			c0.1-0.1,0.1-0.1,0.1-0.2c0-0.1,0-0.2-0.1-0.2c-0.1-0.1-0.2-0.1-0.3-0.1L12.7,428.7L12.7,428.7z M19.9,429.4
			c0.3,0,0.5-0.1,0.8-0.2c0.3-0.1,0.5-0.3,0.7-0.6c0.2-0.3,0.4-0.7,0.6-1.1c0.1-0.5,0.2-1,0.2-1.7c0-0.7-0.1-1.3-0.2-1.7
			c-0.1-0.5-0.3-0.8-0.6-1.1c-0.2-0.3-0.5-0.5-0.7-0.6c-0.3-0.1-0.5-0.2-0.8-0.2c-0.3,0-0.5,0.1-0.8,0.2c-0.3,0.1-0.5,0.3-0.7,0.6
			c-0.2,0.3-0.4,0.7-0.6,1.1c-0.1,0.5-0.2,1-0.2,1.7c0,0.7,0.1,1.3,0.2,1.7c0.1,0.5,0.3,0.8,0.6,1.1c0.2,0.3,0.5,0.5,0.7,0.6
			C19.4,429.3,19.6,429.4,19.9,429.4z M19.9,422.8c0.3,0,0.5,0.1,0.7,0.2c0.2,0.1,0.3,0.4,0.5,0.6c0.1,0.3,0.2,0.6,0.3,0.9
			c0.1,0.4,0.1,0.8,0.1,1.2s0,0.8-0.1,1.2c-0.1,0.4-0.2,0.7-0.3,0.9c-0.1,0.3-0.3,0.5-0.5,0.6c-0.2,0.1-0.4,0.2-0.7,0.2
			c-0.3,0-0.5-0.1-0.7-0.2c-0.2-0.1-0.3-0.4-0.5-0.6c-0.1-0.3-0.2-0.6-0.3-0.9c-0.1-0.4-0.1-0.8-0.1-1.2s0-0.8,0.1-1.2
			c0.1-0.4,0.2-0.7,0.3-0.9c0.1-0.3,0.3-0.5,0.5-0.6C19.4,422.9,19.6,422.8,19.9,422.8z"/>
		<path class="st2" d="M117,428.7l2.3-3.1c0.3-0.3,0.4-0.6,0.5-0.9c0.1-0.3,0.2-0.5,0.2-0.8c0-0.6-0.2-1-0.5-1.4
			c-0.4-0.3-0.8-0.5-1.4-0.5c-0.3,0-0.6,0.1-0.9,0.2c-0.3,0.1-0.5,0.3-0.7,0.5c-0.2,0.2-0.3,0.4-0.4,0.7c-0.1,0.3-0.2,0.6-0.2,0.9
			c0,0.2,0,0.3,0.1,0.4c0.1,0.1,0.2,0.1,0.3,0.1c0.1,0,0.2,0,0.3-0.1c0.1-0.1,0.1-0.2,0.1-0.3c0-0.6,0.1-1,0.4-1.2s0.6-0.4,1-0.4
			c0.4,0,0.6,0.1,0.9,0.3c0.2,0.2,0.3,0.5,0.3,0.9c0,0.2,0,0.4-0.1,0.6c-0.1,0.2-0.3,0.5-0.5,0.8l-2.4,3.2c-0.1,0.1-0.1,0.2-0.2,0.3
			c0,0.1,0,0.1,0,0.2c0,0.1,0,0.1,0.1,0.2c0.1,0.1,0.2,0.1,0.3,0.1h3.4c0.1,0,0.2,0,0.3-0.1c0.1-0.1,0.1-0.1,0.1-0.2
			c0-0.1,0-0.2-0.1-0.2c-0.1-0.1-0.2-0.1-0.3-0.1L117,428.7L117,428.7z M125,428.9c0,0.3,0.1,0.5,0.4,0.5c0.2,0,0.4-0.2,0.4-0.5
			v-1.5h0.4c0.1,0,0.2,0,0.3-0.1c0.1-0.1,0.1-0.1,0.1-0.2c0-0.1,0-0.2-0.1-0.2c-0.1-0.1-0.2-0.1-0.3-0.1h-0.4v-4
			c0-0.2-0.1-0.3-0.2-0.4c-0.1-0.1-0.3-0.2-0.4-0.2c-0.2,0-0.3,0-0.4,0.1c-0.1,0.1-0.2,0.2-0.3,0.3l-2.4,4c-0.1,0.1-0.2,0.3-0.2,0.4
			c0,0.1-0.1,0.2-0.1,0.3c0,0.1,0,0.2,0.1,0.2c0.1,0,0.2,0.1,0.3,0.1h2.9L125,428.9L125,428.9z M125,426.8h-2.4l2.3-4.1h0L125,426.8
			L125,426.8z"/>
		<path class="st3" d="M68.8,434.9c6.2,0,11.8-0.3,15.9-0.8c4.1-0.5,6.6-1.1,6.6-1.8c0-0.8,0-1.6,0-2.4h-2.5h-40h-2.5v2.4
			c0,0.7,2.5,1.4,6.6,1.8C57,434.6,62.6,434.9,68.8,434.9z"/>
		<path class="st2" d="M68.8,434.3c3.1,0,5.9-0.1,8.6-0.2c2.7-0.1,5.2-0.3,7.3-0.6c2-0.2,3.7-0.5,4.8-0.8c0.8-0.2,1.3-0.4,1.3-0.4
			v-1.8H46.9v1.8c0,0,0.5,0.2,1.3,0.4c1.1,0.3,2.7,0.6,4.8,0.8c2.1,0.2,4.5,0.4,7.3,0.6C62.9,434.3,65.8,434.3,68.8,434.3z
			 M77.4,435.3c-2.7,0.1-5.6,0.2-8.6,0.2c-3,0-5.9-0.1-8.6-0.2c-2.8-0.1-5.3-0.3-7.3-0.6c-2.1-0.2-3.8-0.5-5-0.9
			c-1.4-0.4-2.1-0.9-2.1-1.6V430c0-0.3,0.3-0.6,0.6-0.6h44.9c0.3,0,0.6,0.3,0.6,0.6v2.4c0,0.7-0.8,1.2-2.1,1.6
			c-1.2,0.3-2.9,0.6-5,0.9C82.7,435,80.2,435.2,77.4,435.3z"/>
		<path class="st4" d="M68.8,432.6c6.2,0,11.8-0.3,15.9-0.8c4.1-0.5,6.6-1.1,6.6-1.8c0-0.7-2.5-1.4-6.6-1.8
			c-4.1-0.5-9.7-0.8-15.9-0.8c-6.2,0-11.8,0.3-15.9,0.8c-4.1,0.5-6.6,1.1-6.6,1.8c0,0.7,2.5,1.4,6.6,1.8
			C57,432.3,62.6,432.6,68.8,432.6z"/>
		<path class="st2" d="M68.8,432c3.1,0,5.9-0.1,8.6-0.2c2.7-0.1,5.2-0.3,7.3-0.6c2-0.2,3.7-0.5,4.8-0.8c0.8-0.2,1.3-0.4,1.3-0.4
			c0,0-0.5-0.2-1.3-0.4c-1.1-0.3-2.7-0.6-4.8-0.8c-2.1-0.2-4.5-0.4-7.3-0.6c-2.6-0.1-5.5-0.2-8.6-0.2c-3.1,0-5.9,0.1-8.6,0.2
			c-2.7,0.1-5.2,0.3-7.3,0.6c-2,0.2-3.7,0.5-4.8,0.8c-0.8,0.2-1.3,0.4-1.3,0.4c0,0,0.5,0.2,1.3,0.4c1.1,0.3,2.7,0.6,4.8,0.8
			c2.1,0.2,4.5,0.4,7.3,0.6C62.9,431.9,65.8,432,68.8,432z M77.4,433c-2.7,0.1-5.6,0.2-8.6,0.2c-3,0-5.9-0.1-8.6-0.2
			c-2.8-0.1-5.3-0.3-7.3-0.6c-2.1-0.2-3.8-0.5-5-0.9c-1.4-0.4-2.1-0.9-2.1-1.6c0-0.7,0.8-1.2,2.1-1.6c1.2-0.3,2.9-0.6,5-0.9
			c2.1-0.2,4.6-0.4,7.3-0.6c2.7-0.1,5.6-0.2,8.6-0.2c3,0,5.9,0.1,8.6,0.2c2.8,0.1,5.3,0.3,7.3,0.6c2.1,0.2,3.8,0.5,5,0.9
			c1.4,0.4,2.1,0.9,2.1,1.6c0,0.7-0.8,1.2-2.1,1.6c-1.2,0.3-2.9,0.6-5,0.9C82.7,432.7,80.2,432.8,77.4,433L77.4,433z"/>
		<path class="st0" d="M79.7,430.3L79.7,430.3c0-1.3-5.2-2.3-10.9-2.3s-10.1,1.2-10.9,2.3c-0.5-1.8-0.8-3.7-0.8-5.7
			c0-8.6,5.2-15.5,11.7-15.5s11.7,6.9,11.7,15.5C80.5,426.6,80.2,428.6,79.7,430.3z"/>
		<g>
			<defs>
				<path id="SVGID_1_" d="M79.7,430.3L79.7,430.3c0-1.3-5.2-2.3-10.9-2.3s-10.1,1.2-10.9,2.3c-0.5-1.8-0.8-3.7-0.8-5.7
					c0-8.6,5.2-15.5,11.7-15.5s11.7,6.9,11.7,15.5C80.5,426.6,80.2,428.6,79.7,430.3z"/>
			</defs>
			<clipPath id="SVGID_00000076593886456108950060000009356392348360305321_">
				<use xlink:href="#SVGID_1_"  style="overflow:visible;"/>
			</clipPath>
			<g style="clip-path:url(#SVGID_00000076593886456108950060000009356392348360305321_);">
				<g>
					<path id="_1" class="st0" d="M77.2,429.5c-0.4-7-4-12.5-8.4-12.5c-4.4,0-8,5.5-8.4,12.5c2.2-0.3,5.2-0.4,8.4-0.4
						C72.1,429.1,75,429.3,77.2,429.5z"/>
				</g>
				<g>
					<defs>
						<path id="SVGID_00000006700180939362016060000011605796177894506932_" d="M77.2,428.9c-0.6-6.7-4.1-11.9-8.4-11.9
							c-4.3,0-7.9,5.2-8.4,12c2-0.6,4.9-1,8.4-1C72.1,428.1,75.1,428.4,77.2,428.9z"/>
					</defs>
					<clipPath id="SVGID_00000178913657045282605120000004267346176382290313_">
						<use xlink:href="#SVGID_00000006700180939362016060000011605796177894506932_"  style="overflow:visible;"/>
					</clipPath>
					<g style="clip-path:url(#SVGID_00000178913657045282605120000004267346176382290313_);">
						<g>
							<path id="_2" class="st7" d="M75.9,430.1c-0.4-7-4-12.5-8.4-12.5c-4.4,0-8,5.5-8.4,12.5c2.2-0.3,5.2-0.4,8.4-0.4
								C70.7,429.6,73.6,429.8,75.9,430.1z"/>
						</g>
					</g>
				</g>
				<g>
					<defs>
						<path id="SVGID_00000067204488990130891600000017521672452267797933_" d="M79.7,430.3L79.7,430.3c0-1.3-5.2-2.3-10.9-2.3
							s-10.1,1.2-10.9,2.3c-0.5-1.8-0.8-3.7-0.8-5.7c0-8.6,5.2-15.5,11.7-15.5s11.7,6.9,11.7,15.5C80.5,426.6,80.2,428.6,79.7,430.3
							z"/>
					</defs>
					<clipPath id="SVGID_00000132083628748661937820000010652835021339231928_">
						<use xlink:href="#SVGID_00000067204488990130891600000017521672452267797933_"  style="overflow:visible;"/>
					</clipPath>
					<g style="clip-path:url(#SVGID_00000132083628748661937820000010652835021339231928_);">
						<path class="st9" d="M77.2,429.5c-0.4-7-4-12.5-8.4-12.5c-4.4,0-8,5.5-8.4,12.5c2.2-0.3,5.2-0.4,8.4-0.4
							C72.1,429.1,75,429.3,77.2,429.5z"/>
						<path class="st2" d="M76.6,428.9c-0.3-3.1-1.2-5.9-2.6-7.9c-1.4-2.1-3.2-3.3-5.2-3.3c-2,0-3.8,1.3-5.2,3.3
							c-1.4,2-2.3,4.8-2.6,7.9c1-0.1,2.1-0.2,3.2-0.2c1.4-0.1,3-0.1,4.5-0.1c1.6,0,3.1,0,4.5,0.1C74.5,428.7,75.6,428.8,76.6,428.9z
							 M75,420.3c1.6,2.3,2.6,5.6,2.8,9.2l0,0.7l-0.7-0.1c-1.1-0.1-2.4-0.2-3.9-0.3c-1.4-0.1-2.9-0.1-4.5-0.1s-3.1,0-4.5,0.1
							c-1.4,0.1-2.7,0.2-3.9,0.3l-0.7,0.1l0-0.7c0.2-3.6,1.2-6.9,2.8-9.2c1.6-2.4,3.8-3.8,6.2-3.8C71.2,416.5,73.4,417.9,75,420.3
							L75,420.3z"/>
						<path class="st10" d="M67.3,399.2c11.5,0,20.9,9.1,20.9,20.4c0,3.6-0.9,6.9-2.6,9.9c-1.7,0.3-4.3,0.6-7.4,0.8
							c0.5-1.8,0.8-3.7,0.8-5.7c0-8.6-5.2-15.5-11.7-15.5c-6.5,0-11.7,6.9-11.7,15.5c0,2,0.3,4,0.8,5.7c-3.1-0.2-5.6-0.5-7.4-0.8
							c-1.7-2.9-2.6-6.3-2.6-9.9C46.5,408.4,55.8,399.2,67.3,399.2z"/>
					</g>
				</g>
			</g>
		</g>
		<path class="st9" d="M79.7,430.3L79.7,430.3c0-1.3-5.2-2.3-10.9-2.3s-10.1,1.2-10.9,2.3c-0.5-1.8-0.8-3.7-0.8-5.7
			c0-8.6,5.2-15.5,11.7-15.5s11.7,6.9,11.7,15.5C80.5,426.6,80.2,428.6,79.7,430.3z"/>
		<path class="st2" d="M79.7,430.9c-0.3,0-0.6-0.3-0.6-0.6l0,0c-0.1-0.3-1.1-0.7-2.8-1c-2-0.4-4.7-0.7-7.5-0.7c-2.6,0-5,0.3-6.8,0.6
			c-2,0.4-3.3,0.9-3.6,1.4c-0.2,0.3-0.6,0.3-0.8,0.1c-0.1-0.1-0.2-0.2-0.2-0.3c-0.3-0.9-0.5-1.9-0.6-2.9c-0.1-1-0.2-2-0.2-3
			c0-4.4,1.4-8.4,3.6-11.3c2.2-3,5.3-4.8,8.8-4.8c3.4,0,6.5,1.8,8.8,4.8c2.2,2.9,3.6,6.9,3.6,11.3c0,1-0.1,2-0.2,3
			c-0.1,1-0.4,2-0.6,2.9C80.2,430.8,80,430.9,79.7,430.9L79.7,430.9z M76.6,428.2c1.2,0.3,2.2,0.6,2.8,1c0.1-0.6,0.2-1.1,0.3-1.7
			c0.1-0.9,0.2-1.9,0.2-2.8c0-4.2-1.3-7.9-3.3-10.6c-2-2.7-4.8-4.3-7.8-4.3c-3,0-5.8,1.6-7.8,4.3c-2,2.7-3.3,6.5-3.3,10.6
			c0,1,0.1,1.9,0.2,2.8c0.1,0.6,0.2,1.3,0.4,1.9c0.8-0.5,2-0.9,3.5-1.2c1.9-0.4,4.3-0.7,7-0.7C71.7,427.5,74.5,427.7,76.6,428.2z"/>
		<path class="st2" d="M81.2,449.6c0,0.7,0.1,1.4,0.3,2c0.2,0.6,0.5,1.2,0.9,1.7c0.4,0.5,0.9,0.9,1.5,1.2c0.6,0.3,1.2,0.4,2,0.4
			c0.7,0,1.4-0.1,2-0.4c0.6-0.3,1.1-0.7,1.5-1.2c0.4-0.5,0.7-1.1,0.9-1.7c0.2-0.6,0.3-1.3,0.3-2s-0.1-1.4-0.3-2
			c-0.2-0.6-0.5-1.2-0.9-1.7c-0.4-0.5-0.9-0.9-1.5-1.2c-0.6-0.3-1.2-0.4-2-0.4c-0.7,0-1.4,0.1-2,0.4c-0.6,0.3-1.1,0.7-1.5,1.2
			c-0.4,0.5-0.7,1.1-0.9,1.7C81.3,448.3,81.2,449,81.2,449.6z M83,449.6c0-0.4,0-0.9,0.2-1.3c0.1-0.4,0.3-0.9,0.5-1.2
			c0.2-0.4,0.5-0.7,0.9-0.9c0.4-0.2,0.8-0.4,1.4-0.4c0.5,0,1,0.1,1.4,0.4c0.4,0.2,0.7,0.5,0.9,0.9c0.2,0.4,0.4,0.8,0.5,1.2
			c0.1,0.4,0.2,0.9,0.2,1.3c0,0.4-0.1,0.9-0.2,1.3c-0.1,0.4-0.3,0.9-0.5,1.2c-0.2,0.4-0.5,0.7-0.9,0.9c-0.4,0.2-0.8,0.4-1.4,0.4
			c-0.5,0-1-0.1-1.4-0.4c-0.4-0.2-0.7-0.5-0.9-0.9c-0.2-0.4-0.4-0.8-0.5-1.2C83,450.5,83,450.1,83,449.6z"/>
		<path class="st2" d="M70.6,454c0,0.3,0.1,0.5,0.2,0.7c0.1,0.2,0.4,0.3,0.7,0.3H75c0.7,0,1.4-0.1,2-0.3c0.6-0.2,1.1-0.5,1.5-0.9
			c0.4-0.4,0.7-0.8,0.9-1.3c0.2-0.5,0.3-1,0.3-1.6c0-0.5-0.1-0.9-0.2-1.3c-0.2-0.4-0.4-0.8-0.7-1.1c-0.3-0.3-0.6-0.6-1-0.8
			c-0.4-0.2-0.8-0.3-1.2-0.4v0c0.6-0.2,1.1-0.6,1.4-1.1c0.4-0.6,0.6-1.2,0.6-2c0-0.4-0.1-0.8-0.3-1.2c-0.2-0.4-0.4-0.8-0.7-1.1
			c-0.3-0.3-0.7-0.6-1.2-0.8c-0.5-0.2-1-0.3-1.7-0.3h-3.1c-0.3,0-0.6,0.1-0.7,0.3s-0.2,0.4-0.2,0.7V454L70.6,454z M72.4,448.2H75
			c0.5,0,0.9,0.1,1.2,0.2s0.7,0.3,0.9,0.6c0.3,0.2,0.4,0.5,0.6,0.8c0.1,0.3,0.2,0.7,0.2,1c0,0.8-0.3,1.4-0.8,1.9
			c-0.6,0.5-1.3,0.7-2.1,0.7h-2.5L72.4,448.2L72.4,448.2z M72.4,442.2h2.1c0.8,0,1.4,0.2,1.7,0.6c0.4,0.4,0.6,0.9,0.6,1.6
			c0,0.7-0.2,1.2-0.6,1.6c-0.4,0.4-1,0.7-1.8,0.7h-2V442.2L72.4,442.2z"/>
		<path class="st2" d="M52.5,452.1L52.5,452.1l-3.6-10.2c-0.1-0.3-0.2-0.6-0.4-0.8c-0.1-0.2-0.4-0.3-0.7-0.3c-0.2,0-0.4,0.1-0.6,0.2
			c-0.1,0.1-0.2,0.3-0.2,0.5c0,0.2,0,0.4,0.1,0.7l4.3,11.9c0.1,0.3,0.2,0.5,0.4,0.7c0.1,0.2,0.4,0.3,0.7,0.3c0.3,0,0.5-0.1,0.7-0.3
			c0.1-0.2,0.3-0.4,0.4-0.7l4.3-11.9c0.1-0.2,0.1-0.5,0.1-0.7c0-0.2-0.1-0.3-0.2-0.5c-0.1-0.1-0.3-0.2-0.6-0.2
			c-0.3,0-0.6,0.1-0.7,0.3c-0.1,0.2-0.3,0.5-0.4,0.8C56.1,441.8,52.5,452.1,52.5,452.1z"/>
		<path class="st2" d="M60.4,455c-0.5,0-0.9-0.4-0.9-0.9c0-0.5,0.4-0.9,0.9-0.9h6.1c0.5,0,0.9,0.4,0.9,0.9c0,0.5-0.4,0.9-0.9,0.9
			H60.4z"/>
		<path class="st2" d="M82.9,442.4c-0.5,0-0.9-0.4-0.9-0.9s0.4-0.9,0.9-0.9H89c0.5,0,0.9,0.4,0.9,0.9s-0.4,0.9-0.9,0.9H82.9z"/>
		<path class="st2" d="M58.8,446c0,0.7,0.1,1.4,0.3,2c0.2,0.6,0.5,1.2,0.9,1.7c0.4,0.5,0.9,0.9,1.5,1.2c0.6,0.3,1.2,0.4,2,0.4
			c0.7,0,1.4-0.1,2-0.4c0.6-0.3,1.1-0.7,1.5-1.2c0.4-0.5,0.7-1.1,0.9-1.7c0.2-0.6,0.3-1.3,0.3-2c0-0.7-0.1-1.4-0.3-2
			c-0.2-0.6-0.5-1.2-0.9-1.7c-0.4-0.5-0.9-0.9-1.5-1.2c-0.6-0.3-1.2-0.4-2-0.4c-0.7,0-1.4,0.1-2,0.4c-0.6,0.3-1.1,0.7-1.5,1.2
			c-0.4,0.5-0.7,1.1-0.9,1.7C58.9,444.7,58.8,445.3,58.8,446z M60.6,446c0-0.4,0.1-0.9,0.2-1.3c0.1-0.4,0.3-0.9,0.5-1.2
			c0.2-0.4,0.5-0.7,0.9-0.9c0.4-0.2,0.8-0.4,1.4-0.4c0.5,0,1,0.1,1.4,0.4c0.4,0.2,0.7,0.5,0.9,0.9c0.2,0.4,0.4,0.8,0.5,1.2
			c0.1,0.4,0.1,0.9,0.1,1.3c0,0.4,0,0.9-0.1,1.3c-0.1,0.4-0.3,0.9-0.5,1.2c-0.2,0.4-0.5,0.7-0.9,0.9c-0.4,0.2-0.8,0.4-1.4,0.4
			c-0.5,0-1-0.1-1.4-0.4c-0.4-0.2-0.7-0.5-0.9-0.9c-0.2-0.4-0.4-0.8-0.5-1.2C60.6,446.9,60.6,446.5,60.6,446z"/>
		<path class="st2" d="M66.5,441.6c0-0.5,0.4-0.9,0.9-0.9c0.5,0,0.9,0.4,0.9,0.9v6.1c0,0.5-0.4,0.9-0.9,0.9c-0.5,0-0.9-0.4-0.9-0.9
			V441.6z"/>
		<path class="st2" d="M66.5,444.4c0-0.5,0.4-0.9,0.9-0.9c0.5,0,0.9,0.4,0.9,0.9v6.1c0,0.5-0.4,0.9-0.9,0.9c-0.5,0-0.9-0.4-0.9-0.9
			V444.4z"/>
		<path class="st0" d="M68.8,399.2c11.5,0,20.9,9.1,20.9,20.4c0,3.6-0.9,6.9-2.6,9.9c-1.7,0.3-4.3,0.6-7.4,0.8
			c0.5-1.8,0.8-3.7,0.8-5.7c0-8.6-5.2-15.5-11.7-15.5c-6.5,0-11.7,6.9-11.7,15.5c0,2,0.3,4,0.8,5.7c-3.1-0.2-5.6-0.5-7.4-0.8
			c-1.7-2.9-2.6-6.3-2.6-9.9C48,408.4,57.3,399.2,68.8,399.2z"/>
		<g>
			<defs>
				<path id="SVGID_00000183962364018753985330000009826455808248406155_" d="M68.8,399.2c11.5,0,20.9,9.1,20.9,20.4
					c0,3.6-0.9,6.9-2.6,9.9c-1.7,0.3-4.3,0.6-7.4,0.8c0.5-1.8,0.8-3.7,0.8-5.7c0-8.6-5.2-15.5-11.7-15.5c-6.5,0-11.7,6.9-11.7,15.5
					c0,2,0.3,4,0.8,5.7c-3.1-0.2-5.6-0.5-7.4-0.8c-1.7-2.9-2.6-6.3-2.6-9.9C48,408.4,57.3,399.2,68.8,399.2z"/>
			</defs>
			<clipPath id="SVGID_00000103225481598469234850000009496828776372679591_">
				<use xlink:href="#SVGID_00000183962364018753985330000009826455808248406155_"  style="overflow:visible;"/>
			</clipPath>
			<g style="clip-path:url(#SVGID_00000103225481598469234850000009496828776372679591_);">
				<g>
					<path id="_1_0" class="st1" d="M67,400c11.5,0,20.9,9.1,20.9,20.4c0,3.6-0.9,6.9-2.6,9.9c-1.7,0.3-4.3,0.6-7.4,0.8
						c0.5-1.8,0.8-3.7,0.8-5.7c0-8.6-5.2-15.5-11.7-15.5c-6.5,0-2.9,10.3-2.9,15.6s-0.4,4.4,0.2,6.2c-3.1-0.2-13.8-0.9-15.6-1.3
						c-1.6-2.9-2.6-6.3-2.6-9.9C46.2,409.2,55.5,400,67,400L67,400z"/>
				</g>
			</g>
		</g>
		<path class="st9" d="M68.8,399.2c11.5,0,20.9,9.1,20.9,20.4c0,3.6-0.9,6.9-2.6,9.9c-1.7,0.3-4.3,0.6-7.4,0.8
			c0.5-1.8,0.8-3.7,0.8-5.7c0-8.6-5.2-15.5-11.7-15.5c-6.5,0-11.7,6.9-11.7,15.5c0,2,0.3,4,0.8,5.7c-3.1-0.2-5.6-0.5-7.4-0.8
			c-1.7-2.9-2.6-6.3-2.6-9.9C48,408.4,57.3,399.2,68.8,399.2z"/>
		<path class="st2" d="M68.8,398.6c5.9,0,11.3,2.4,15.2,6.2c3.9,3.8,6.3,9.1,6.3,14.9c0,1.8-0.2,3.6-0.7,5.2c-0.5,1.7-1.1,3.4-2,4.9
			c-0.1,0.2-0.2,0.3-0.4,0.3v0c-0.9,0.2-2,0.3-3.2,0.5c-1.3,0.1-2.7,0.3-4.2,0.4c-0.3,0-0.6-0.2-0.6-0.6c0-0.1,0-0.1,0-0.2
			c0.3-0.9,0.5-1.8,0.6-2.7c0.1-0.9,0.2-1.9,0.2-2.8c0-4.2-1.3-7.9-3.3-10.6c-2-2.7-4.8-4.3-7.8-4.3c-3,0-5.8,1.6-7.8,4.3
			c-2,2.7-3.3,6.5-3.3,10.6c0,1,0.1,1.9,0.2,2.8c0.1,0.9,0.3,1.9,0.6,2.7c0.1,0.3-0.1,0.6-0.4,0.7c-0.1,0-0.2,0-0.2,0
			c-1.5-0.1-3-0.2-4.2-0.4c-1.3-0.1-2.3-0.3-3.2-0.5c-0.2,0-0.3-0.2-0.4-0.3c-0.9-1.5-1.5-3.2-2-4.9c-0.4-1.7-0.7-3.4-0.7-5.2
			c0-5.8,2.4-11.1,6.3-14.9C57.5,401,62.9,398.6,68.8,398.6L68.8,398.6z M83.1,405.6c-3.7-3.6-8.7-5.8-14.3-5.8
			c-5.6,0-10.7,2.2-14.3,5.8c-3.7,3.6-5.9,8.6-5.9,14c0,1.7,0.2,3.4,0.6,5c0.4,1.5,1,3,1.7,4.4c0.8,0.1,1.8,0.3,2.9,0.4
			c1,0.1,2.1,0.2,3.3,0.3c-0.2-0.7-0.3-1.4-0.4-2.1c-0.1-1-0.2-2-0.2-3c0-4.4,1.4-8.4,3.6-11.3c2.2-3,5.3-4.8,8.8-4.8
			c3.4,0,6.5,1.8,8.8,4.8c2.2,2.9,3.6,6.9,3.6,11.3c0,1-0.1,2-0.2,3c-0.1,0.7-0.2,1.4-0.4,2.1c1.2-0.1,2.3-0.2,3.3-0.3
			c1.1-0.1,2.1-0.3,2.9-0.4c0.7-1.4,1.3-2.8,1.7-4.4c0.4-1.6,0.6-3.2,0.6-5C89.1,414.2,86.8,409.2,83.1,405.6z"/>
		<path class="st12" d="M68.8,399.2c-1.4,0.6-3.7,0.6-6-0.1c-2.3-0.8-4.1-2.1-4.9-3.4c1.4-0.6,3.7-0.6,6,0.1
			C66.2,396.6,68.1,397.9,68.8,399.2z"/>
		<path class="st2" d="M69.1,399.8c-0.8,0.4-1.8,0.5-3,0.5c-1.1,0-2.3-0.2-3.5-0.6c-1.2-0.4-2.3-0.9-3.2-1.5
			c-0.9-0.7-1.7-1.4-2.1-2.2l-0.3-0.6l0.6-0.3c0.8-0.4,1.8-0.5,3-0.5c1.1,0,2.3,0.2,3.5,0.6c1.2,0.4,2.3,0.9,3.2,1.5
			c0.9,0.7,1.7,1.4,2.1,2.2l0.3,0.6L69.1,399.8L69.1,399.8z M66.1,399.1c0.7,0,1.2,0,1.8-0.2c-0.3-0.4-0.8-0.8-1.3-1.2
			c-0.8-0.5-1.8-1-2.8-1.4c-1.1-0.4-2.2-0.5-3.1-0.6c-0.6,0-1.2,0-1.8,0.2c0.3,0.4,0.8,0.8,1.3,1.2c0.8,0.5,1.8,1,2.8,1.4
			C64.1,398.9,65.2,399.1,66.1,399.1L66.1,399.1z"/>
		<path class="st12" d="M77.4,391.6c-0.2,1.5-1.3,3.5-3.1,5.1c-1.8,1.6-3.9,2.5-5.4,2.5c0.2-1.5,1.3-3.5,3.1-5.1
			C73.8,392.5,75.8,391.6,77.4,391.6z"/>
		<path class="st2" d="M77.9,391.6c-0.1,0.9-0.5,1.8-1,2.8c-0.6,0.9-1.3,1.8-2.3,2.7c-0.9,0.8-1.9,1.5-2.9,2c-1,0.5-2,0.7-2.9,0.7
			l-0.7,0l0.1-0.6c0.1-0.9,0.5-1.8,1-2.8c0.6-0.9,1.3-1.8,2.3-2.7c0.9-0.8,1.9-1.5,2.9-2c1-0.5,2-0.7,2.9-0.7l0.7,0L77.9,391.6z
			 M75.9,393.8c0.3-0.6,0.6-1.1,0.7-1.6c-0.5,0.1-1.1,0.3-1.7,0.6c-0.9,0.4-1.8,1-2.6,1.8c-0.9,0.8-1.5,1.6-2,2.4
			c-0.3,0.6-0.6,1.1-0.7,1.6c0.5-0.1,1.1-0.3,1.7-0.6c0.9-0.4,1.8-1,2.6-1.8C74.7,395.5,75.4,394.7,75.9,393.8z"/>
		<path class="st9" d="M68.8,379.4c25.5,0,46.2,20.7,46.2,46.2c0,25.5-20.7,46.2-46.2,46.2S22.7,451,22.7,425.5
			C22.7,400,43.3,379.4,68.8,379.4L68.8,379.4z"/>
		<path class="st2" d="M23.4,408.9l1.1-3l1.2,0c0.1,0,0.2,0,0.2,0c0.1,0,0.1-0.1,0.2-0.2c0-0.1,0-0.2,0-0.2c0-0.1-0.1-0.1-0.1-0.1
			c-0.1,0-0.2,0-0.3,0l-5.9-0.1c-0.1,0-0.1,0-0.2,0c-0.1,0-0.1,0-0.2,0c-0.1,0-0.1,0-0.2,0.1c0,0-0.1,0.1-0.1,0.2c0,0.1,0,0.1,0,0.2
			c0,0.1,0,0.1,0.1,0.2c0,0.1,0.1,0.1,0.1,0.1c0,0,0.1,0.1,0.1,0.1l4.4,4c0.1,0.1,0.2,0.1,0.2,0.2c0.1,0,0.1,0,0.2,0
			c0.1,0,0.1-0.1,0.2-0.2c0-0.1,0-0.2,0-0.3c0-0.1-0.1-0.1-0.1-0.2L23.4,408.9L23.4,408.9z M23.9,405.9l-1,2.6l-2.9-2.6l0,0
			L23.9,405.9z M25,401.8l3.7-0.9c0.1,0,0.2-0.1,0.3-0.2c0-0.1,0-0.1,0-0.2c0-0.1-0.1-0.1-0.1-0.2c-0.1,0-0.1-0.1-0.1-0.1
			c0,0-0.1,0-0.2,0l-3.2,0.8l0.3-0.5c0.1-0.2,0.2-0.5,0.2-0.7c0-0.2,0-0.5-0.1-0.7c-0.1-0.2-0.2-0.4-0.3-0.6
			c-0.2-0.2-0.3-0.3-0.6-0.5c-0.2-0.1-0.4-0.2-0.6-0.2c-0.2,0-0.5,0-0.7,0c-0.2,0.1-0.4,0.2-0.6,0.3c-0.2,0.2-0.4,0.4-0.6,0.7
			l-0.7,1.2c-0.1,0.1-0.1,0.2-0.1,0.3c0,0.1,0.1,0.1,0.2,0.2l5,2.9c0.2,0.1,0.4,0.1,0.5-0.1c0.1-0.2,0-0.4-0.2-0.5
			C27.1,403,25,401.8,25,401.8z M22.4,400.3l0.6-1c0.5-0.8,1-1,1.8-0.5c0.3,0.2,0.5,0.4,0.6,0.7c0.1,0.3,0,0.6-0.2,1l-0.6,1
			C24.5,401.5,22.4,400.3,22.4,400.3z M26.4,394l0.7-1c0.1-0.1,0.1-0.2,0.1-0.3c0-0.1,0-0.2-0.1-0.2c-0.1,0-0.1-0.1-0.2,0
			c-0.1,0-0.2,0.1-0.2,0.2l-1.9,2.6c-0.1,0.1-0.1,0.2-0.1,0.3c0,0.1,0.1,0.2,0.1,0.2c0.1,0,0.1,0.1,0.2,0c0.1,0,0.2-0.1,0.2-0.2
			l0.7-1l4.5,3.2c0.2,0.2,0.4,0.2,0.5,0c0.1-0.2,0.1-0.3-0.1-0.5L26.4,394L26.4,394z M29.1,390.3c-0.2-0.2-0.4-0.2-0.5,0
			c-0.1,0.2-0.1,0.3,0.1,0.5l4.3,3.7c0.2,0.2,0.4,0.2,0.5,0c0.1-0.2,0.1-0.3-0.1-0.5L29.1,390.3L29.1,390.3z M36.3,391.7
			c0.2-0.2,0.4-0.4,0.5-0.7c0.1-0.3,0.2-0.5,0.2-0.8c0-0.3,0-0.5-0.1-0.8c-0.1-0.2-0.3-0.5-0.5-0.7c-0.2-0.2-0.5-0.4-0.7-0.4
			c-0.3,0-0.5,0-0.8,0c-0.3,0.1-0.5,0.2-0.8,0.3c-0.3,0.1-0.5,0.2-0.7,0.3c-0.2,0.1-0.5,0.1-0.7,0.1c-0.2,0-0.4-0.1-0.6-0.2
			c-0.1-0.1-0.2-0.2-0.2-0.3c0-0.1-0.1-0.3,0-0.4c0-0.1,0.1-0.3,0.1-0.4c0.1-0.1,0.2-0.3,0.3-0.4c0.1-0.1,0.3-0.2,0.4-0.3
			s0.2-0.1,0.3-0.1s0.2,0,0.3-0.1s0.2-0.1,0.2-0.1c0,0,0.1-0.1,0.1-0.2c0-0.1,0-0.2-0.1-0.2c-0.1-0.1-0.1-0.1-0.3-0.1
			c-0.1,0-0.3,0-0.4,0.1c-0.2,0-0.3,0.1-0.5,0.2c-0.2,0.1-0.3,0.2-0.4,0.3c-0.2,0.2-0.3,0.4-0.4,0.6c-0.1,0.2-0.2,0.4-0.2,0.6
			c0,0.2,0,0.4,0,0.7c0.1,0.2,0.2,0.4,0.4,0.6c0.2,0.2,0.5,0.4,0.7,0.4c0.2,0,0.5,0,0.8,0c0.3-0.1,0.5-0.2,0.8-0.3
			c0.3-0.1,0.5-0.2,0.7-0.3c0.2-0.1,0.5-0.1,0.7-0.1c0.2,0,0.4,0.1,0.6,0.3c0.1,0.1,0.2,0.3,0.3,0.4c0.1,0.2,0.1,0.3,0.1,0.5
			c0,0.2,0,0.4-0.1,0.6s-0.2,0.4-0.4,0.5c-0.1,0.1-0.2,0.2-0.3,0.2c-0.1,0.1-0.2,0.1-0.3,0.2c-0.1,0-0.2,0.1-0.3,0.1
			c-0.1,0-0.1,0-0.2,0c0,0-0.1,0-0.2,0c-0.1,0-0.1,0-0.2,0.1c-0.1,0.1-0.1,0.1-0.1,0.2c0,0.1,0,0.2,0.1,0.2c0.1,0.1,0.2,0.1,0.3,0.1
			c0.1,0,0.3,0,0.4-0.1c0.2-0.1,0.3-0.1,0.5-0.3C35.9,392,36.1,391.9,36.3,391.7L36.3,391.7z M38.9,387.5l2.6-1.9l1,0.7
			c0.1,0,0.1,0.1,0.2,0.1c0.1,0,0.2,0,0.3-0.1c0.1-0.1,0.1-0.1,0.1-0.2c0-0.1,0-0.1,0-0.2c0-0.1-0.1-0.1-0.2-0.2l-4.9-3.3
			c0,0-0.1-0.1-0.2-0.1c-0.1,0-0.1-0.1-0.2-0.1c-0.1,0-0.1,0-0.2,0c-0.1,0-0.1,0-0.2,0.1c-0.1,0-0.1,0.1-0.1,0.2
			c0,0.1,0,0.1-0.1,0.2c0,0.1,0,0.1,0,0.2c0,0.1,0,0.1,0,0.2l1.5,5.7c0,0.1,0.1,0.2,0.1,0.3c0,0.1,0.1,0.1,0.2,0.1
			c0.1,0,0.1,0,0.2-0.1c0.1-0.1,0.1-0.1,0.1-0.2c0-0.1,0-0.1,0-0.2L38.9,387.5z M41,385.3l-2.2,1.6l-1-3.8l0,0L41,385.3z
			 M42.9,380.1L42.9,380.1l5.5,2.9c0.1,0,0.2,0.1,0.2,0.1c0.1,0,0.1,0,0.2,0c0.1,0,0.1-0.1,0.2-0.2c0-0.1,0-0.2-0.1-0.3l-2.6-5.1
			c-0.1-0.2-0.3-0.3-0.5-0.2c-0.2,0.1-0.2,0.3-0.1,0.5l2.2,4.3l0,0l-5.4-2.9c-0.1,0-0.1-0.1-0.2-0.1c-0.1,0-0.1,0-0.2,0
			c-0.1,0-0.1,0.1-0.2,0.2c0,0.1,0,0.2,0,0.3l2.6,5.1c0.1,0.2,0.3,0.3,0.5,0.2c0.2-0.1,0.2-0.3,0.1-0.5L42.9,380.1L42.9,380.1z
			 M58.3,378.6L58.3,378.6l-2.6-4.5c-0.1-0.3-0.3-0.4-0.6-0.3c-0.1,0-0.1,0-0.2,0.1c-0.1,0-0.1,0.1-0.2,0.1c-0.1,0-0.1,0.1-0.1,0.2
			c0,0.1,0,0.2,0,0.3l0.4,5.2c0,0,0,0.1,0,0.2c0,0.1,0,0.1,0,0.2c0,0.1,0,0.1,0,0.2c0,0,0,0.1,0,0.1c0,0.1,0.1,0.2,0.2,0.2
			c0.1,0,0.1,0,0.2,0c0.1,0,0.2-0.1,0.2-0.2c0-0.1,0-0.2,0-0.3l-0.4-5.5l0,0l2.9,5c0.1,0.1,0.1,0.2,0.2,0.2c0.1,0,0.1,0.1,0.2,0
			c0.1,0,0.2-0.1,0.2-0.1c0-0.1,0.1-0.2,0.1-0.4l0.4-5.6l0,0l2,5.1c0,0.1,0.1,0.2,0.2,0.3c0.1,0.1,0.1,0.1,0.3,0
			c0.1,0,0.1-0.1,0.2-0.1c0.1-0.1,0.1-0.1,0-0.3c0,0,0,0,0-0.1c0,0,0-0.1-0.1-0.2c0-0.1,0-0.1-0.1-0.2c0-0.1,0-0.1-0.1-0.1l-1.9-4.8
			c0-0.1-0.1-0.2-0.1-0.2c-0.1-0.1-0.1-0.1-0.2-0.1c-0.1,0-0.1,0-0.2,0c-0.1,0-0.1,0-0.2,0c-0.1,0-0.2,0.1-0.3,0.2
			c-0.1,0.1-0.1,0.2-0.1,0.3L58.3,378.6L58.3,378.6z M63.7,375.5c0,0.4,0.1,0.8,0.2,1.2c0.1,0.4,0.3,0.7,0.5,1
			c0.2,0.3,0.5,0.5,0.9,0.7c0.4,0.2,0.8,0.3,1.2,0.2c0.5,0,0.9-0.1,1.2-0.3c0.3-0.2,0.6-0.4,0.8-0.8c0.2-0.3,0.4-0.7,0.5-1.1
			c0.1-0.4,0.2-0.8,0.1-1.2c0-0.4-0.1-0.8-0.2-1.2c-0.1-0.4-0.3-0.7-0.5-1c-0.2-0.3-0.5-0.5-0.9-0.7c-0.4-0.2-0.8-0.3-1.2-0.2
			s-0.9,0.1-1.2,0.3c-0.3,0.2-0.6,0.4-0.8,0.8c-0.2,0.3-0.4,0.7-0.5,1.1C63.7,374.7,63.7,375.1,63.7,375.5L63.7,375.5z M66.5,378.1
			c-0.4,0-0.7-0.1-1-0.2c-0.3-0.2-0.5-0.4-0.6-0.6c-0.2-0.3-0.3-0.5-0.4-0.8c-0.1-0.3-0.1-0.6-0.1-0.9c0-0.3,0-0.6,0.1-0.9
			c0.1-0.3,0.2-0.6,0.3-0.9c0.2-0.3,0.4-0.5,0.6-0.6c0.3-0.2,0.6-0.3,1-0.3c0.4,0,0.7,0.1,1,0.2c0.3,0.2,0.5,0.4,0.6,0.6
			c0.2,0.3,0.3,0.5,0.4,0.8c0.1,0.3,0.1,0.6,0.1,0.9c0,0.3,0,0.6-0.1,0.9c-0.1,0.3-0.2,0.6-0.3,0.9c-0.2,0.3-0.4,0.5-0.6,0.6
			C67.2,377.9,66.9,378,66.5,378.1L66.5,378.1z M71.7,376.3c0,0.4,0,0.7,0.1,1c0.1,0.3,0.3,0.5,0.5,0.8c0.2,0.2,0.4,0.4,0.7,0.5
			c0.3,0.1,0.6,0.2,0.9,0.3c0.3,0,0.6,0,0.9,0c0.3-0.1,0.6-0.2,0.8-0.3c0.2-0.2,0.5-0.4,0.6-0.6c0.2-0.3,0.3-0.6,0.3-0.9l0.5-3.9
			c0-0.3-0.1-0.4-0.3-0.5c-0.2,0-0.3,0.1-0.4,0.4l-0.5,3.8c0,0.3-0.1,0.5-0.2,0.7c-0.1,0.2-0.3,0.4-0.5,0.5
			c-0.2,0.1-0.4,0.2-0.6,0.2c-0.2,0-0.4,0-0.7,0c-0.2,0-0.4-0.1-0.6-0.2c-0.2-0.1-0.4-0.2-0.5-0.4c-0.1-0.2-0.3-0.4-0.3-0.6
			c-0.1-0.2-0.1-0.5-0.1-0.8l0.5-3.8c0-0.3-0.1-0.4-0.3-0.5c-0.2,0-0.3,0.1-0.4,0.4L71.7,376.3L71.7,376.3z M79.9,379.9
			c0.3,0.1,0.6,0.1,0.9,0c0.3,0,0.5-0.1,0.7-0.3c0.2-0.1,0.4-0.3,0.6-0.5c0.2-0.2,0.3-0.5,0.3-0.8c0.1-0.3,0.1-0.6,0-0.9
			c-0.1-0.2-0.2-0.5-0.4-0.6c-0.2-0.2-0.4-0.3-0.7-0.5c-0.2-0.1-0.5-0.3-0.7-0.4c-0.2-0.1-0.4-0.3-0.5-0.5c-0.1-0.2-0.1-0.4-0.1-0.6
			c0-0.1,0.1-0.2,0.2-0.4c0.1-0.1,0.2-0.2,0.3-0.3c0.1-0.1,0.3-0.1,0.4-0.1c0.2,0,0.3,0,0.5,0c0.2,0,0.3,0.1,0.4,0.2
			c0.1,0.1,0.2,0.1,0.3,0.2c0.1,0.1,0.1,0.1,0.2,0.2c0.1,0.1,0.1,0.1,0.2,0.1c0.1,0,0.1,0,0.2-0.1c0.1,0,0.1-0.1,0.1-0.2
			c0-0.1,0-0.2-0.1-0.3c-0.1-0.1-0.2-0.2-0.3-0.3c-0.1-0.1-0.3-0.2-0.4-0.3c-0.2-0.1-0.3-0.1-0.5-0.2c-0.2,0-0.5-0.1-0.7,0
			c-0.2,0-0.5,0.1-0.7,0.2c-0.2,0.1-0.4,0.2-0.5,0.4c-0.1,0.2-0.2,0.4-0.3,0.6c-0.1,0.3-0.1,0.6,0,0.8c0.1,0.2,0.3,0.4,0.4,0.6
			c0.2,0.2,0.4,0.3,0.7,0.5c0.2,0.1,0.5,0.3,0.7,0.4c0.2,0.2,0.4,0.3,0.5,0.5c0.1,0.2,0.1,0.4,0.1,0.7c0,0.2-0.1,0.3-0.2,0.5
			c-0.1,0.1-0.2,0.3-0.4,0.4c-0.2,0.1-0.3,0.2-0.5,0.2c-0.2,0-0.4,0-0.6,0c-0.1,0-0.2-0.1-0.3-0.1c-0.1-0.1-0.2-0.1-0.3-0.2
			c-0.1-0.1-0.2-0.1-0.2-0.2c-0.1-0.1-0.1-0.1-0.1-0.1c0,0-0.1-0.1-0.1-0.1c-0.1-0.1-0.1-0.1-0.1-0.1c-0.1,0-0.2,0-0.2,0
			c-0.1,0-0.1,0.1-0.1,0.2c0,0.1,0,0.2,0.1,0.3c0.1,0.1,0.2,0.2,0.3,0.3c0.1,0.1,0.3,0.2,0.5,0.3C79.4,379.8,79.6,379.9,79.9,379.9
			L79.9,379.9z M85,381.5c0.3,0.1,0.6,0.2,0.9,0.2c0.3,0,0.5-0.1,0.8-0.2c0.2-0.1,0.4-0.3,0.6-0.4c0.2-0.2,0.3-0.4,0.4-0.7
			c0.1-0.3,0.2-0.6,0.1-0.9c-0.1-0.3-0.2-0.5-0.3-0.7c-0.2-0.2-0.4-0.4-0.6-0.6c-0.2-0.2-0.4-0.4-0.6-0.5c-0.2-0.2-0.3-0.4-0.4-0.5
			c-0.1-0.2-0.1-0.4,0-0.6c0-0.1,0.1-0.2,0.2-0.3c0.1-0.1,0.2-0.2,0.3-0.2c0.1,0,0.3-0.1,0.4-0.1c0.2,0,0.3,0,0.5,0.1
			c0.2,0.1,0.3,0.1,0.4,0.2c0.1,0.1,0.2,0.2,0.2,0.3c0.1,0.1,0.1,0.2,0.2,0.2c0.1,0.1,0.1,0.1,0.2,0.2c0.1,0,0.1,0,0.2,0
			c0.1,0,0.1-0.1,0.2-0.2c0-0.1,0-0.2,0-0.3c-0.1-0.1-0.1-0.2-0.2-0.3c-0.1-0.1-0.2-0.2-0.4-0.3c-0.1-0.1-0.3-0.2-0.5-0.3
			c-0.2-0.1-0.5-0.1-0.7-0.1c-0.2,0-0.5,0-0.7,0.1c-0.2,0.1-0.4,0.2-0.6,0.3c-0.2,0.1-0.3,0.3-0.4,0.6c-0.1,0.3-0.1,0.6-0.1,0.8
			c0.1,0.2,0.2,0.5,0.4,0.7c0.2,0.2,0.4,0.4,0.6,0.6c0.2,0.2,0.4,0.4,0.6,0.5c0.2,0.2,0.3,0.4,0.4,0.6c0.1,0.2,0.1,0.4,0,0.7
			c-0.1,0.2-0.2,0.3-0.3,0.4c-0.1,0.1-0.3,0.2-0.4,0.3c-0.2,0.1-0.4,0.1-0.6,0.1c-0.2,0-0.4,0-0.6-0.1c-0.1,0-0.2-0.1-0.3-0.2
			c-0.1-0.1-0.2-0.1-0.3-0.2c-0.1-0.1-0.1-0.1-0.2-0.2c-0.1-0.1-0.1-0.1-0.1-0.1c0,0-0.1-0.1-0.1-0.2c0-0.1-0.1-0.1-0.1-0.1
			c-0.1,0-0.2,0-0.2,0s-0.1,0.1-0.2,0.2c0,0.1,0,0.2,0,0.3c0,0.1,0.1,0.2,0.2,0.4c0.1,0.1,0.3,0.3,0.5,0.4
			C84.5,381.3,84.8,381.4,85,381.5L85,381.5z M90.6,380.6l1.6,0.8c0.1,0,0.2,0.1,0.3,0c0.1,0,0.1-0.1,0.2-0.1c0-0.1,0-0.2,0-0.2
			c0-0.1-0.1-0.1-0.2-0.2l-1.6-0.8L92,378l1.7,0.9c0.1,0,0.2,0.1,0.3,0c0.1,0,0.1-0.1,0.2-0.1c0-0.1,0-0.2,0-0.2
			c0-0.1-0.1-0.1-0.2-0.2l-1.9-1c-0.1-0.1-0.2-0.1-0.3-0.1c-0.1,0-0.1,0.1-0.2,0.2l-2.7,5.2c-0.1,0.1-0.1,0.2,0,0.3
			c0,0.1,0.1,0.2,0.2,0.2l2,1c0.1,0,0.2,0.1,0.3,0c0.1,0,0.1-0.1,0.2-0.1c0-0.1,0-0.2,0-0.2c0-0.1-0.1-0.1-0.2-0.2l-1.8-0.9
			L90.6,380.6L90.6,380.6z M103,384.4c-0.4-0.3-0.8-0.5-1.2-0.5c-0.4-0.1-0.8-0.1-1.2,0.1c-0.4,0.1-0.7,0.3-1.1,0.5
			c-0.3,0.2-0.6,0.5-0.9,0.9c-0.3,0.3-0.5,0.7-0.6,1.1c-0.1,0.4-0.2,0.7-0.2,1.1c0,0.4,0.1,0.7,0.3,1.1c0.2,0.4,0.5,0.7,0.9,1
			c0.2,0.2,0.5,0.3,0.7,0.4c0.2,0.1,0.5,0.2,0.7,0.2c0.2,0,0.4,0,0.5,0c0.1,0,0.2-0.1,0.3-0.1c0.1-0.1,0.1-0.2,0.1-0.2
			c0-0.1,0-0.1-0.1-0.2c0,0-0.1-0.1-0.2-0.1c-0.1,0-0.2,0-0.4,0c-0.2,0-0.3-0.1-0.5-0.1c-0.2-0.1-0.4-0.2-0.6-0.4
			c-0.3-0.2-0.5-0.5-0.7-0.8c-0.1-0.3-0.2-0.6-0.2-0.9c0-0.3,0.1-0.6,0.2-0.9c0.1-0.3,0.3-0.6,0.5-0.8c0.2-0.3,0.4-0.5,0.7-0.7
			c0.3-0.2,0.6-0.4,0.9-0.4c0.3-0.1,0.6-0.1,0.9-0.1c0.3,0,0.6,0.2,0.9,0.4c0.2,0.2,0.4,0.3,0.5,0.5c0.1,0.2,0.2,0.3,0.2,0.5
			c0,0.1,0.1,0.3,0.1,0.4c0,0.1,0.1,0.2,0.1,0.2c0.1,0,0.1,0.1,0.2,0.1c0.1,0,0.2-0.1,0.2-0.1c0-0.1,0.1-0.2,0.1-0.3
			c0-0.2-0.1-0.3-0.1-0.5c-0.1-0.2-0.2-0.4-0.3-0.6C103.4,384.7,103.2,384.5,103,384.4L103,384.4z M103.3,391.7l2.2,2.3L105,395
			c0,0.1-0.1,0.2-0.1,0.2c0,0.1,0,0.2,0.1,0.2c0.1,0.1,0.1,0.1,0.2,0.1c0.1,0,0.1,0,0.2-0.1c0.1-0.1,0.1-0.1,0.2-0.2l2.6-5.3
			c0-0.1,0.1-0.1,0.1-0.2c0-0.1,0-0.1,0-0.2c0-0.1,0-0.1,0-0.2c0-0.1-0.1-0.1-0.1-0.2c-0.1-0.1-0.1-0.1-0.2-0.1c-0.1,0-0.1,0-0.2,0
			c-0.1,0-0.1,0-0.2,0c-0.1,0-0.1,0-0.2,0.1l-5.5,2.3c-0.1,0-0.2,0.1-0.2,0.1c0,0-0.1,0.1-0.1,0.2c0,0.1,0,0.1,0.1,0.2
			c0.1,0.1,0.2,0.1,0.2,0.1c0.1,0,0.1,0,0.2,0L103.3,391.7L103.3,391.7z M105.8,393.4l-1.9-1.9l3.6-1.6l0,0L105.8,393.4z
			 M109.2,395.9l-0.6,4.3c0,0.1,0,0.2,0,0.2c0,0.1,0,0.1,0.1,0.2c0.1,0.1,0.1,0.1,0.2,0.1c0.1,0,0.1,0,0.2,0c0,0,0.1-0.1,0.1-0.1
			c0,0,0-0.1,0.1-0.2l0.6-4.2l3.7,0.9c0.1,0,0.1,0,0.2,0c0,0,0.1,0,0.1-0.1c0.1,0,0.1-0.1,0.1-0.2c0-0.1,0-0.1-0.1-0.2
			c0-0.1-0.1-0.1-0.2-0.1c-0.1,0-0.1-0.1-0.2-0.1l-3.8-0.9l2-1.4c0.2-0.2,0.3-0.3,0.1-0.5c-0.1-0.2-0.3-0.2-0.5,0l-4.7,3.3
			c-0.2,0.2-0.3,0.3-0.1,0.5s0.3,0.2,0.5,0L109.2,395.9L109.2,395.9z M112.6,401.7l0.8,1.6c0,0.1,0.1,0.2,0.2,0.2c0.1,0,0.2,0,0.2,0
			c0.1,0,0.1-0.1,0.1-0.2c0-0.1,0-0.2,0-0.3l-0.8-1.6l2.1-1.1l0.9,1.7c0,0.1,0.1,0.2,0.2,0.2c0.1,0,0.2,0,0.2,0
			c0.1,0,0.1-0.1,0.1-0.2c0-0.1,0-0.2,0-0.3l-1-1.9c-0.1-0.1-0.1-0.2-0.2-0.2c-0.1,0-0.2,0-0.3,0l-5.2,2.7c-0.1,0.1-0.2,0.1-0.2,0.2
			c0,0.1,0,0.2,0.1,0.3l1,2c0,0.1,0.1,0.2,0.2,0.2c0.1,0,0.2,0,0.2,0c0.1,0,0.1-0.1,0.1-0.2c0-0.1,0-0.2,0-0.3l-0.9-1.8L112.6,401.7
			L112.6,401.7z M112.5,408.4c0.1,0.3,0.3,0.5,0.5,0.7c0.2,0.2,0.4,0.4,0.6,0.5c0.2,0.1,0.5,0.2,0.8,0.2c0.3,0,0.5-0.1,0.8-0.2
			c0.3-0.1,0.5-0.3,0.7-0.5c0.1-0.2,0.2-0.5,0.3-0.7c0-0.3,0.1-0.5,0-0.8c0-0.3,0-0.6,0-0.8c0-0.3,0.1-0.5,0.1-0.7
			c0.1-0.2,0.2-0.3,0.4-0.4c0.1,0,0.3-0.1,0.4-0.1c0.1,0,0.3,0,0.4,0.1c0.1,0.1,0.2,0.2,0.3,0.3c0.1,0.1,0.2,0.3,0.2,0.4
			c0.1,0.2,0.1,0.3,0.1,0.4s0,0.2,0,0.4c0,0.1,0,0.2-0.1,0.3c0,0.1,0,0.2,0,0.3c0,0.1,0.1,0.1,0.2,0.1c0.1,0,0.2,0,0.3,0
			c0.1,0,0.1-0.1,0.2-0.2c0-0.1,0.1-0.2,0.1-0.4c0-0.2,0-0.3,0-0.5c0-0.2-0.1-0.4-0.1-0.5c-0.1-0.2-0.2-0.4-0.4-0.6
			c-0.2-0.2-0.3-0.3-0.5-0.4c-0.2-0.1-0.4-0.2-0.6-0.2c-0.2,0-0.5,0-0.7,0.1c-0.3,0.1-0.5,0.3-0.6,0.5c-0.1,0.2-0.2,0.5-0.2,0.7
			c0,0.3,0,0.5,0,0.8s0,0.5,0,0.8c0,0.3-0.1,0.5-0.1,0.7c-0.1,0.2-0.3,0.3-0.5,0.4c-0.2,0.1-0.3,0.1-0.5,0.1c-0.2,0-0.4,0-0.5-0.1
			c-0.2-0.1-0.3-0.2-0.5-0.3c-0.1-0.1-0.3-0.3-0.3-0.5c0-0.1-0.1-0.2-0.1-0.3c0-0.1,0-0.2,0-0.3c0-0.1,0-0.2,0-0.3
			c0-0.1,0-0.1,0-0.2c0,0,0-0.1,0-0.2c0-0.1,0-0.1,0-0.2c0-0.1-0.1-0.1-0.2-0.2c-0.1,0-0.2,0-0.2,0c-0.1,0-0.2,0.1-0.2,0.2
			c-0.1,0.1-0.1,0.3-0.1,0.4c0,0.2,0,0.4,0,0.6C112.3,407.9,112.4,408.1,112.5,408.4L112.5,408.4z"/>
		<path class="st9" d="M68.8,379.4c25.5,0,46.2,20.7,46.2,46.2c0,25.5-20.7,46.2-46.2,46.2S22.7,451,22.7,425.5
			C22.7,400,43.3,379.4,68.8,379.4L68.8,379.4z"/>
		<path class="st2" d="M21.5,444l1.5,3.3l-2.4,1.1c-0.3,0.1-0.3,0.3-0.2,0.5c0.1,0.2,0.3,0.2,0.5,0.1l5.2-2.4
			c0.3-0.1,0.3-0.3,0.2-0.5c-0.1-0.2-0.3-0.2-0.5-0.1l-2.2,1l-1.5-3.3l2.2-1c0.3-0.1,0.3-0.3,0.2-0.5c-0.1-0.2-0.3-0.2-0.5-0.1
			l-5.2,2.4c-0.3,0.1-0.3,0.3-0.2,0.5c0.1,0.2,0.3,0.2,0.5,0.1L21.5,444z M23.6,452.2l1.8,2.7l-0.7,1c-0.1,0.1-0.1,0.1-0.1,0.2
			c0,0.1,0,0.2,0.1,0.3c0.1,0.1,0.1,0.1,0.2,0.1c0.1,0,0.1,0,0.2,0c0.1,0,0.1-0.1,0.2-0.2l3.6-4.7c0,0,0.1-0.1,0.1-0.1
			c0-0.1,0.1-0.1,0.1-0.2c0-0.1,0-0.1,0-0.2c0-0.1,0-0.1-0.1-0.2c0-0.1-0.1-0.1-0.1-0.2c-0.1,0-0.1-0.1-0.2-0.1c-0.1,0-0.1,0-0.2,0
			c-0.1,0-0.1,0-0.2,0l-5.8,1.2c-0.1,0-0.2,0-0.3,0.1c-0.1,0-0.1,0.1-0.1,0.2c0,0.1,0,0.1,0.1,0.2c0.1,0.1,0.1,0.2,0.2,0.2
			c0.1,0,0.1,0,0.2,0L23.6,452.2L23.6,452.2z M25.8,454.4l-1.5-2.3l3.9-0.8l0,0L25.8,454.4z M31.2,456.2L31.2,456.2l-1.6,6
			c0,0.1,0,0.2,0,0.2c0,0.1,0,0.1,0.1,0.2c0.1,0.1,0.1,0.1,0.2,0.1c0.1,0,0.2,0,0.3-0.1l4.3-3.7c0.2-0.2,0.2-0.4,0.1-0.5
			c-0.1-0.2-0.3-0.2-0.5,0l-3.7,3.2l0,0l1.6-5.9c0-0.1,0-0.2,0-0.2c0-0.1,0-0.1-0.1-0.2c-0.1-0.1-0.1-0.1-0.2-0.1
			c-0.1,0-0.2,0-0.3,0.1l-4.4,3.7c-0.2,0.2-0.2,0.4-0.1,0.5c0.1,0.2,0.3,0.2,0.5,0L31.2,456.2L31.2,456.2z M32.9,465.2
			c-0.1,0.1-0.1,0.2-0.1,0.3c0,0.1,0.1,0.2,0.2,0.3l1.2,1c0.3,0.3,0.6,0.4,1,0.6c0.4,0.1,0.7,0.1,1.1,0.1c0.4,0,0.7-0.2,1.1-0.4
			c0.4-0.2,0.7-0.5,1.1-0.9c0.2-0.3,0.5-0.6,0.6-1c0.2-0.4,0.3-0.7,0.3-1.1c0-0.4,0-0.8-0.1-1.2c-0.1-0.4-0.4-0.7-0.8-1.1l-1.2-1.1
			c-0.1-0.1-0.2-0.1-0.3-0.1c-0.1,0-0.2,0-0.2,0.1C36.7,460.7,32.9,465.2,32.9,465.2z M37,461.4l1,0.9c0.3,0.3,0.5,0.5,0.6,0.8
			c0.1,0.3,0.1,0.6,0.1,0.9c0,0.3-0.1,0.6-0.3,0.9c-0.1,0.3-0.3,0.5-0.5,0.8c-0.3,0.3-0.5,0.5-0.8,0.7c-0.3,0.2-0.6,0.3-0.8,0.4
			c-0.3,0.1-0.6,0.1-0.9,0c-0.3-0.1-0.6-0.2-0.9-0.5l-1-0.8L37,461.4L37,461.4z M42.5,471.2L42.5,471.2l1.2-5c0.1-0.3,0-0.5-0.2-0.6
			c-0.1,0-0.1-0.1-0.2-0.1c-0.1,0-0.1,0-0.2,0c-0.1,0-0.1,0-0.2,0.1c-0.1,0-0.1,0.1-0.2,0.2l-3.3,4.1c0,0-0.1,0.1-0.1,0.1
			c0,0-0.1,0.1-0.1,0.1c0,0-0.1,0.1-0.1,0.1c0,0,0,0.1-0.1,0.1c-0.1,0.1-0.1,0.2,0,0.3c0,0.1,0.1,0.1,0.1,0.2c0.1,0.1,0.2,0.1,0.3,0
			c0.1,0,0.1-0.1,0.2-0.2l3.4-4.3l0,0l-1.3,5.6c0,0.1,0,0.2,0,0.3c0,0.1,0.1,0.1,0.1,0.2c0.1,0.1,0.2,0.1,0.3,0
			c0.1,0,0.2-0.1,0.3-0.2l4.1-3.9l0,0l-2,5.1c0,0.1-0.1,0.2-0.1,0.3c0,0.1,0.1,0.2,0.2,0.2c0.1,0,0.1,0.1,0.2,0.1
			c0.1,0,0.2-0.1,0.2-0.2c0,0,0,0,0-0.1c0,0,0-0.1,0.1-0.2c0-0.1,0-0.1,0.1-0.2c0-0.1,0-0.1,0.1-0.1l1.9-4.8c0-0.1,0.1-0.2,0-0.3
			c0-0.1,0-0.1-0.1-0.2c0-0.1-0.1-0.1-0.1-0.2c-0.1-0.1-0.1-0.1-0.2-0.1c-0.1-0.1-0.2-0.1-0.3-0.1c-0.1,0-0.2,0.1-0.3,0.2
			L42.5,471.2L42.5,471.2z M49.2,474.2l3,1.1l0,1.2c0,0.1,0,0.2,0,0.2c0,0.1,0.1,0.1,0.2,0.2c0.1,0,0.2,0,0.2,0
			c0.1,0,0.1-0.1,0.1-0.1c0-0.1,0-0.2,0-0.3l0.1-5.9c0-0.1,0-0.1,0-0.2c0-0.1,0-0.1,0-0.2c0-0.1,0-0.1-0.1-0.2c0,0-0.1-0.1-0.2-0.1
			c-0.1,0-0.1,0-0.2,0c-0.1,0-0.1,0-0.2,0.1c-0.1,0-0.1,0.1-0.1,0.1c0,0-0.1,0.1-0.1,0.1l-4,4.4c-0.1,0.1-0.1,0.2-0.2,0.2
			c0,0.1,0,0.1,0,0.2c0,0.1,0.1,0.1,0.2,0.2c0.1,0,0.2,0,0.3,0c0.1,0,0.1-0.1,0.2-0.1L49.2,474.2L49.2,474.2z M52.2,474.7l-2.6-1
			l2.6-2.9l0,0L52.2,474.7z M55.9,477.5c0,0.1,0,0.2,0,0.3s0.1,0.1,0.3,0.1l1.6,0.3c0.4,0.1,0.8,0.1,1.1,0c0.4-0.1,0.7-0.2,1-0.5
			c0.3-0.2,0.6-0.5,0.8-0.9c0.2-0.4,0.4-0.8,0.5-1.3c0.1-0.4,0.1-0.8,0.1-1.2c0-0.4-0.1-0.8-0.3-1.1c-0.2-0.4-0.4-0.7-0.7-0.9
			c-0.3-0.3-0.7-0.4-1.2-0.5l-1.6-0.3c-0.1,0-0.3,0-0.3,0c-0.1,0-0.1,0.1-0.1,0.2L55.9,477.5L55.9,477.5z M57.6,472.2l1.3,0.2
			c0.4,0.1,0.7,0.2,0.9,0.4c0.2,0.2,0.4,0.4,0.5,0.7c0.1,0.3,0.2,0.6,0.2,0.9c0,0.3,0,0.6-0.1,0.9c-0.1,0.4-0.2,0.7-0.3,1
			c-0.1,0.3-0.3,0.6-0.5,0.8c-0.2,0.2-0.5,0.4-0.8,0.5c-0.3,0.1-0.6,0.1-1,0l-1.3-0.2L57.6,472.2L57.6,472.2z M64.9,476.2l1.8,0.1
			c0.1,0,0.2,0,0.3-0.1c0.1-0.1,0.1-0.1,0.1-0.2c0-0.1,0-0.2-0.1-0.2c-0.1-0.1-0.1-0.1-0.2-0.1l-1.8-0.1l0.2-2.4l1.9,0.1
			c0.1,0,0.2,0,0.3-0.1c0.1-0.1,0.1-0.1,0.1-0.2c0-0.1,0-0.2-0.1-0.2c-0.1-0.1-0.1-0.1-0.2-0.1l-2.2-0.2c-0.1,0-0.3,0-0.3,0.1
			s-0.1,0.1-0.1,0.3l-0.4,5.8c0,0.1,0,0.2,0.1,0.3c0.1,0.1,0.2,0.1,0.3,0.1l2.3,0.2c0.1,0,0.2,0,0.3-0.1c0.1-0.1,0.1-0.1,0.1-0.2
			c0-0.1,0-0.2-0.1-0.2c-0.1-0.1-0.1-0.1-0.2-0.1l-2-0.2L64.9,476.2L64.9,476.2z M76,478.2L76,478.2l-1.9-5.2c0-0.1-0.1-0.2-0.2-0.2
			c-0.1,0-0.1,0-0.2,0c-0.1,0-0.2,0.1-0.2,0.1c0,0.1-0.1,0.1,0,0.2c0,0,0,0,0,0.1c0,0,0,0.1,0,0.1c0,0,0,0.1,0.1,0.2
			c0,0.1,0.1,0.2,0.1,0.3l1.9,5c0,0.1,0.1,0.2,0.2,0.2c0.1,0,0.2,0.1,0.3,0c0.1,0,0.2-0.1,0.3-0.1c0.1-0.1,0.1-0.2,0.1-0.3l0.5-5.3
			l0,0l2.3,4.8c0.1,0.1,0.1,0.2,0.2,0.2c0.1,0,0.2,0,0.3,0c0.1,0,0.2-0.1,0.3-0.1c0.1-0.1,0.1-0.2,0.1-0.3l0-5.3c0-0.2,0-0.3,0-0.4
			c0-0.1,0-0.2,0-0.2c0-0.1-0.1-0.1-0.1-0.2c-0.1,0-0.1,0-0.2,0c-0.1,0-0.1,0-0.2,0.1c-0.1,0.1-0.1,0.1-0.1,0.3l0.1,5.5l0,0
			l-2.6-5.1c0-0.1-0.1-0.1-0.1-0.2c-0.1-0.1-0.1-0.1-0.3,0c-0.1,0-0.2,0.1-0.2,0.1c0,0.1-0.1,0.1-0.1,0.2L76,478.2L76,478.2z
			 M83.4,471c-0.1-0.3-0.2-0.4-0.4-0.3c-0.2,0.1-0.3,0.2-0.2,0.5l1.8,5.4c0.1,0.3,0.2,0.4,0.4,0.3c0.2-0.1,0.3-0.2,0.2-0.5L83.4,471
			z M88,469.4l1.2-0.5c0.1,0,0.2-0.1,0.2-0.2c0-0.1,0-0.2,0-0.2c0-0.1-0.1-0.1-0.2-0.2c-0.1,0-0.2,0-0.3,0l-2.9,1.3
			c-0.1,0-0.2,0.1-0.2,0.2c0,0.1,0,0.2,0,0.2c0,0.1,0.1,0.1,0.2,0.2c0.1,0,0.2,0,0.3,0l1.2-0.5l2.3,5c0.1,0.3,0.3,0.3,0.5,0.2
			c0.2-0.1,0.2-0.3,0.1-0.5L88,469.4L88,469.4z M93.6,469.9l3-1.9l1.4,2.2c0.1,0.2,0.3,0.3,0.5,0.2c0.2-0.1,0.2-0.3,0.1-0.5
			l-3.1-4.8c-0.1-0.2-0.3-0.3-0.5-0.2c-0.2,0.1-0.2,0.3-0.1,0.5l1.3,2.1l-3,1.9l-1.3-2.1c-0.1-0.2-0.3-0.3-0.5-0.2
			c-0.2,0.1-0.2,0.3-0.1,0.5l3.1,4.8c0.1,0.2,0.3,0.3,0.5,0.2c0.2-0.1,0.2-0.3,0.1-0.5L93.6,469.9z M101.5,460.3
			c-0.2-0.2-0.4-0.2-0.5-0.1c-0.2,0.2-0.1,0.3,0.1,0.5l4,4.2c0.1,0.1,0.1,0.1,0.2,0.1c0.1,0,0.2,0,0.2-0.1l1.5-1.4
			c0.1-0.1,0.1-0.2,0.1-0.2c0-0.1,0-0.2-0.1-0.2c-0.1-0.1-0.1-0.1-0.2-0.1c-0.1,0-0.2,0-0.2,0.1l-1.2,1.2L101.5,460.3L101.5,460.3z
			 M106.7,459.2c0.3,0.3,0.7,0.4,1.1,0.6c0.4,0.1,0.8,0.2,1.1,0.2c0.4,0,0.8-0.1,1.1-0.2c0.4-0.2,0.7-0.4,1-0.8
			c0.3-0.4,0.5-0.7,0.5-1.1c0.1-0.4,0-0.8-0.1-1.1c-0.1-0.4-0.3-0.7-0.5-1.1c-0.2-0.3-0.5-0.6-0.8-0.9c-0.3-0.3-0.7-0.4-1.1-0.6
			c-0.4-0.1-0.8-0.2-1.1-0.2c-0.4,0-0.8,0.1-1.1,0.2c-0.4,0.2-0.7,0.4-1,0.8c-0.3,0.4-0.5,0.7-0.5,1.1s0,0.8,0.1,1.1
			c0.1,0.4,0.3,0.7,0.5,1.1C106.1,458.7,106.4,459,106.7,459.2L106.7,459.2z M110.5,458.6c-0.2,0.3-0.5,0.5-0.8,0.6
			c-0.3,0.1-0.6,0.1-0.9,0.1c-0.3,0-0.6-0.1-0.9-0.2c-0.3-0.1-0.6-0.3-0.8-0.5c-0.2-0.2-0.5-0.4-0.7-0.6c-0.2-0.2-0.4-0.5-0.5-0.8
			c-0.1-0.3-0.1-0.6-0.1-0.9c0-0.3,0.2-0.6,0.4-0.9c0.2-0.3,0.5-0.5,0.8-0.6c0.3-0.1,0.6-0.1,0.9-0.1c0.3,0,0.6,0.1,0.9,0.2
			c0.3,0.1,0.6,0.3,0.8,0.5c0.2,0.2,0.5,0.4,0.7,0.6c0.2,0.2,0.4,0.5,0.5,0.8c0.1,0.3,0.1,0.6,0.1,0.9
			C110.8,458,110.7,458.3,110.5,458.6L110.5,458.6z M114.6,451.7L114.6,451.7l-5.4-1c-0.2,0-0.3,0-0.4,0.1c-0.1,0.1-0.1,0.2,0,0.3
			c0,0.1,0.1,0.1,0.1,0.2c0.1,0,0.2,0.1,0.5,0.1l5.6,1c0.1,0,0.2,0,0.3,0c0.1,0,0.2-0.1,0.2-0.2c0.1-0.1,0.1-0.2,0-0.3
			c0-0.1-0.1-0.2-0.2-0.2l-3.7-4.4c-0.2-0.2-0.3-0.3-0.3-0.3c-0.1,0-0.2-0.1-0.2,0c-0.1,0-0.1,0.1-0.2,0.2c-0.1,0.1-0.1,0.3,0.1,0.4
			L114.6,451.7L114.6,451.7z M115.6,445.5l0.7-1.7c0-0.1,0-0.2,0-0.3c0-0.1-0.1-0.1-0.2-0.2c-0.1,0-0.2,0-0.2,0
			c-0.1,0-0.1,0.1-0.2,0.2l-0.7,1.7l-2.2-0.9l0.7-1.8c0-0.1,0-0.2,0-0.3c0-0.1-0.1-0.1-0.2-0.2c-0.1,0-0.2,0-0.2,0
			c-0.1,0-0.1,0.1-0.2,0.2l-0.8,2c-0.1,0.1-0.1,0.2,0,0.3c0,0.1,0.1,0.1,0.2,0.2l5.4,2.2c0.1,0,0.2,0,0.3,0c0.1,0,0.1-0.1,0.2-0.3
			l0.8-2.1c0-0.1,0-0.2,0-0.3c0-0.1-0.1-0.1-0.2-0.2c-0.1,0-0.2,0-0.2,0c-0.1,0-0.1,0.1-0.2,0.2l-0.7,1.9L115.6,445.5L115.6,445.5z"
			/>
		<g>
			<path class="st3" d="M68.8,286.8c7.9,0,15.1-0.4,20.3-1c5.2-0.6,8.4-1.4,8.4-2.3c0-1,0-2,0-3h-3.2H43.2h-3.2v3
				c0,0.9,3.2,1.7,8.4,2.3C53.7,286.5,60.9,286.8,68.8,286.8z"/>
			<path class="st2" d="M68.8,286.1c3.9,0,7.6-0.1,11-0.2c3.5-0.2,6.6-0.4,9.3-0.7c2.6-0.3,4.7-0.7,6.1-1c1-0.3,1.6-0.5,1.6-0.5
				v-2.3h-56v2.3c0,0.1,0.6,0.2,1.6,0.5c1.4,0.4,3.5,0.7,6.1,1c2.6,0.3,5.8,0.5,9.3,0.7C61.2,286,64.9,286.1,68.8,286.1z
				 M79.8,287.3c-3.4,0.2-7.2,0.3-11,0.3c-3.9,0-7.6-0.1-11-0.3c-3.5-0.2-6.7-0.4-9.4-0.7c-2.7-0.3-4.9-0.7-6.4-1.1
				c-1.8-0.5-2.7-1.2-2.7-2v-3c0-0.4,0.3-0.8,0.8-0.8h57.5c0.4,0,0.8,0.3,0.8,0.8v3c0,0.8-1,1.5-2.7,2c-1.5,0.4-3.7,0.8-6.4,1.1
				C86.6,286.9,83.4,287.2,79.8,287.3z"/>
			<path class="st4" d="M68.8,283.8c7.9,0,15.1-0.4,20.3-1c5.2-0.6,8.4-1.4,8.4-2.3c0-0.9-3.2-1.7-8.4-2.3c-5.2-0.6-12.4-1-20.3-1
				c-7.9,0-15.1,0.4-20.3,1c-5.2,0.6-8.4,1.4-8.4,2.3c0,0.9,3.2,1.7,8.4,2.3C53.7,283.5,60.9,283.8,68.8,283.8z"/>
			<path class="st2" d="M68.8,283.1c3.9,0,7.6-0.1,11-0.2c3.5-0.2,6.6-0.4,9.3-0.7c2.6-0.3,4.7-0.7,6.1-1c1-0.3,1.6-0.5,1.6-0.5
				c0-0.1-0.6-0.2-1.6-0.5c-1.4-0.4-3.5-0.7-6.1-1c-2.6-0.3-5.8-0.5-9.3-0.7c-3.3-0.2-7-0.2-11-0.2c-3.9,0-7.6,0.1-11,0.2
				c-3.5,0.2-6.6,0.4-9.3,0.7c-2.6,0.3-4.7,0.7-6.1,1c-1,0.3-1.6,0.5-1.6,0.5c0,0.1,0.6,0.2,1.6,0.5c1.4,0.4,3.5,0.7,6.1,1
				c2.6,0.3,5.8,0.5,9.3,0.7C61.2,283,64.9,283.1,68.8,283.1L68.8,283.1z M79.8,284.3c-3.4,0.2-7.2,0.3-11,0.3
				c-3.9,0-7.6-0.1-11-0.3c-3.5-0.2-6.7-0.4-9.4-0.7c-2.7-0.3-4.9-0.7-6.4-1.1c-1.8-0.5-2.7-1.2-2.7-2c0-0.8,1-1.5,2.7-2
				c1.5-0.4,3.7-0.8,6.4-1.1c2.7-0.3,5.8-0.5,9.4-0.7c3.4-0.2,7.2-0.3,11-0.3c3.9,0,7.6,0.1,11,0.3c3.5,0.2,6.7,0.4,9.4,0.7
				c2.7,0.3,4.9,0.7,6.4,1.1c1.8,0.5,2.7,1.2,2.7,2c0,0.8-1,1.5-2.7,2c-1.5,0.4-3.7,0.8-6.4,1.1C86.6,283.9,83.4,284.2,79.8,284.3z"
				/>
			<path class="st0" d="M82.7,281L82.7,281c0-1.6-6.6-2.9-13.9-2.9c-7.3,0-12.9,1.5-13.9,2.9c-0.7-2.3-1.1-4.8-1.1-7.4
				c0-11,6.7-19.9,15-19.9s15,8.9,15,19.9C83.8,276.2,83.4,278.7,82.7,281z"/>
			<g>
				<defs>
					<path id="SVGID_00000129184209405429460150000015148941442747643782_" d="M82.7,281L82.7,281c0-1.6-6.6-2.9-13.9-2.9
						c-7.3,0-12.9,1.5-13.9,2.9c-0.7-2.3-1.1-4.8-1.1-7.4c0-11,6.7-19.9,15-19.9s15,8.9,15,19.9C83.8,276.2,83.4,278.7,82.7,281z"/>
				</defs>
				<clipPath id="SVGID_00000015356454820614400000000015974974561211043982_">
					<use xlink:href="#SVGID_00000129184209405429460150000015148941442747643782_"  style="overflow:visible;"/>
				</clipPath>
				<g style="clip-path:url(#SVGID_00000015356454820614400000000015974974561211043982_);">
					<g>
						<path id="_1_1" class="st0" d="M79.6,279.9c-0.5-9-5.1-16-10.8-16c-5.6,0-10.3,7-10.8,16c2.9-0.3,6.6-0.6,10.8-0.6
							C73,279.4,76.7,279.6,79.6,279.9z"/>
					</g>
					<g>
						<defs>
							<path id="SVGID_00000108308586761402763860000015051593651113358249_" d="M79.5,279.1c-0.7-8.6-5.2-15.2-10.7-15.2
								c-5.5,0-10.1,6.7-10.7,15.4c2.5-0.7,6.3-1.3,10.7-1.3C73,278.1,76.9,278.5,79.5,279.1z"/>
						</defs>
						<clipPath id="SVGID_00000136369166208393692030000001775834567226037639_">
							<use xlink:href="#SVGID_00000108308586761402763860000015051593651113358249_"  style="overflow:visible;"/>
						</clipPath>
						<g style="clip-path:url(#SVGID_00000136369166208393692030000001775834567226037639_);">
							<g>
								<path id="_2_2" class="st7" d="M77.9,280.6c-0.5-9-5.1-16-10.8-16c-5.6,0-10.3,7-10.8,16c2.9-0.3,6.6-0.6,10.8-0.6
									C71.2,280,75,280.3,77.9,280.6z"/>
							</g>
						</g>
					</g>
					<g>
						<defs>
							<path id="SVGID_00000150782115836612819070000016472392626603292069_" d="M82.7,281L82.7,281c0-1.6-6.6-2.9-13.9-2.9
								c-7.3,0-12.9,1.5-13.9,2.9c-0.7-2.3-1.1-4.8-1.1-7.4c0-11,6.7-19.9,15-19.9s15,8.9,15,19.9C83.8,276.2,83.4,278.7,82.7,281z"
								/>
						</defs>
						<clipPath id="SVGID_00000084529825572685662310000001777038366329663900_">
							<use xlink:href="#SVGID_00000150782115836612819070000016472392626603292069_"  style="overflow:visible;"/>
						</clipPath>
						<g style="clip-path:url(#SVGID_00000084529825572685662310000001777038366329663900_);">
							<path class="st9" d="M79.6,279.9c-0.5-9-5.1-16-10.8-16c-5.6,0-10.3,7-10.8,16c2.9-0.3,6.6-0.6,10.8-0.6
								C73,279.4,76.7,279.6,79.6,279.9z"/>
							<path class="st2" d="M78.8,279.1c-0.4-4-1.6-7.5-3.3-10.1c-1.8-2.6-4.1-4.3-6.7-4.3c-2.5,0-4.9,1.6-6.7,4.3
								c-1.7,2.6-2.9,6.1-3.3,10.1c1.2-0.1,2.6-0.2,4.1-0.3c1.8-0.1,3.8-0.1,5.8-0.1c2,0,4,0.1,5.8,0.1
								C76.1,278.9,77.5,279,78.8,279.1z M76.7,268.1c2,3,3.4,7.1,3.6,11.8l0,0.9l-0.9-0.1c-1.4-0.2-3.1-0.3-5-0.4
								c-1.8-0.1-3.7-0.1-5.7-0.1c-2,0-4,0-5.7,0.1c-1.8,0.1-3.5,0.2-5,0.4l-0.9,0.1l0-0.9c0.3-4.6,1.6-8.8,3.6-11.8
								c2.1-3.1,4.8-4.9,7.9-4.9C71.9,263.2,74.7,265.1,76.7,268.1z"/>
							<path class="st10" d="M66.9,241.1c14.7,0,26.7,11.7,26.7,26.2c0,4.6-1.2,8.9-3.3,12.6c-2.2,0.4-5.5,0.8-9.5,1
								c0.7-2.3,1.1-4.8,1.1-7.4c0-11-6.7-19.9-15-19.9c-8.3,0-15,8.9-15,19.9c0,2.6,0.4,5.1,1.1,7.4c-4-0.3-7.2-0.6-9.5-1
								c-2.1-3.7-3.3-8.1-3.3-12.6C40.2,252.9,52.2,241.1,66.9,241.1z"/>
						</g>
					</g>
				</g>
			</g>
			<path class="st9" d="M82.7,281L82.7,281c0-1.6-6.6-2.9-13.9-2.9c-7.3,0-12.9,1.5-13.9,2.9c-0.7-2.3-1.1-4.8-1.1-7.4
				c0-11,6.7-19.9,15-19.9s15,8.9,15,19.9C83.8,276.2,83.4,278.7,82.7,281z"/>
			<path class="st2" d="M82.7,281.7c-0.4,0-0.8-0.3-0.8-0.8l0,0c-0.1-0.4-1.4-0.8-3.5-1.3c-2.5-0.5-6-0.9-9.6-0.9
				c-3.4,0-6.4,0.3-8.7,0.8c-2.5,0.5-4.2,1.2-4.6,1.8c-0.2,0.3-0.7,0.4-1.1,0.2c-0.1-0.1-0.2-0.2-0.3-0.4c-0.4-1.2-0.6-2.4-0.8-3.7
				c-0.2-1.3-0.3-2.5-0.3-3.9c0-5.7,1.7-10.8,4.5-14.5c2.9-3.8,6.8-6.1,11.2-6.1s8.4,2.3,11.2,6.1c2.8,3.7,4.5,8.9,4.5,14.5
				c0,1.3-0.1,2.6-0.3,3.9c-0.2,1.3-0.5,2.5-0.8,3.7C83.4,281.5,83.1,281.7,82.7,281.7L82.7,281.7z M78.8,278.2
				c1.5,0.3,2.8,0.7,3.6,1.3c0.2-0.7,0.3-1.4,0.4-2.2c0.2-1.2,0.3-2.4,0.3-3.6c0-5.3-1.6-10.1-4.2-13.6c-2.6-3.4-6.1-5.5-10-5.5
				c-3.9,0-7.4,2.1-10,5.5c-2.6,3.5-4.2,8.3-4.2,13.6c0,1.3,0.1,2.5,0.3,3.6c0.1,0.8,0.3,1.6,0.5,2.4c1-0.6,2.5-1.1,4.5-1.5
				c2.4-0.5,5.5-0.8,9-0.8C72.6,277.3,76.1,277.6,78.8,278.2z"/>
			<path class="st2" d="M84.7,305.7c0,0.9,0.1,1.7,0.4,2.6c0.3,0.8,0.7,1.5,1.2,2.2c0.5,0.6,1.1,1.1,1.9,1.5
				c0.7,0.4,1.6,0.6,2.6,0.6c1,0,1.8-0.2,2.6-0.6c0.7-0.4,1.4-0.9,1.9-1.5s0.9-1.4,1.2-2.2c0.3-0.8,0.4-1.7,0.4-2.6
				c0-0.9-0.1-1.7-0.4-2.6c-0.3-0.8-0.7-1.5-1.2-2.2c-0.5-0.6-1.1-1.1-1.9-1.5c-0.7-0.4-1.6-0.6-2.6-0.6c-1,0-1.8,0.2-2.6,0.6
				c-0.7,0.4-1.4,0.9-1.9,1.5s-0.9,1.4-1.2,2.2C84.8,303.9,84.7,304.8,84.7,305.7z M87,305.7c0-0.6,0.1-1.1,0.2-1.7
				c0.1-0.6,0.3-1.1,0.6-1.6c0.3-0.5,0.7-0.9,1.2-1.2c0.5-0.3,1.1-0.4,1.7-0.4c0.7,0,1.3,0.1,1.8,0.4c0.5,0.3,0.9,0.7,1.2,1.2
				c0.3,0.5,0.5,1,0.6,1.6c0.1,0.6,0.2,1.1,0.2,1.7c0,0.6-0.1,1.1-0.2,1.7c-0.1,0.6-0.3,1.1-0.6,1.6c-0.3,0.5-0.7,0.9-1.2,1.2
				c-0.5,0.3-1.1,0.4-1.8,0.4c-0.7,0-1.3-0.1-1.7-0.4c-0.5-0.3-0.9-0.7-1.2-1.2c-0.3-0.5-0.5-1-0.6-1.6C87,306.8,87,306.2,87,305.7z
				"/>
			<path class="st2" d="M71.2,311.3c0,0.3,0.1,0.6,0.3,0.9c0.2,0.2,0.5,0.4,0.9,0.4h4.3c1,0,1.8-0.1,2.6-0.4
				c0.7-0.3,1.4-0.7,1.9-1.2c0.5-0.5,0.9-1.1,1.2-1.7c0.3-0.6,0.4-1.3,0.4-2c0-0.6-0.1-1.2-0.3-1.7c-0.2-0.5-0.5-1-0.8-1.4
				c-0.4-0.4-0.8-0.7-1.3-1c-0.5-0.3-1-0.4-1.5-0.5v-0.1c0.8-0.2,1.4-0.7,1.8-1.4c0.5-0.7,0.7-1.6,0.7-2.6c0-0.5-0.1-1-0.3-1.6
				c-0.2-0.5-0.5-1-0.9-1.4c-0.4-0.4-0.9-0.8-1.5-1c-0.6-0.3-1.3-0.4-2.1-0.4h-4c-0.4,0-0.7,0.1-0.9,0.4c-0.2,0.2-0.3,0.5-0.3,0.9
				L71.2,311.3L71.2,311.3z M73.4,303.8h3.3c0.6,0,1.1,0.1,1.6,0.3c0.5,0.2,0.8,0.4,1.2,0.7c0.3,0.3,0.6,0.7,0.7,1.1
				c0.2,0.4,0.2,0.8,0.2,1.3c0,1-0.4,1.8-1.1,2.5c-0.7,0.6-1.6,0.9-2.7,0.9h-3.2C73.4,310.5,73.4,303.8,73.4,303.8z M73.4,296.2H76
				c1,0,1.8,0.3,2.2,0.8c0.5,0.5,0.7,1.2,0.7,2c0,0.8-0.3,1.5-0.8,2.1c-0.5,0.6-1.3,0.8-2.2,0.8h-2.6V296.2z"/>
			<path class="st2" d="M48,308.8L48,308.8l-4.7-13.1c-0.1-0.4-0.3-0.7-0.5-1s-0.5-0.4-0.9-0.4c-0.3,0-0.6,0.1-0.7,0.3
				c-0.2,0.2-0.3,0.4-0.3,0.6c0,0.3,0.1,0.6,0.2,0.9l5.6,15.3c0.1,0.4,0.3,0.7,0.5,0.9c0.2,0.2,0.5,0.3,0.8,0.3
				c0.4,0,0.7-0.1,0.8-0.3c0.2-0.2,0.3-0.5,0.5-0.9l5.6-15.3c0.1-0.3,0.2-0.6,0.2-0.9c0-0.2-0.1-0.4-0.3-0.6
				c-0.2-0.2-0.4-0.3-0.7-0.3c-0.4,0-0.8,0.1-0.9,0.4c-0.2,0.3-0.3,0.6-0.5,1C52.6,295.7,48,308.8,48,308.8z"/>
			<path class="st2" d="M58.1,312.5c-0.6,0-1.1-0.5-1.1-1.1s0.5-1.1,1.1-1.1h7.8c0.6,0,1.1,0.5,1.1,1.1s-0.5,1.1-1.1,1.1H58.1z"/>
			<path class="st2" d="M86.8,296.4c-0.6,0-1.1-0.5-1.1-1.1s0.5-1.1,1.1-1.1h7.8c0.6,0,1.1,0.5,1.1,1.1s-0.5,1.1-1.1,1.1H86.8z"/>
			<g>
				<path class="st2" d="M56,301.1c0,0.9,0.1,1.7,0.4,2.6c0.3,0.8,0.7,1.5,1.2,2.2c0.5,0.6,1.1,1.1,1.9,1.5c0.7,0.4,1.6,0.6,2.6,0.6
					c1,0,1.8-0.2,2.6-0.6c0.7-0.4,1.4-0.9,1.9-1.5s0.9-1.4,1.2-2.2c0.3-0.8,0.4-1.7,0.4-2.6c0-0.9-0.1-1.7-0.4-2.6
					c-0.3-0.8-0.7-1.5-1.2-2.2c-0.5-0.6-1.1-1.1-1.9-1.5c-0.7-0.4-1.6-0.6-2.6-0.6c-1,0-1.8,0.2-2.6,0.6c-0.7,0.4-1.4,0.9-1.9,1.5
					c-0.5,0.6-0.9,1.4-1.2,2.2C56.1,299.3,56,300.2,56,301.1z M58.3,301.1c0-0.6,0.1-1.1,0.2-1.7c0.1-0.6,0.3-1.1,0.6-1.6
					c0.3-0.5,0.7-0.9,1.2-1.2c0.5-0.3,1.1-0.4,1.7-0.4c0.7,0,1.3,0.1,1.8,0.4c0.5,0.3,0.9,0.7,1.2,1.2c0.3,0.5,0.5,1,0.6,1.6
					c0.1,0.6,0.2,1.1,0.2,1.7c0,0.6-0.1,1.1-0.2,1.7c-0.1,0.6-0.3,1.1-0.6,1.6c-0.3,0.5-0.7,0.9-1.2,1.2c-0.5,0.3-1.1,0.4-1.8,0.4
					c-0.7,0-1.3-0.1-1.7-0.4c-0.5-0.3-0.9-0.7-1.2-1.2c-0.3-0.5-0.5-1-0.6-1.6C58.3,302.2,58.3,301.6,58.3,301.1z"/>
				<path class="st2" d="M65.8,295.3c0-0.6,0.5-1.1,1.1-1.1c0.6,0,1.1,0.5,1.1,1.1v7.8c0,0.6-0.5,1.1-1.1,1.1
					c-0.6,0-1.1-0.5-1.1-1.1V295.3z"/>
				<path class="st2" d="M65.8,299c0-0.6,0.5-1.1,1.1-1.1c0.6,0,1.1,0.5,1.1,1.1v7.8c0,0.6-0.5,1.1-1.1,1.1c-0.6,0-1.1-0.5-1.1-1.1
					V299z"/>
			</g>
			<path class="st0" d="M68.8,241.1c14.7,0,26.7,11.7,26.7,26.2c0,4.6-1.2,8.9-3.3,12.6c-2.2,0.4-5.5,0.8-9.5,1
				c0.7-2.3,1.1-4.8,1.1-7.4c0-11-6.7-19.9-15-19.9c-8.3,0-15,8.9-15,19.9c0,2.6,0.4,5.1,1.1,7.4c-4-0.3-7.2-0.6-9.5-1
				c-2.1-3.7-3.3-8.1-3.3-12.6C42.1,252.9,54.1,241.1,68.8,241.1z"/>
			<g>
				<defs>
					<path id="SVGID_00000065788239577170250810000016742724225992505223_" d="M68.8,241.1c14.7,0,26.7,11.7,26.7,26.2
						c0,4.6-1.2,8.9-3.3,12.6c-2.2,0.4-5.5,0.8-9.5,1c0.7-2.3,1.1-4.8,1.1-7.4c0-11-6.7-19.9-15-19.9c-8.3,0-15,8.9-15,19.9
						c0,2.6,0.4,5.1,1.1,7.4c-4-0.3-7.2-0.6-9.5-1c-2.1-3.7-3.3-8.1-3.3-12.6C42.1,252.9,54.1,241.1,68.8,241.1z"/>
				</defs>
				<clipPath id="SVGID_00000045603725981048488560000011113800293488238768_">
					<use xlink:href="#SVGID_00000065788239577170250810000016742724225992505223_"  style="overflow:visible;"/>
				</clipPath>
				<g style="clip-path:url(#SVGID_00000045603725981048488560000011113800293488238768_);">
					<g>
						<path id="_1_3" class="st1" d="M66.5,242.2c14.7,0,26.7,11.7,26.7,26.2c0,4.6-1.2,8.9-3.3,12.6c-2.2,0.4-5.5,0.8-9.5,1
							c0.7-2.3,1.1-4.8,1.1-7.4c0-11-6.7-19.9-15-19.9c-8.3,0-3.7,13.2-3.7,19.9c0,6.8-0.5,5.6,0.2,7.9c-4-0.3-17.7-1.2-20-1.6
							c-2.1-3.7-3.3-8.1-3.3-12.6C39.8,253.9,51.8,242.2,66.5,242.2z"/>
					</g>
				</g>
			</g>
			<path class="st9" d="M68.8,241.1c14.7,0,26.7,11.7,26.7,26.2c0,4.6-1.2,8.9-3.3,12.6c-2.2,0.4-5.5,0.8-9.5,1
				c0.7-2.3,1.1-4.8,1.1-7.4c0-11-6.7-19.9-15-19.9c-8.3,0-15,8.9-15,19.9c0,2.6,0.4,5.1,1.1,7.4c-4-0.3-7.2-0.6-9.5-1
				c-2.1-3.7-3.3-8.1-3.3-12.6C42.1,252.9,54.1,241.1,68.8,241.1z"/>
			<path class="st2" d="M68.8,240.4c7.6,0,14.4,3,19.4,7.9c5,4.9,8,11.6,8,19c0,2.3-0.3,4.6-0.9,6.7c-0.6,2.2-1.4,4.3-2.6,6.3
				c-0.1,0.2-0.3,0.3-0.5,0.4l0,0c-1.1,0.2-2.5,0.4-4.1,0.6c-1.6,0.2-3.4,0.3-5.4,0.5c-0.4,0-0.8-0.3-0.8-0.7c0-0.1,0-0.2,0-0.3
				c0.3-1.1,0.6-2.3,0.8-3.5c0.2-1.2,0.3-2.4,0.3-3.6c0-5.3-1.6-10.1-4.2-13.6c-2.6-3.4-6.1-5.5-10-5.5c-3.9,0-7.4,2.1-10,5.5
				c-2.6,3.5-4.2,8.3-4.2,13.6c0,1.3,0.1,2.5,0.3,3.6c0.2,1.2,0.4,2.4,0.8,3.5c0.1,0.4-0.1,0.8-0.5,0.9c-0.1,0-0.2,0-0.3,0
				c-2-0.1-3.8-0.3-5.4-0.5c-1.6-0.2-3-0.4-4.1-0.6c-0.2,0-0.4-0.2-0.5-0.4c-1.1-1.9-1.9-4-2.5-6.2c-0.6-2.2-0.9-4.4-0.9-6.7
				c0-7.4,3.1-14.2,8-19C54.4,243.4,61.2,240.4,68.8,240.4z M87.2,249.3c-4.7-4.6-11.2-7.4-18.3-7.4s-13.7,2.8-18.3,7.4
				c-4.7,4.6-7.6,10.9-7.6,18c0,2.2,0.3,4.3,0.8,6.3c0.5,2,1.3,3.9,2.2,5.6c1,0.2,2.3,0.4,3.7,0.5c1.3,0.1,2.7,0.3,4.3,0.4
				c-0.2-0.9-0.4-1.8-0.5-2.7c-0.2-1.3-0.3-2.5-0.3-3.9c0-5.7,1.7-10.8,4.5-14.5c2.9-3.8,6.8-6.1,11.2-6.1c4.4,0,8.4,2.3,11.2,6.1
				c2.8,3.7,4.5,8.9,4.5,14.5c0,1.3-0.1,2.6-0.3,3.9c-0.1,0.9-0.3,1.8-0.5,2.7c1.6-0.1,3-0.2,4.3-0.4c1.4-0.2,2.6-0.3,3.7-0.5
				c1-1.8,1.7-3.6,2.2-5.6c0.5-2,0.8-4.1,0.8-6.3C94.8,260.3,91.9,253.9,87.2,249.3z"/>
			<path class="st12" d="M68.8,241.1c-1.8,0.8-4.7,0.8-7.7-0.2c-3-1-5.3-2.7-6.3-4.4c1.8-0.8,4.7-0.8,7.7,0.2
				C65.5,237.7,67.8,239.4,68.8,241.1z"/>
			<path class="st2" d="M69.1,241.8c-1,0.5-2.3,0.7-3.8,0.6c-1.4,0-2.9-0.3-4.4-0.8c-1.5-0.5-2.9-1.2-4-2c-1.2-0.8-2.1-1.8-2.7-2.8
				l-0.4-0.7l0.8-0.3c1-0.5,2.3-0.7,3.8-0.6c1.4,0,2.9,0.3,4.4,0.8c1.5,0.5,2.9,1.2,4,2c1.2,0.8,2.1,1.8,2.7,2.8l0.4,0.7L69.1,241.8
				L69.1,241.8z M65.4,241c0.8,0,1.6-0.1,2.3-0.2c-0.4-0.5-1-1-1.7-1.5c-1-0.7-2.2-1.3-3.6-1.8c-1.4-0.5-2.8-0.7-4-0.7
				c-0.8,0-1.6,0.1-2.3,0.2c0.4,0.5,1,1,1.7,1.5c1,0.7,2.2,1.3,3.6,1.8C62.8,240.7,64.1,240.9,65.4,241z"/>
			<path class="st12" d="M79.8,231.3c-0.2,2-1.6,4.5-4,6.6c-2.3,2.1-5,3.3-7,3.2c0.2-2,1.6-4.5,4-6.6
				C75.1,232.5,77.8,231.3,79.8,231.3z"/>
			<path class="st2" d="M80.5,231.4c-0.1,1.1-0.6,2.4-1.3,3.6c-0.7,1.2-1.7,2.4-2.9,3.4c-1.2,1.1-2.5,1.9-3.7,2.5
				c-1.3,0.6-2.6,0.9-3.7,0.9l-0.8,0l0.1-0.8c0.1-1.1,0.6-2.4,1.3-3.6c0.7-1.2,1.7-2.4,2.9-3.4c1.2-1.1,2.5-1.9,3.7-2.5
				c1.3-0.6,2.6-0.9,3.7-0.9l0.8,0C80.6,230.6,80.5,231.4,80.5,231.4z M77.9,234.2c0.4-0.7,0.7-1.4,0.9-2.1
				c-0.7,0.1-1.4,0.4-2.2,0.7c-1.1,0.5-2.3,1.3-3.4,2.3c-1.1,1-2,2-2.6,3.1c-0.4,0.7-0.7,1.4-0.9,2.1c0.7-0.1,1.4-0.4,2.2-0.7
				c1.1-0.5,2.3-1.3,3.4-2.3C76.4,236.3,77.2,235.3,77.9,234.2L77.9,234.2z"/>
		</g>
		<g>
			<path class="st2" d="M87,169.6c0,1,0.2,2,0.5,2.9c0.3,0.9,0.7,1.8,1.3,2.5c0.6,0.7,1.3,1.3,2.2,1.7c0.9,0.4,1.8,0.6,2.9,0.6
				c1.1,0,2.1-0.2,2.9-0.6c0.9-0.4,1.6-1,2.2-1.7c0.6-0.7,1-1.6,1.3-2.5c0.3-0.9,0.5-1.9,0.5-2.9c0-1-0.2-2-0.5-2.9
				c-0.3-0.9-0.7-1.8-1.3-2.5c-0.6-0.7-1.3-1.3-2.2-1.7c-0.9-0.4-1.8-0.6-2.9-0.6c-1.1,0-2.1,0.2-2.9,0.6c-0.9,0.4-1.6,1-2.2,1.7
				c-0.6,0.7-1,1.6-1.3,2.5C87.2,167.6,87,168.5,87,169.6z M89.6,169.6c0-0.6,0.1-1.3,0.2-1.9c0.1-0.7,0.4-1.3,0.7-1.8
				c0.3-0.5,0.8-1,1.3-1.3c0.5-0.3,1.2-0.5,2-0.5c0.8,0,1.5,0.2,2,0.5c0.5,0.3,1,0.8,1.3,1.3c0.3,0.5,0.6,1.1,0.7,1.8
				c0.1,0.7,0.2,1.3,0.2,1.9c0,0.6-0.1,1.3-0.2,1.9c-0.1,0.7-0.4,1.3-0.7,1.8c-0.3,0.5-0.8,1-1.3,1.3c-0.5,0.3-1.2,0.5-2,0.5
				c-0.8,0-1.4-0.2-2-0.5c-0.5-0.3-1-0.8-1.3-1.3c-0.3-0.5-0.6-1.1-0.7-1.8C89.7,170.9,89.6,170.2,89.6,169.6z"/>
			<path class="st2" d="M71.5,176c0,0.4,0.1,0.7,0.3,1s0.6,0.4,1.1,0.4h5c1.1,0,2.1-0.2,2.9-0.5c0.9-0.3,1.6-0.8,2.1-1.3
				s1-1.2,1.3-1.9c0.3-0.7,0.5-1.5,0.5-2.3c0-0.7-0.1-1.3-0.4-1.9c-0.2-0.6-0.6-1.1-1-1.6c-0.4-0.4-0.9-0.8-1.4-1.1
				c-0.5-0.3-1.1-0.5-1.8-0.5V166c0.9-0.3,1.6-0.8,2.1-1.6c0.5-0.8,0.8-1.8,0.8-2.9c0-0.6-0.1-1.2-0.4-1.8c-0.2-0.6-0.6-1.1-1.1-1.6
				c-0.5-0.5-1.1-0.9-1.8-1.2c-0.7-0.3-1.5-0.4-2.4-0.4h-4.5c-0.5,0-0.8,0.1-1.1,0.4c-0.2,0.3-0.3,0.6-0.3,1L71.5,176L71.5,176z
				 M74.1,167.4h3.8c0.7,0,1.3,0.1,1.8,0.3c0.5,0.2,1,0.5,1.3,0.8c0.4,0.4,0.6,0.8,0.8,1.2c0.2,0.5,0.3,1,0.3,1.5
				c0,1.2-0.4,2.1-1.2,2.8c-0.8,0.7-1.9,1.1-3.1,1.1h-3.6V167.4L74.1,167.4z M74.1,158.7h3c1.2,0,2,0.3,2.6,0.9
				c0.5,0.6,0.8,1.4,0.8,2.3c0,1-0.3,1.8-0.9,2.4c-0.6,0.6-1.5,1-2.6,1h-2.9V158.7z"/>
			<path class="st2" d="M45,173.1L45,173.1l-5.3-15c-0.2-0.4-0.3-0.8-0.5-1.2c-0.2-0.3-0.5-0.5-1.1-0.5c-0.4,0-0.6,0.1-0.8,0.3
				c-0.2,0.2-0.3,0.4-0.3,0.7c0,0.3,0.1,0.6,0.2,1l6.4,17.5c0.2,0.4,0.3,0.8,0.5,1c0.2,0.2,0.5,0.4,1,0.4c0.4,0,0.8-0.1,1-0.4
				c0.2-0.2,0.4-0.6,0.5-1l6.4-17.5c0.1-0.3,0.2-0.7,0.2-1c0-0.3-0.1-0.5-0.3-0.7c-0.2-0.2-0.5-0.3-0.8-0.3c-0.5,0-0.9,0.2-1.1,0.5
				s-0.4,0.7-0.5,1.2L45,173.1z"/>
			<path class="st2" d="M56.6,177.4c-0.7,0-1.3-0.6-1.3-1.3c0-0.7,0.6-1.3,1.3-1.3h8.9c0.7,0,1.3,0.6,1.3,1.3c0,0.7-0.6,1.3-1.3,1.3
				H56.6z"/>
			<path class="st2" d="M89.4,159c-0.7,0-1.3-0.6-1.3-1.3c0-0.7,0.6-1.3,1.3-1.3h8.9c0.7,0,1.3,0.6,1.3,1.3c0,0.7-0.6,1.3-1.3,1.3
				H89.4z"/>
			<g>
				<path class="st2" d="M54.1,164.3c0,1,0.2,2,0.5,2.9c0.3,0.9,0.7,1.8,1.3,2.5c0.6,0.7,1.3,1.3,2.2,1.7c0.9,0.4,1.8,0.6,2.9,0.6
					c1.1,0,2.1-0.2,2.9-0.6c0.9-0.4,1.6-1,2.2-1.7c0.6-0.7,1-1.6,1.3-2.5c0.3-0.9,0.5-1.9,0.5-2.9c0-1-0.2-2-0.5-2.9
					c-0.3-0.9-0.7-1.8-1.3-2.5c-0.6-0.7-1.3-1.3-2.2-1.7c-0.9-0.4-1.8-0.6-2.9-0.6c-1.1,0-2.1,0.2-2.9,0.6c-0.9,0.4-1.6,1-2.2,1.7
					c-0.6,0.7-1,1.6-1.3,2.5C54.3,162.3,54.1,163.3,54.1,164.3z M56.7,164.3c0-0.6,0.1-1.3,0.2-1.9c0.1-0.7,0.4-1.3,0.7-1.8
					c0.3-0.5,0.8-1,1.3-1.3c0.5-0.3,1.2-0.5,2-0.5c0.8,0,1.5,0.2,2,0.5c0.5,0.3,1,0.8,1.3,1.3c0.3,0.5,0.6,1.1,0.7,1.8
					c0.1,0.7,0.2,1.3,0.2,1.9s-0.1,1.3-0.2,1.9c-0.1,0.7-0.4,1.3-0.7,1.8c-0.3,0.5-0.8,1-1.3,1.3c-0.5,0.3-1.2,0.5-2,0.5
					c-0.8,0-1.4-0.2-2-0.5c-0.5-0.3-1-0.8-1.3-1.3c-0.3-0.5-0.6-1.1-0.7-1.8C56.8,165.6,56.7,164.9,56.7,164.3z"/>
				<path class="st2" d="M65.4,157.7c0-0.7,0.6-1.3,1.3-1.3c0.7,0,1.3,0.6,1.3,1.3v8.9c0,0.7-0.6,1.3-1.3,1.3
					c-0.7,0-1.3-0.6-1.3-1.3V157.7z"/>
				<path class="st2" d="M65.4,161.9c0-0.7,0.6-1.3,1.3-1.3c0.7,0,1.3,0.6,1.3,1.3v8.9c0,0.7-0.6,1.3-1.3,1.3
					c-0.7,0-1.3-0.6-1.3-1.3V161.9z"/>
			</g>
		</g>
		<g>
			<path class="st2" d="M12.2,76.2c0.1,0,0.2,0,0.3,0.1c0.1,0.1,0.2,0.2,0.2,0.3l1.9,3.2l1.9-3.1c0.1-0.2,0.2-0.3,0.3-0.3
				c0.1-0.1,0.2-0.1,0.3-0.1c0.1,0,0.3,0,0.3,0.1c0.1,0.1,0.1,0.2,0.1,0.3c0,0,0,0.1,0,0.2c0,0.1-0.1,0.2-0.1,0.3l-2.3,3.7v3.5
				c0,0.2,0,0.3-0.1,0.4c-0.1,0.1-0.2,0.2-0.4,0.2c-0.2,0-0.3-0.1-0.4-0.2c-0.1-0.1-0.1-0.2-0.1-0.4v-3.5L11.9,77
				c-0.1-0.1-0.1-0.2-0.1-0.4c0-0.1,0-0.2,0.1-0.3C12,76.3,12.1,76.2,12.2,76.2z M18.3,81.6c0,0.3,0,0.6,0.1,0.9
				c0.1,0.3,0.2,0.5,0.3,0.7c0.1,0.2,0.3,0.4,0.6,0.5s0.5,0.2,0.7,0.2c0.3,0,0.5-0.1,0.7-0.2c0.2-0.1,0.4-0.3,0.6-0.5
				c0.2-0.2,0.3-0.5,0.3-0.7c0.1-0.3,0.1-0.6,0.1-0.9c0-0.3,0-0.7-0.1-1c-0.1-0.3-0.2-0.5-0.3-0.7c-0.2-0.2-0.3-0.4-0.6-0.5
				c-0.2-0.1-0.5-0.2-0.7-0.2c-0.3,0-0.5,0.1-0.7,0.2c-0.2,0.1-0.4,0.3-0.6,0.5c-0.2,0.2-0.3,0.5-0.3,0.7
				C18.4,81,18.3,81.3,18.3,81.6z M20.1,78.4c0.4,0,0.8,0.1,1.2,0.3c0.3,0.2,0.6,0.4,0.9,0.7c0.2,0.3,0.4,0.6,0.6,1
				c0.1,0.4,0.2,0.8,0.2,1.2s-0.1,0.9-0.2,1.3c-0.1,0.4-0.3,0.7-0.5,1c-0.2,0.3-0.5,0.5-0.9,0.7c-0.3,0.2-0.7,0.3-1.2,0.3
				c-0.5,0-0.9-0.1-1.2-0.3c-0.4-0.2-0.6-0.4-0.9-0.7c-0.2-0.3-0.4-0.6-0.5-1c-0.1-0.4-0.2-0.8-0.2-1.1c0-0.5,0.1-0.9,0.2-1.3
				c0.1-0.4,0.3-0.8,0.6-1.1c0.2-0.3,0.5-0.5,0.9-0.7S19.6,78.4,20.1,78.4z M24.5,78.4c0.2,0,0.3,0.1,0.4,0.2
				c0.1,0.1,0.1,0.2,0.1,0.4v3.5c0,0.5,0.1,0.9,0.4,1.2c0.2,0.3,0.6,0.4,1.1,0.4c0.5,0,0.9-0.1,1.1-0.4s0.4-0.7,0.4-1.2v-3.5
				c0-0.2,0-0.3,0.1-0.4c0.1-0.1,0.2-0.2,0.4-0.2c0.2,0,0.3,0.1,0.4,0.2c0.1,0.1,0.1,0.2,0.1,0.4v3.5c0,0.8-0.2,1.4-0.7,1.8
				c-0.4,0.4-1.1,0.7-1.9,0.7c-0.8,0-1.4-0.2-1.9-0.7S24,83.2,24,82.4v-3.5c0-0.2,0-0.3,0.1-0.4C24.2,78.4,24.3,78.4,24.5,78.4z
				 M34.2,81.6c0,0.3,0,0.6,0.1,0.9c0.1,0.3,0.2,0.5,0.3,0.7c0.1,0.2,0.3,0.4,0.6,0.5S35.7,84,36,84c0.3,0,0.5-0.1,0.7-0.2
				c0.2-0.1,0.4-0.3,0.6-0.5c0.1-0.2,0.3-0.5,0.3-0.7c0.1-0.3,0.1-0.6,0.1-0.9c0-0.3,0-0.7-0.1-0.9c-0.1-0.3-0.2-0.5-0.3-0.7
				c-0.1-0.2-0.3-0.4-0.6-0.5c-0.2-0.1-0.5-0.2-0.7-0.2c-0.3,0-0.5,0.1-0.7,0.2c-0.2,0.1-0.4,0.3-0.6,0.5c-0.2,0.2-0.3,0.5-0.3,0.7
				C34.3,81,34.2,81.3,34.2,81.6z M36,78.4c0.4,0,0.7,0.1,1,0.2c0.3,0.1,0.5,0.4,0.8,0.6h0v-0.3c0-0.2,0-0.3,0.1-0.4
				c0.1-0.1,0.2-0.1,0.3-0.1c0.1,0,0.3,0,0.3,0.1c0.1,0.1,0.1,0.2,0.1,0.4v5.5c0,0.1,0,0.3-0.1,0.3c-0.1,0.1-0.2,0.1-0.4,0.1
				c-0.1,0-0.3,0-0.4-0.1c-0.1-0.1-0.1-0.2-0.1-0.4v-0.4h0c-0.2,0.3-0.5,0.6-0.8,0.7s-0.6,0.2-1,0.2c-0.4,0-0.8-0.1-1.2-0.3
				c-0.3-0.2-0.6-0.4-0.9-0.7c-0.2-0.3-0.4-0.6-0.6-1c-0.1-0.4-0.2-0.8-0.2-1.2c0-0.5,0.1-0.9,0.2-1.3c0.1-0.4,0.3-0.8,0.6-1
				c0.2-0.3,0.5-0.5,0.9-0.7C35.2,78.5,35.6,78.4,36,78.4z M40.6,78.4c0.2,0,0.3,0.1,0.4,0.1c0.1,0.1,0.1,0.2,0.1,0.4v0.5h0
				c0.2-0.3,0.4-0.6,0.6-0.8c0.3-0.2,0.5-0.3,0.8-0.3c0.2,0,0.3,0.1,0.4,0.2c0.1,0.1,0.1,0.2,0.1,0.4c0,0.3-0.2,0.5-0.7,0.6
				c-0.4,0.1-0.8,0.3-1,0.6c-0.2,0.3-0.4,0.7-0.4,1.2v3c0,0.2,0,0.3-0.1,0.4c-0.1,0.1-0.2,0.2-0.4,0.2s-0.3-0.1-0.4-0.2
				c-0.1-0.1-0.1-0.2-0.1-0.4v-5.4c0-0.2,0-0.3,0.1-0.4C40.3,78.4,40.5,78.4,40.6,78.4z M48.1,81.3c0-0.6-0.2-1.1-0.5-1.4
				c-0.3-0.4-0.7-0.5-1.2-0.5c-0.5,0-0.9,0.2-1.2,0.5c-0.3,0.3-0.5,0.8-0.5,1.5C44.6,81.3,48.1,81.3,48.1,81.3z M46.4,78.4
				c0.4,0,0.8,0.1,1.2,0.3c0.3,0.2,0.6,0.4,0.9,0.7s0.4,0.6,0.5,1s0.2,0.7,0.2,1.1c0,0.2,0,0.4-0.1,0.5C48.9,82,48.8,82,48.5,82h-4
				c0,0.6,0.2,1.1,0.5,1.4c0.3,0.3,0.8,0.5,1.4,0.5c0.3,0,0.6,0,0.9-0.1c0.3-0.1,0.5-0.2,0.8-0.4c0.2-0.2,0.4-0.3,0.5-0.3
				c0.1,0,0.2,0,0.3,0.1c0.1,0.1,0.1,0.2,0.1,0.3c0,0.1-0.1,0.3-0.2,0.4c-0.1,0.1-0.2,0.2-0.4,0.3c-0.2,0.1-0.3,0.2-0.5,0.3
				c-0.2,0.1-0.4,0.2-0.7,0.2c-0.2,0.1-0.5,0.1-0.8,0.1c-0.5,0-0.9-0.1-1.2-0.2c-0.4-0.2-0.7-0.4-0.9-0.7c-0.3-0.3-0.4-0.6-0.6-1
				c-0.1-0.4-0.2-0.8-0.2-1.3c0-0.4,0.1-0.9,0.2-1.3c0.1-0.4,0.3-0.7,0.6-1c0.2-0.3,0.5-0.5,0.9-0.7C45.5,78.5,45.9,78.4,46.4,78.4z
				 M52.9,78.4c0.2,0,0.3,0.1,0.4,0.1c0.1,0.1,0.2,0.2,0.2,0.4l1.4,4.4h0l1.3-4.1c0.1-0.2,0.1-0.4,0.2-0.6c0.1-0.1,0.2-0.2,0.4-0.2
				c0.2,0,0.3,0,0.4,0.1c0.1,0.1,0.1,0.2,0.2,0.3l1.4,4.4h0l1.4-4.4c0.1-0.4,0.3-0.5,0.6-0.5c0.2,0,0.3,0,0.4,0.1
				c0.1,0.1,0.1,0.2,0.1,0.3c0,0,0,0.1,0,0.2c0,0.1-0.1,0.3-0.2,0.5l-1.6,4.8c-0.1,0.2-0.2,0.4-0.3,0.4s-0.2,0.1-0.4,0.1
				c-0.3,0-0.5-0.2-0.6-0.5L56.9,80h0l-1.4,4.4c0,0.1-0.1,0.3-0.2,0.3c-0.1,0.1-0.2,0.1-0.4,0.1c-0.2,0-0.3,0-0.4-0.1
				c-0.1-0.1-0.2-0.2-0.2-0.4l-1.6-4.8c-0.1-0.2-0.1-0.4-0.2-0.5c0-0.1,0-0.1,0-0.2c0-0.1,0-0.2,0.1-0.3
				C52.7,78.4,52.8,78.4,52.9,78.4z M62.5,75.6c0.2,0,0.3,0,0.4,0.1c0.1,0.1,0.1,0.2,0.1,0.4v3.1l0,0c0.2-0.3,0.5-0.5,0.8-0.6
				c0.3-0.1,0.6-0.2,0.9-0.2c0.3,0,0.6,0.1,0.9,0.2c0.3,0.1,0.5,0.3,0.7,0.5c0.2,0.2,0.4,0.5,0.5,0.7c0.1,0.3,0.2,0.6,0.2,1v3.6
				c0,0.2,0,0.3-0.1,0.4c-0.1,0.1-0.2,0.2-0.4,0.2c-0.2,0-0.3-0.1-0.4-0.2c-0.1-0.1-0.1-0.2-0.1-0.4v-3.5c0-0.5-0.1-0.8-0.4-1.1
				c-0.3-0.3-0.6-0.4-1.1-0.4c-0.2,0-0.4,0-0.6,0.1c-0.2,0.1-0.3,0.2-0.5,0.3c-0.1,0.1-0.2,0.3-0.3,0.5c-0.1,0.2-0.1,0.4-0.1,0.6
				v3.5c0,0.2,0,0.3-0.1,0.4c-0.1,0.1-0.2,0.2-0.4,0.2c-0.2,0-0.3-0.1-0.4-0.2c-0.1-0.1-0.1-0.2-0.1-0.4v-8.2c0-0.2,0-0.3,0.1-0.4
				C62.2,75.6,62.4,75.6,62.5,75.6z M69.2,81.6c0,0.3,0,0.6,0.1,0.9c0.1,0.3,0.2,0.5,0.3,0.7c0.1,0.2,0.3,0.4,0.6,0.5
				c0.2,0.1,0.5,0.2,0.7,0.2s0.5-0.1,0.7-0.2c0.2-0.1,0.4-0.3,0.6-0.5c0.1-0.2,0.3-0.5,0.3-0.7c0.1-0.3,0.1-0.6,0.1-0.9
				c0-0.3,0-0.7-0.1-0.9c-0.1-0.3-0.2-0.5-0.3-0.7c-0.1-0.2-0.3-0.4-0.6-0.5c-0.2-0.1-0.5-0.2-0.7-0.2c-0.3,0-0.5,0.1-0.7,0.2
				c-0.2,0.1-0.4,0.3-0.6,0.5c-0.2,0.2-0.3,0.5-0.3,0.7C69.3,81,69.2,81.3,69.2,81.6z M71,78.4c0.4,0,0.7,0.1,1,0.2
				c0.3,0.1,0.5,0.4,0.8,0.6h0v-0.3c0-0.2,0-0.3,0.1-0.4c0.1-0.1,0.2-0.1,0.3-0.1c0.1,0,0.3,0,0.3,0.1c0.1,0.1,0.1,0.2,0.1,0.4v5.5
				c0,0.1,0,0.3-0.1,0.3c-0.1,0.1-0.2,0.1-0.4,0.1c-0.1,0-0.3,0-0.4-0.1c-0.1-0.1-0.1-0.2-0.1-0.4v-0.4h0c-0.2,0.3-0.5,0.6-0.8,0.7
				c-0.3,0.2-0.6,0.2-1,0.2c-0.4,0-0.8-0.1-1.2-0.3c-0.3-0.2-0.6-0.4-0.9-0.7c-0.2-0.3-0.4-0.6-0.6-1c-0.1-0.4-0.2-0.8-0.2-1.2
				c0-0.5,0.1-0.9,0.2-1.3c0.1-0.4,0.3-0.8,0.6-1c0.2-0.3,0.5-0.5,0.9-0.7C70.2,78.5,70.6,78.4,71,78.4z M76,76.5
				c0.2,0,0.3,0.1,0.4,0.2c0.1,0.1,0.1,0.2,0.1,0.4v1.4h0.4c0.4,0,0.5,0.2,0.5,0.5c0,0.3-0.2,0.5-0.5,0.5h-0.4v5
				c0,0.2,0,0.3-0.1,0.4c-0.1,0.1-0.2,0.2-0.4,0.2s-0.3-0.1-0.4-0.2c-0.1-0.1-0.1-0.2-0.1-0.4v-5H75c-0.4,0-0.5-0.2-0.5-0.5
				c0-0.3,0.2-0.5,0.5-0.5h0.4V77c0-0.2,0-0.3,0.1-0.4C75.7,76.6,75.8,76.5,76,76.5z M81.2,78.4c0.1,0,0.2,0,0.3,0.1
				s0.2,0.2,0.2,0.3l1.5,4.4h0l1.4-4.4c0-0.1,0.1-0.2,0.2-0.3c0.1-0.1,0.2-0.1,0.3-0.1c0.1,0,0.2,0,0.3,0.1c0.1,0.1,0.1,0.2,0.1,0.3
				c0,0.1,0,0.1,0,0.2c0,0.1,0,0.2-0.1,0.2L82.8,87c0,0.1-0.1,0.2-0.2,0.3c-0.1,0.1-0.2,0.1-0.3,0.1c-0.1,0-0.2,0-0.3-0.1
				c-0.1-0.1-0.1-0.2-0.1-0.3c0-0.1,0-0.2,0-0.2c0-0.1,0.1-0.2,0.1-0.4l0.6-1.7l-1.8-5.2c0-0.1-0.1-0.2-0.1-0.3c0-0.1,0-0.2,0-0.2
				c0-0.1,0-0.2,0.1-0.3C81,78.4,81.1,78.4,81.2,78.4z M87.3,81.6c0,0.3,0,0.6,0.1,0.9c0.1,0.3,0.2,0.5,0.3,0.7
				c0.1,0.2,0.3,0.4,0.6,0.5c0.2,0.1,0.5,0.2,0.7,0.2s0.5-0.1,0.7-0.2c0.2-0.1,0.4-0.3,0.6-0.5c0.2-0.2,0.3-0.5,0.3-0.7
				c0.1-0.3,0.1-0.6,0.1-0.9c0-0.3,0-0.7-0.1-1c-0.1-0.3-0.2-0.5-0.3-0.7c-0.2-0.2-0.3-0.4-0.6-0.5c-0.2-0.1-0.5-0.2-0.7-0.2
				c-0.3,0-0.5,0.1-0.7,0.2c-0.2,0.1-0.4,0.3-0.6,0.5c-0.2,0.2-0.3,0.5-0.3,0.7C87.4,81,87.3,81.3,87.3,81.6z M89.1,78.4
				c0.4,0,0.8,0.1,1.2,0.3c0.3,0.2,0.6,0.4,0.9,0.7c0.2,0.3,0.4,0.6,0.6,1c0.1,0.4,0.2,0.8,0.2,1.2s-0.1,0.9-0.2,1.3
				c-0.1,0.4-0.3,0.7-0.5,1c-0.2,0.3-0.5,0.5-0.9,0.7c-0.3,0.2-0.7,0.3-1.2,0.3c-0.5,0-0.9-0.1-1.2-0.3c-0.4-0.2-0.6-0.4-0.9-0.7
				c-0.2-0.3-0.4-0.6-0.5-1c-0.1-0.4-0.2-0.8-0.2-1.1c0-0.5,0.1-0.9,0.2-1.3c0.1-0.4,0.3-0.8,0.6-1.1c0.2-0.3,0.5-0.5,0.9-0.7
				C88.3,78.5,88.7,78.4,89.1,78.4z M93.5,78.4c0.2,0,0.3,0.1,0.4,0.2c0.1,0.1,0.1,0.2,0.1,0.4v3.5c0,0.5,0.1,0.9,0.4,1.2
				c0.2,0.3,0.6,0.4,1.1,0.4c0.5,0,0.9-0.1,1.1-0.4c0.2-0.3,0.4-0.7,0.4-1.2v-3.5c0-0.2,0-0.3,0.1-0.4c0.1-0.1,0.2-0.2,0.4-0.2
				c0.2,0,0.3,0.1,0.4,0.2c0.1,0.1,0.1,0.2,0.1,0.4v3.5c0,0.8-0.2,1.4-0.7,1.8c-0.4,0.4-1.1,0.7-1.9,0.7c-0.8,0-1.4-0.2-1.9-0.7
				c-0.4-0.4-0.7-1.1-0.7-1.8v-3.5c0-0.2,0-0.3,0.1-0.4C93.2,78.4,93.4,78.4,93.5,78.4L93.5,78.4z M106.6,81.3
				c0-0.6-0.2-1.1-0.5-1.4c-0.3-0.4-0.7-0.5-1.2-0.5c-0.5,0-0.9,0.2-1.2,0.5c-0.3,0.3-0.5,0.8-0.5,1.5
				C103.1,81.3,106.6,81.3,106.6,81.3z M104.9,78.4c0.4,0,0.8,0.1,1.2,0.3c0.3,0.2,0.6,0.4,0.9,0.7c0.2,0.3,0.4,0.6,0.5,1
				s0.2,0.7,0.2,1.1c0,0.2,0,0.4-0.1,0.5c-0.1,0.1-0.2,0.1-0.5,0.1h-4c0,0.6,0.2,1.1,0.5,1.4c0.3,0.3,0.8,0.5,1.4,0.5
				c0.3,0,0.6,0,0.9-0.1c0.3-0.1,0.5-0.2,0.8-0.4c0.2-0.2,0.4-0.3,0.5-0.3c0.1,0,0.2,0,0.3,0.1s0.1,0.2,0.1,0.3
				c0,0.1-0.1,0.3-0.2,0.4c-0.1,0.1-0.2,0.2-0.4,0.3c-0.2,0.1-0.3,0.2-0.5,0.3c-0.2,0.1-0.4,0.2-0.7,0.2c-0.2,0.1-0.5,0.1-0.8,0.1
				c-0.5,0-0.9-0.1-1.2-0.2s-0.7-0.4-0.9-0.7c-0.3-0.3-0.4-0.6-0.6-1c-0.1-0.4-0.2-0.8-0.2-1.3c0-0.4,0.1-0.9,0.2-1.3
				c0.1-0.4,0.3-0.7,0.6-1c0.2-0.3,0.5-0.5,0.9-0.7C104.1,78.5,104.5,78.4,104.9,78.4z M109.5,81.6c0,0.3,0,0.6,0.1,0.9
				c0.1,0.3,0.2,0.5,0.3,0.7c0.1,0.2,0.3,0.4,0.6,0.5c0.2,0.1,0.5,0.2,0.7,0.2s0.5-0.1,0.7-0.2c0.2-0.1,0.4-0.3,0.6-0.5
				c0.1-0.2,0.3-0.5,0.3-0.7c0.1-0.3,0.1-0.6,0.1-0.9c0-0.3,0-0.7-0.1-0.9c-0.1-0.3-0.2-0.5-0.3-0.7c-0.1-0.2-0.3-0.4-0.6-0.5
				c-0.2-0.1-0.5-0.2-0.7-0.2c-0.3,0-0.5,0.1-0.7,0.2c-0.2,0.1-0.4,0.3-0.6,0.5c-0.2,0.2-0.3,0.5-0.3,0.7
				C109.5,81,109.5,81.3,109.5,81.6z M111.2,78.4c0.4,0,0.7,0.1,1,0.2c0.3,0.1,0.5,0.4,0.8,0.6h0v-0.3c0-0.2,0-0.3,0.1-0.4
				c0.1-0.1,0.2-0.1,0.3-0.1c0.1,0,0.3,0,0.3,0.1c0.1,0.1,0.1,0.2,0.1,0.4v5.5c0,0.1,0,0.3-0.1,0.3c-0.1,0.1-0.2,0.1-0.4,0.1
				c-0.1,0-0.3,0-0.4-0.1c-0.1-0.1-0.1-0.2-0.1-0.4v-0.4h0c-0.2,0.3-0.5,0.6-0.8,0.7c-0.3,0.2-0.6,0.2-1,0.2c-0.4,0-0.8-0.1-1.2-0.3
				c-0.3-0.2-0.6-0.4-0.9-0.7c-0.2-0.3-0.4-0.6-0.6-1c-0.1-0.4-0.2-0.8-0.2-1.2c0-0.5,0.1-0.9,0.2-1.3c0.1-0.4,0.3-0.8,0.6-1
				c0.2-0.3,0.5-0.5,0.9-0.7C110.4,78.5,110.8,78.4,111.2,78.4z M116.2,76.5c0.2,0,0.3,0.1,0.4,0.2c0.1,0.1,0.1,0.2,0.1,0.4v1.4h0.4
				c0.4,0,0.5,0.2,0.5,0.5c0,0.3-0.2,0.5-0.5,0.5h-0.4v5c0,0.2,0,0.3-0.1,0.4c-0.1,0.1-0.2,0.2-0.4,0.2s-0.3-0.1-0.4-0.2
				c-0.1-0.1-0.1-0.2-0.1-0.4v-5h-0.4c-0.4,0-0.5-0.2-0.5-0.5c0-0.3,0.2-0.5,0.5-0.5h0.4V77c0-0.2,0-0.3,0.1-0.4
				C115.9,76.6,116.1,76.5,116.2,76.5z M119.3,83.7c0.2,0,0.3,0.1,0.4,0.2c0.1,0.1,0.2,0.3,0.2,0.4c0,0.2-0.1,0.3-0.2,0.4
				c-0.1,0.1-0.3,0.2-0.4,0.2c-0.2,0-0.3-0.1-0.4-0.2s-0.2-0.3-0.2-0.4c0-0.2,0.1-0.3,0.2-0.4C119,83.7,119.1,83.7,119.3,83.7
				L119.3,83.7z M122.3,83.7c0.2,0,0.3,0.1,0.4,0.2c0.1,0.1,0.2,0.3,0.2,0.4c0,0.2-0.1,0.3-0.2,0.4c-0.1,0.1-0.3,0.2-0.4,0.2
				c-0.2,0-0.3-0.1-0.4-0.2s-0.2-0.3-0.2-0.4c0-0.2,0.1-0.3,0.2-0.4C122,83.7,122.1,83.7,122.3,83.7L122.3,83.7z M125.3,83.7
				c0.2,0,0.3,0.1,0.4,0.2c0.1,0.1,0.2,0.3,0.2,0.4c0,0.2-0.1,0.3-0.2,0.4c-0.1,0.1-0.3,0.2-0.4,0.2c-0.2,0-0.3-0.1-0.4-0.2
				s-0.2-0.3-0.2-0.4c0-0.2,0.1-0.3,0.2-0.4C125,83.7,125.1,83.7,125.3,83.7L125.3,83.7z M10.3,92.9c0.2,0,0.5,0,0.7,0.1
				c0.3,0.1,0.5,0.1,0.7,0.2c0.2,0.1,0.4,0.2,0.5,0.4c0.1,0.1,0.2,0.3,0.2,0.4c0,0.1,0,0.2-0.1,0.3c-0.1,0.1-0.2,0.1-0.4,0.1
				c-0.1,0-0.1,0-0.2,0c-0.1,0-0.1-0.1-0.2-0.1c-0.1-0.1-0.2-0.1-0.3-0.2c-0.1-0.1-0.2-0.1-0.3-0.2s-0.2-0.1-0.3-0.1
				c-0.1,0-0.3,0-0.4,0c-0.3,0-0.6,0.1-0.8,0.2c-0.2,0.1-0.3,0.3-0.3,0.6c0,0.2,0.1,0.3,0.3,0.5c0.2,0.1,0.5,0.3,0.9,0.5
				c0.3,0.1,0.6,0.2,0.8,0.3c0.2,0.1,0.4,0.2,0.6,0.3c0.3,0.2,0.6,0.4,0.7,0.6c0.1,0.2,0.2,0.4,0.2,0.6c0,0.3-0.1,0.6-0.2,0.8
				c-0.1,0.2-0.3,0.4-0.5,0.6c-0.2,0.2-0.4,0.3-0.7,0.4c-0.3,0.1-0.6,0.1-0.9,0.1c-0.3,0-0.6,0-0.9-0.1c-0.3-0.1-0.5-0.2-0.8-0.3
				c-0.2-0.1-0.4-0.2-0.5-0.4c-0.1-0.1-0.2-0.3-0.2-0.4s0-0.3,0.1-0.3c0.1-0.1,0.2-0.1,0.3-0.1c0.2,0,0.3,0.1,0.6,0.3
				c0.2,0.2,0.5,0.3,0.7,0.4c0.2,0.1,0.5,0.1,0.7,0.1c0.4,0,0.7-0.1,0.9-0.3c0.2-0.2,0.3-0.4,0.3-0.6c0-0.2-0.1-0.4-0.3-0.6
				c-0.2-0.2-0.5-0.3-1-0.5c-0.3-0.1-0.6-0.3-0.9-0.4c-0.3-0.1-0.5-0.3-0.7-0.4c-0.2-0.1-0.3-0.3-0.4-0.5c-0.1-0.2-0.1-0.4-0.1-0.6
				c0-0.3,0.1-0.5,0.2-0.8c0.1-0.2,0.3-0.4,0.5-0.6c0.2-0.2,0.4-0.3,0.7-0.4C9.8,93,10.1,92.9,10.3,92.9z M14.4,96.2
				c0,0.3,0,0.6,0.1,0.9c0.1,0.3,0.2,0.5,0.3,0.7c0.1,0.2,0.3,0.4,0.6,0.5s0.5,0.2,0.7,0.2c0.3,0,0.5-0.1,0.7-0.2
				c0.2-0.1,0.4-0.3,0.6-0.5c0.2-0.2,0.3-0.5,0.3-0.7c0.1-0.3,0.1-0.6,0.1-0.9c0-0.3,0-0.7-0.1-1c-0.1-0.3-0.2-0.5-0.3-0.7
				c-0.2-0.2-0.3-0.4-0.6-0.5c-0.2-0.1-0.5-0.2-0.7-0.2c-0.3,0-0.5,0.1-0.7,0.2c-0.2,0.1-0.4,0.3-0.6,0.5c-0.2,0.2-0.3,0.5-0.3,0.7
				S14.4,95.9,14.4,96.2z M16.2,92.9c0.4,0,0.8,0.1,1.2,0.3c0.3,0.2,0.6,0.4,0.9,0.7c0.2,0.3,0.4,0.6,0.6,1c0.1,0.4,0.2,0.8,0.2,1.2
				c0,0.4-0.1,0.9-0.2,1.3s-0.3,0.7-0.5,1c-0.2,0.3-0.5,0.5-0.9,0.7c-0.3,0.2-0.7,0.3-1.2,0.3c-0.5,0-0.9-0.1-1.2-0.3
				c-0.4-0.2-0.6-0.4-0.9-0.7c-0.2-0.3-0.4-0.6-0.5-1c-0.1-0.4-0.2-0.8-0.2-1.1c0-0.5,0.1-0.9,0.2-1.3c0.1-0.4,0.3-0.8,0.6-1.1
				c0.2-0.3,0.5-0.5,0.9-0.7C15.4,93,15.7,92.9,16.2,92.9z"/>
			<path class="st2" d="M27.3,95.8c0-0.6-0.2-1.1-0.5-1.4c-0.3-0.4-0.7-0.5-1.2-0.5c-0.5,0-0.9,0.2-1.2,0.5
				c-0.3,0.3-0.5,0.8-0.5,1.5C23.8,95.8,27.3,95.8,27.3,95.8z M25.6,92.9c0.4,0,0.8,0.1,1.2,0.3c0.3,0.2,0.6,0.4,0.9,0.7
				c0.2,0.3,0.4,0.6,0.5,1s0.2,0.7,0.2,1.1c0,0.2,0,0.4-0.1,0.5c-0.1,0.1-0.2,0.1-0.5,0.1h-4c0,0.6,0.2,1.1,0.5,1.4
				c0.3,0.3,0.8,0.5,1.4,0.5c0.3,0,0.6,0,0.9-0.1c0.3-0.1,0.5-0.2,0.8-0.4c0.2-0.2,0.4-0.3,0.5-0.3c0.1,0,0.2,0,0.3,0.1
				c0.1,0.1,0.1,0.2,0.1,0.3c0,0.1-0.1,0.3-0.2,0.4c-0.1,0.1-0.2,0.2-0.4,0.3c-0.2,0.1-0.3,0.2-0.5,0.3c-0.2,0.1-0.4,0.2-0.7,0.2
				c-0.2,0.1-0.5,0.1-0.8,0.1c-0.5,0-0.9-0.1-1.2-0.2c-0.4-0.2-0.7-0.4-0.9-0.7s-0.4-0.6-0.6-1c-0.1-0.4-0.2-0.8-0.2-1.3
				c0-0.4,0.1-0.9,0.2-1.3c0.1-0.4,0.3-0.7,0.6-1s0.5-0.5,0.9-0.7C24.7,93,25.1,92.9,25.6,92.9z M30.1,96.2c0,0.3,0,0.6,0.1,0.9
				c0.1,0.3,0.2,0.5,0.3,0.7c0.1,0.2,0.3,0.4,0.6,0.5s0.5,0.2,0.7,0.2c0.3,0,0.5-0.1,0.7-0.2c0.2-0.1,0.4-0.3,0.6-0.5
				c0.1-0.2,0.3-0.5,0.3-0.7c0.1-0.3,0.1-0.6,0.1-0.9c0-0.3,0-0.7-0.1-0.9c-0.1-0.3-0.2-0.5-0.3-0.7c-0.1-0.2-0.3-0.4-0.6-0.5
				c-0.2-0.1-0.5-0.2-0.7-0.2c-0.3,0-0.5,0.1-0.7,0.2c-0.2,0.1-0.4,0.3-0.6,0.5c-0.2,0.2-0.3,0.5-0.3,0.7S30.1,95.9,30.1,96.2z
				 M31.8,92.9c0.4,0,0.7,0.1,1,0.2c0.3,0.1,0.5,0.4,0.8,0.6h0v-0.3c0-0.2,0-0.3,0.1-0.4c0.1-0.1,0.2-0.1,0.3-0.1
				c0.1,0,0.3,0,0.3,0.1c0.1,0.1,0.1,0.2,0.1,0.4V99c0,0.1,0,0.3-0.1,0.3c-0.1,0.1-0.2,0.1-0.4,0.1c-0.1,0-0.3,0-0.4-0.1
				c-0.1-0.1-0.1-0.2-0.1-0.4v-0.4h0c-0.2,0.3-0.5,0.6-0.8,0.7s-0.6,0.2-1,0.2c-0.4,0-0.8-0.1-1.2-0.3c-0.3-0.2-0.6-0.4-0.9-0.7
				c-0.2-0.3-0.4-0.6-0.6-1c-0.1-0.4-0.2-0.8-0.2-1.2c0-0.5,0.1-0.9,0.2-1.3c0.1-0.4,0.3-0.8,0.6-1c0.2-0.3,0.5-0.5,0.9-0.7
				C31.1,93,31.4,92.9,31.8,92.9z M36.8,91.1c0.2,0,0.3,0.1,0.4,0.2c0.1,0.1,0.1,0.2,0.1,0.4V93h0.4c0.4,0,0.5,0.2,0.5,0.5
				c0,0.3-0.2,0.5-0.5,0.5h-0.4v5c0,0.2,0,0.3-0.1,0.4c-0.1,0.1-0.2,0.2-0.4,0.2c-0.2,0-0.3-0.1-0.4-0.2c-0.1-0.1-0.1-0.2-0.1-0.4
				v-5h-0.4c-0.4,0-0.5-0.2-0.5-0.5c0-0.3,0.2-0.5,0.5-0.5h0.4v-1.4c0-0.2,0-0.3,0.1-0.4C36.5,91.1,36.7,91.1,36.8,91.1z M44.1,92.9
				c0.2,0,0.5,0,0.7,0.1c0.3,0.1,0.5,0.1,0.7,0.2c0.2,0.1,0.4,0.2,0.5,0.4c0.1,0.1,0.2,0.3,0.2,0.4c0,0.1,0,0.2-0.1,0.3
				c-0.1,0.1-0.2,0.1-0.4,0.1c-0.1,0-0.1,0-0.2,0c-0.1,0-0.1-0.1-0.2-0.1c-0.1-0.1-0.2-0.1-0.3-0.2C45,94.1,44.9,94,44.9,94
				s-0.2-0.1-0.3-0.1c-0.1,0-0.3,0-0.4,0c-0.3,0-0.6,0.1-0.8,0.2c-0.2,0.1-0.3,0.3-0.3,0.6c0,0.2,0.1,0.3,0.3,0.5
				c0.2,0.1,0.5,0.3,0.9,0.5c0.3,0.1,0.6,0.2,0.8,0.3c0.2,0.1,0.4,0.2,0.6,0.3c0.3,0.2,0.6,0.4,0.7,0.6c0.1,0.2,0.2,0.4,0.2,0.6
				c0,0.3-0.1,0.6-0.2,0.8c-0.1,0.2-0.3,0.4-0.5,0.6c-0.2,0.2-0.4,0.3-0.7,0.4c-0.3,0.1-0.6,0.1-0.9,0.1c-0.3,0-0.6,0-0.9-0.1
				c-0.3-0.1-0.5-0.2-0.8-0.3c-0.2-0.1-0.4-0.2-0.5-0.4c-0.1-0.1-0.2-0.3-0.2-0.4s0-0.3,0.1-0.3c0.1-0.1,0.2-0.1,0.3-0.1
				c0.2,0,0.3,0.1,0.6,0.3c0.2,0.2,0.5,0.3,0.7,0.4c0.2,0.1,0.5,0.1,0.7,0.1c0.4,0,0.7-0.1,0.9-0.3c0.2-0.2,0.3-0.4,0.3-0.6
				c0-0.2-0.1-0.4-0.3-0.6c-0.2-0.2-0.5-0.3-1-0.5c-0.3-0.1-0.6-0.3-0.9-0.4c-0.3-0.1-0.5-0.3-0.7-0.4c-0.2-0.1-0.3-0.3-0.4-0.5
				C42,95.2,42,95,42,94.7c0-0.3,0.1-0.5,0.2-0.8c0.1-0.2,0.3-0.4,0.5-0.6c0.2-0.2,0.4-0.3,0.7-0.4C43.6,93,43.8,92.9,44.1,92.9z
				 M48.2,96.2c0,0.3,0,0.6,0.1,0.9c0.1,0.3,0.2,0.5,0.3,0.7c0.1,0.2,0.3,0.4,0.6,0.5s0.5,0.2,0.7,0.2c0.3,0,0.5-0.1,0.7-0.2
				c0.2-0.1,0.4-0.3,0.6-0.5c0.2-0.2,0.3-0.5,0.3-0.7c0.1-0.3,0.1-0.6,0.1-0.9c0-0.3,0-0.7-0.1-1c-0.1-0.3-0.2-0.5-0.3-0.7
				s-0.3-0.4-0.6-0.5c-0.2-0.1-0.5-0.2-0.7-0.2c-0.3,0-0.5,0.1-0.7,0.2c-0.2,0.1-0.4,0.3-0.6,0.5c-0.2,0.2-0.3,0.5-0.3,0.7
				C48.2,95.5,48.2,95.9,48.2,96.2z M50,92.9c0.4,0,0.8,0.1,1.2,0.3c0.3,0.2,0.6,0.4,0.9,0.7c0.2,0.3,0.4,0.6,0.6,1
				c0.1,0.4,0.2,0.8,0.2,1.2c0,0.4-0.1,0.9-0.2,1.3s-0.3,0.7-0.5,1c-0.2,0.3-0.5,0.5-0.9,0.7c-0.3,0.2-0.7,0.3-1.2,0.3
				c-0.5,0-0.9-0.1-1.2-0.3c-0.4-0.2-0.6-0.4-0.9-0.7c-0.2-0.3-0.4-0.6-0.5-1c-0.1-0.4-0.2-0.8-0.2-1.1c0-0.5,0.1-0.9,0.2-1.3
				c0.1-0.4,0.3-0.8,0.6-1.1c0.2-0.3,0.5-0.5,0.9-0.7C49.1,93,49.5,92.9,50,92.9z M54.4,92.9c0.1,0,0.3,0,0.4,0.1
				c0.1,0.1,0.2,0.3,0.2,0.5v0.1l0,0c0.2-0.3,0.4-0.5,0.7-0.6c0.3-0.1,0.6-0.2,0.9-0.2c0.7,0,1.3,0.4,1.8,1.1
				c0.3-0.4,0.6-0.7,0.9-0.8c0.3-0.2,0.7-0.3,1.1-0.3c0.3,0,0.6,0.1,0.9,0.2c0.3,0.1,0.5,0.3,0.7,0.5c0.2,0.2,0.4,0.5,0.5,0.7
				c0.1,0.3,0.2,0.6,0.2,1v3.6c0,0.2,0,0.3-0.1,0.4c-0.1,0.1-0.2,0.2-0.4,0.2s-0.3-0.1-0.4-0.2c-0.1-0.1-0.1-0.2-0.1-0.4v-3.6
				c0-0.4-0.1-0.8-0.4-1c-0.2-0.3-0.6-0.4-1-0.4c-0.4,0-0.8,0.1-1,0.4c-0.2,0.3-0.4,0.6-0.4,1v3.6c0,0.2,0,0.3-0.1,0.4
				c-0.1,0.1-0.2,0.2-0.4,0.2c-0.2,0-0.3-0.1-0.4-0.2c-0.1-0.1-0.1-0.2-0.1-0.4v-3.6c0-0.4-0.1-0.8-0.4-1c-0.2-0.3-0.6-0.4-1-0.4
				c-0.4,0-0.8,0.1-1,0.4c-0.2,0.3-0.4,0.6-0.4,1v3.6c0,0.2,0,0.3-0.1,0.4c-0.1,0.1-0.2,0.2-0.4,0.2s-0.3-0.1-0.4-0.2
				c-0.1-0.1-0.1-0.2-0.1-0.4v-5.4c0-0.2,0-0.3,0.1-0.4C54.1,93,54.2,92.9,54.4,92.9L54.4,92.9z M68,95.8c0-0.6-0.2-1.1-0.5-1.4
				c-0.3-0.4-0.7-0.5-1.2-0.5c-0.5,0-0.9,0.2-1.2,0.5c-0.3,0.3-0.5,0.8-0.5,1.5C64.5,95.8,68,95.8,68,95.8z M66.4,92.9
				c0.4,0,0.8,0.1,1.2,0.3c0.3,0.2,0.6,0.4,0.9,0.7c0.2,0.3,0.4,0.6,0.5,1s0.2,0.7,0.2,1.1c0,0.2,0,0.4-0.1,0.5
				c-0.1,0.1-0.2,0.1-0.5,0.1h-4c0,0.6,0.2,1.1,0.5,1.4c0.3,0.3,0.8,0.5,1.4,0.5c0.3,0,0.6,0,0.9-0.1c0.3-0.1,0.5-0.2,0.8-0.4
				c0.2-0.2,0.4-0.3,0.5-0.3c0.1,0,0.2,0,0.3,0.1c0.1,0.1,0.1,0.2,0.1,0.3c0,0.1-0.1,0.3-0.2,0.4c-0.1,0.1-0.2,0.2-0.4,0.3
				c-0.2,0.1-0.3,0.2-0.5,0.3c-0.2,0.1-0.4,0.2-0.7,0.2c-0.2,0.1-0.5,0.1-0.8,0.1c-0.5,0-0.9-0.1-1.2-0.2c-0.4-0.2-0.7-0.4-0.9-0.7
				c-0.3-0.3-0.4-0.6-0.6-1c-0.1-0.4-0.2-0.8-0.2-1.3c0-0.4,0.1-0.9,0.2-1.3c0.1-0.4,0.3-0.7,0.6-1c0.2-0.3,0.5-0.5,0.9-0.7
				C65.5,93,65.9,92.9,66.4,92.9z M71,91.1c0.2,0,0.3,0.1,0.4,0.2c0.1,0.1,0.1,0.2,0.1,0.4V93h0.4c0.4,0,0.5,0.2,0.5,0.5
				c0,0.3-0.2,0.5-0.5,0.5h-0.4v5c0,0.2,0,0.3-0.1,0.4c-0.1,0.1-0.2,0.2-0.4,0.2s-0.3-0.1-0.4-0.2c-0.1-0.1-0.1-0.2-0.1-0.4v-5H70
				c-0.4,0-0.5-0.2-0.5-0.5c0-0.3,0.2-0.5,0.5-0.5h0.4v-1.4c0-0.2,0-0.3,0.1-0.4C70.7,91.1,70.8,91.1,71,91.1z M73.8,90.1
				c0.2,0,0.3,0,0.4,0.1c0.1,0.1,0.1,0.2,0.1,0.4v3.1l0,0c0.2-0.3,0.5-0.5,0.8-0.6c0.3-0.1,0.6-0.2,0.9-0.2c0.3,0,0.6,0.1,0.9,0.2
				c0.3,0.1,0.5,0.3,0.7,0.5c0.2,0.2,0.4,0.5,0.5,0.7c0.1,0.3,0.2,0.6,0.2,1v3.6c0,0.2,0,0.3-0.1,0.4c-0.1,0.1-0.2,0.2-0.4,0.2
				c-0.2,0-0.3-0.1-0.4-0.2c-0.1-0.1-0.1-0.2-0.1-0.4v-3.5c0-0.5-0.1-0.8-0.4-1.1c-0.3-0.3-0.6-0.4-1.1-0.4c-0.2,0-0.4,0-0.6,0.1
				c-0.2,0.1-0.3,0.2-0.5,0.3s-0.2,0.3-0.3,0.5c-0.1,0.2-0.1,0.4-0.1,0.6v3.5c0,0.2,0,0.3-0.1,0.4c-0.1,0.1-0.2,0.2-0.4,0.2
				c-0.2,0-0.3-0.1-0.4-0.2c-0.1-0.1-0.1-0.2-0.1-0.4v-8.2c0-0.2,0-0.3,0.1-0.4C73.5,90.2,73.6,90.1,73.8,90.1z M80.2,92.9
				c0.2,0,0.3,0.1,0.4,0.2c0.1,0.1,0.1,0.2,0.1,0.4v5.4c0,0.2,0,0.3-0.1,0.4c-0.1,0.1-0.2,0.2-0.4,0.2s-0.3-0.1-0.4-0.2
				c-0.1-0.1-0.1-0.2-0.1-0.4v-5.4c0-0.2,0-0.3,0.1-0.4C79.9,93,80,92.9,80.2,92.9z M80.2,90.8c0.2,0,0.3,0.1,0.5,0.2
				s0.2,0.3,0.2,0.5c0,0.2-0.1,0.3-0.2,0.5c-0.1,0.1-0.3,0.2-0.5,0.2c-0.2,0-0.3-0.1-0.5-0.2c-0.1-0.1-0.2-0.3-0.2-0.5
				c0-0.2,0.1-0.3,0.2-0.5C79.9,90.8,80,90.8,80.2,90.8z M82.6,92.9c0.1,0,0.2,0,0.4,0.1c0.1,0.1,0.2,0.3,0.2,0.5v0.2l0,0
				c0.2-0.3,0.5-0.5,0.8-0.6c0.3-0.1,0.6-0.2,0.9-0.2c0.3,0,0.6,0.1,0.9,0.2c0.3,0.1,0.5,0.3,0.7,0.5c0.2,0.2,0.4,0.5,0.5,0.7
				c0.1,0.3,0.2,0.6,0.2,1v3.6c0,0.2,0,0.3-0.1,0.4c-0.1,0.1-0.2,0.2-0.4,0.2c-0.2,0-0.3-0.1-0.4-0.2c-0.1-0.1-0.1-0.2-0.1-0.4v-3.5
				c0-0.5-0.1-0.8-0.4-1.1c-0.3-0.3-0.6-0.4-1.1-0.4c-0.2,0-0.4,0-0.6,0.1c-0.2,0.1-0.3,0.2-0.5,0.3s-0.2,0.3-0.3,0.5
				c-0.1,0.2-0.1,0.4-0.1,0.6v3.5c0,0.2,0,0.3-0.1,0.4c-0.1,0.1-0.2,0.2-0.4,0.2s-0.3-0.1-0.4-0.2c-0.1-0.1-0.1-0.2-0.1-0.4v-5.4
				c0-0.2,0-0.3,0.1-0.4C82.3,93,82.5,92.9,82.6,92.9L82.6,92.9z M89.3,96.2c0,0.3,0,0.6,0.1,0.9c0.1,0.3,0.2,0.5,0.3,0.7
				c0.1,0.2,0.3,0.4,0.5,0.5c0.2,0.1,0.5,0.2,0.8,0.2c0.3,0,0.5-0.1,0.7-0.2c0.2-0.1,0.4-0.3,0.6-0.5c0.1-0.2,0.3-0.5,0.3-0.7
				c0.1-0.3,0.1-0.6,0.1-0.9c0-0.3,0-0.6-0.1-0.9c-0.1-0.3-0.2-0.5-0.3-0.7c-0.2-0.2-0.3-0.4-0.6-0.5c-0.2-0.1-0.5-0.2-0.8-0.2
				c-0.3,0-0.5,0.1-0.7,0.2c-0.2,0.1-0.4,0.3-0.6,0.5c-0.2,0.2-0.3,0.5-0.3,0.7C89.4,95.5,89.3,95.9,89.3,96.2L89.3,96.2z
				 M91.1,92.9c0.3,0,0.6,0.1,0.9,0.2c0.3,0.1,0.5,0.3,0.7,0.6h0v-0.3c0-0.1,0.1-0.2,0.2-0.3c0.1-0.1,0.2-0.1,0.4-0.1
				c0.1,0,0.3,0,0.3,0.1c0.1,0.1,0.1,0.2,0.1,0.4V99c0,0.4-0.1,0.8-0.2,1.2c-0.1,0.4-0.3,0.7-0.6,1c-0.2,0.3-0.5,0.5-0.9,0.6
				c-0.4,0.1-0.8,0.2-1.2,0.2c-0.3,0-0.6,0-0.8-0.1c-0.3-0.1-0.6-0.2-0.8-0.3c-0.2-0.1-0.4-0.2-0.6-0.4c-0.2-0.1-0.2-0.3-0.2-0.4
				c0-0.1,0-0.3,0.1-0.3c0.1-0.1,0.2-0.1,0.3-0.1c0.1,0,0.3,0,0.4,0.1c0.2,0.2,0.5,0.3,0.8,0.4c0.3,0.1,0.6,0.2,0.9,0.2
				c0.6,0,1-0.2,1.3-0.5c0.3-0.4,0.4-0.8,0.4-1.4v-0.6h0c-0.2,0.3-0.4,0.5-0.7,0.7s-0.6,0.2-1,0.2c-0.4,0-0.8-0.1-1.2-0.3
				c-0.3-0.2-0.6-0.4-0.9-0.7c-0.2-0.3-0.4-0.6-0.5-1c-0.1-0.4-0.2-0.8-0.2-1.2c0-0.4,0.1-0.9,0.2-1.3s0.3-0.8,0.5-1.1
				c0.2-0.3,0.5-0.5,0.9-0.7C90.3,93,90.7,92.9,91.1,92.9z M100.3,92.9c0.2,0,0.5,0,0.7,0.1c0.3,0.1,0.5,0.1,0.7,0.2
				c0.2,0.1,0.4,0.2,0.5,0.4c0.1,0.1,0.2,0.3,0.2,0.4c0,0.1,0,0.2-0.1,0.3c-0.1,0.1-0.2,0.1-0.4,0.1c-0.1,0-0.1,0-0.2,0
				c-0.1,0-0.1-0.1-0.2-0.1c-0.1-0.1-0.2-0.1-0.3-0.2c-0.1-0.1-0.2-0.1-0.3-0.2s-0.2-0.1-0.3-0.1c-0.1,0-0.3,0-0.4,0
				c-0.3,0-0.6,0.1-0.8,0.2c-0.2,0.1-0.3,0.3-0.3,0.6c0,0.2,0.1,0.3,0.3,0.5c0.2,0.1,0.5,0.3,0.9,0.5c0.3,0.1,0.6,0.2,0.8,0.3
				c0.2,0.1,0.4,0.2,0.6,0.3c0.3,0.2,0.6,0.4,0.7,0.6c0.1,0.2,0.2,0.4,0.2,0.6c0,0.3-0.1,0.6-0.2,0.8c-0.1,0.2-0.3,0.4-0.5,0.6
				c-0.2,0.2-0.4,0.3-0.7,0.4c-0.3,0.1-0.6,0.1-0.9,0.1c-0.3,0-0.6,0-0.9-0.1c-0.3-0.1-0.5-0.2-0.8-0.3c-0.2-0.1-0.4-0.2-0.5-0.4
				c-0.1-0.1-0.2-0.3-0.2-0.4s0-0.3,0.1-0.3c0.1-0.1,0.2-0.1,0.3-0.1c0.2,0,0.3,0.1,0.6,0.3c0.2,0.2,0.5,0.3,0.7,0.4
				c0.2,0.1,0.5,0.1,0.7,0.1c0.4,0,0.7-0.1,0.9-0.3c0.2-0.2,0.3-0.4,0.3-0.6c0-0.2-0.1-0.4-0.3-0.6c-0.2-0.2-0.5-0.3-1-0.5
				c-0.3-0.1-0.6-0.3-0.9-0.4c-0.3-0.1-0.5-0.3-0.7-0.4c-0.2-0.1-0.3-0.3-0.4-0.5c-0.1-0.2-0.1-0.4-0.1-0.6c0-0.3,0.1-0.5,0.2-0.8
				c0.1-0.2,0.3-0.4,0.5-0.6c0.2-0.2,0.4-0.3,0.7-0.4C99.7,93,100,92.9,100.3,92.9z M103.4,92.9c0.2,0,0.3,0.1,0.4,0.1
				c0.1,0.1,0.2,0.2,0.2,0.4l1.4,4.4h0l1.3-4.1c0.1-0.2,0.1-0.4,0.2-0.6c0.1-0.1,0.2-0.2,0.4-0.2c0.2,0,0.3,0,0.4,0.1
				c0.1,0.1,0.1,0.2,0.2,0.3l1.4,4.4h0l1.4-4.4c0.1-0.4,0.3-0.5,0.6-0.5c0.2,0,0.3,0,0.4,0.1c0.1,0.1,0.1,0.2,0.1,0.3
				c0,0,0,0.1,0,0.2c0,0.1-0.1,0.3-0.2,0.5l-1.6,4.8c-0.1,0.2-0.2,0.4-0.3,0.4c-0.1,0.1-0.2,0.1-0.4,0.1c-0.3,0-0.5-0.2-0.6-0.5
				l-1.4-4.4h0l-1.4,4.4c0,0.1-0.1,0.3-0.2,0.3c-0.1,0.1-0.2,0.1-0.4,0.1c-0.2,0-0.3,0-0.4-0.1c-0.1-0.1-0.2-0.2-0.2-0.4l-1.6-4.8
				c-0.1-0.2-0.1-0.4-0.2-0.5c0-0.1,0-0.1,0-0.2c0-0.1,0-0.2,0.1-0.3C103.1,93,103.2,92.9,103.4,92.9z M116.6,95.8
				c0-0.6-0.2-1.1-0.5-1.4c-0.3-0.4-0.7-0.5-1.2-0.5c-0.5,0-0.9,0.2-1.2,0.5c-0.3,0.3-0.5,0.8-0.5,1.5
				C113.1,95.8,116.6,95.8,116.6,95.8z M114.9,92.9c0.4,0,0.8,0.1,1.2,0.3c0.3,0.2,0.6,0.4,0.9,0.7c0.2,0.3,0.4,0.6,0.5,1
				c0.1,0.4,0.2,0.7,0.2,1.1c0,0.2,0,0.4-0.1,0.5c-0.1,0.1-0.2,0.1-0.5,0.1h-4c0,0.6,0.2,1.1,0.5,1.4c0.3,0.3,0.8,0.5,1.4,0.5
				c0.3,0,0.6,0,0.9-0.1c0.3-0.1,0.5-0.2,0.8-0.4c0.2-0.2,0.4-0.3,0.5-0.3c0.1,0,0.2,0,0.3,0.1c0.1,0.1,0.1,0.2,0.1,0.3
				c0,0.1-0.1,0.3-0.2,0.4c-0.1,0.1-0.2,0.2-0.4,0.3c-0.2,0.1-0.3,0.2-0.5,0.3c-0.2,0.1-0.4,0.2-0.7,0.2c-0.2,0.1-0.5,0.1-0.8,0.1
				c-0.5,0-0.9-0.1-1.2-0.2c-0.4-0.2-0.7-0.4-0.9-0.7s-0.4-0.6-0.6-1c-0.1-0.4-0.2-0.8-0.2-1.3c0-0.4,0.1-0.9,0.2-1.3
				c0.1-0.4,0.3-0.7,0.6-1s0.5-0.5,0.9-0.7C114.1,93,114.5,92.9,114.9,92.9L114.9,92.9z M122.9,95.8c0-0.6-0.2-1.1-0.5-1.4
				c-0.3-0.4-0.7-0.5-1.2-0.5c-0.5,0-0.9,0.2-1.2,0.5c-0.3,0.3-0.5,0.8-0.5,1.5C119.4,95.8,122.9,95.8,122.9,95.8z M121.2,92.9
				c0.4,0,0.8,0.1,1.2,0.3c0.3,0.2,0.6,0.4,0.9,0.7c0.2,0.3,0.4,0.6,0.5,1c0.1,0.4,0.2,0.7,0.2,1.1c0,0.2,0,0.4-0.1,0.5
				c-0.1,0.1-0.2,0.1-0.5,0.1h-4c0,0.6,0.2,1.1,0.5,1.4c0.3,0.3,0.8,0.5,1.4,0.5c0.3,0,0.6,0,0.9-0.1c0.3-0.1,0.5-0.2,0.8-0.4
				c0.2-0.2,0.4-0.3,0.5-0.3c0.1,0,0.2,0,0.3,0.1c0.1,0.1,0.1,0.2,0.1,0.3c0,0.1-0.1,0.3-0.2,0.4c-0.1,0.1-0.2,0.2-0.4,0.3
				c-0.2,0.1-0.3,0.2-0.5,0.3c-0.2,0.1-0.4,0.2-0.7,0.2c-0.2,0.1-0.5,0.1-0.8,0.1c-0.5,0-0.9-0.1-1.2-0.2c-0.4-0.2-0.7-0.4-0.9-0.7
				c-0.3-0.3-0.4-0.6-0.6-1c-0.1-0.4-0.2-0.8-0.2-1.3c0-0.4,0.1-0.9,0.2-1.3c0.1-0.4,0.3-0.7,0.6-1c0.2-0.3,0.5-0.5,0.9-0.7
				C120.3,93,120.7,92.9,121.2,92.9L121.2,92.9z M125.8,91.1c0.2,0,0.3,0.1,0.4,0.2c0.1,0.1,0.1,0.2,0.1,0.4V93h0.4
				c0.4,0,0.5,0.2,0.5,0.5c0,0.3-0.2,0.5-0.5,0.5h-0.4v5c0,0.2,0,0.3-0.1,0.4c-0.1,0.1-0.2,0.2-0.4,0.2s-0.3-0.1-0.4-0.2
				c-0.1-0.1-0.1-0.2-0.1-0.4v-5h-0.4c-0.4,0-0.5-0.2-0.5-0.5c0-0.3,0.2-0.5,0.5-0.5h0.4v-1.4c0-0.2,0-0.3,0.1-0.4
				C125.5,91.1,125.6,91.1,125.8,91.1z M129.1,98.2c0.2,0,0.3,0.1,0.4,0.2s0.2,0.3,0.2,0.4c0,0.2-0.1,0.3-0.2,0.4
				c-0.1,0.1-0.3,0.2-0.4,0.2c-0.2,0-0.3-0.1-0.4-0.2s-0.2-0.3-0.2-0.4c0-0.2,0.1-0.3,0.2-0.4C128.8,98.3,129,98.2,129.1,98.2
				L129.1,98.2z M129.1,90.8c0.2,0,0.3,0.1,0.4,0.2c0.1,0.1,0.1,0.2,0.1,0.4v5.2c0,0.2,0,0.3-0.1,0.4c-0.1,0.1-0.2,0.2-0.4,0.2
				s-0.3-0.1-0.4-0.2c-0.1-0.1-0.1-0.2-0.1-0.4v-5.2c0-0.2,0-0.3,0.1-0.4C128.8,90.8,128.9,90.8,129.1,90.8z"/>
		</g>
		<g>
			<path class="st17" d="M89.2,66.8C89.2,66.7,89.2,66.8,89.2,66.8L89.2,66.8z"/>
			<path class="st17" d="M87.2,66.4c0,0.2-0.2,0.3-0.3,0.3h-5.1c0-0.1,0-0.2,0-0.3v-1.4c0-0.1,0-0.2,0-0.3h5.1
				c0.2,0,0.3,0.2,0.3,0.3V66.4z"/>
			<path class="st17" d="M81.1,62.7L81.1,62.7C81.1,62.7,81.1,62.7,81.1,62.7z"/>
			<path class="st17" d="M79.8,66.4c0,0.2-0.2,0.3-0.3,0.3H74c-0.2,0-0.3-0.2-0.3-0.3v-1.4c0-0.2,0.2-0.3,0.3-0.3h5.5
				c0.2,0,0.3,0.2,0.3,0.3L79.8,66.4z"/>
			<polygon class="st17" points="63.9,66.8 59.7,66.8 59.7,65.3 63.9,65.3 			"/>
			<polygon class="st17" points="59.2,56.1 60.8,56.1 60.8,63.3 59.2,63.3 			"/>
			<polygon class="st17" points="57.7,66.8 53.1,66.8 53.1,65.3 57.7,65.3 			"/>
			<polygon class="st17" points="54.6,56.1 54.6,63.3 53.1,63.3 53.1,56.1 			"/>
			<polygon class="st17" points="57.2,56.1 57.2,63.3 56.7,63.3 56.7,56.1 			"/>
			<path class="st17" d="M49.3,54.1l0.3-1.3c0.8,0,1.4-0.5,1.6-1.3l0.7-2.8h5.5c0.6,0,1-0.5,1-1c0-0.6-0.5-1-1-1h-5l1.9-7.4
				c0.4-1.5-0.5-3-2-3.4c0.1-0.1,0.1-0.1,0.2-0.2c0.1-0.1,0.3-0.2,0.4-0.3c0.6,0.3,1.2,0.6,1.9,0.8v0.7c0,1.5,1.3,2.8,2.8,2.8
				c1.5,0,2.8-1.3,2.8-2.8v-1c0.4-0.1,0.7-0.3,1.1-0.5c0.1,0.1,0.3,0.2,0.4,0.3c1.2,1,1.9,2.5,1.9,4.2v6.8h-1.7c-0.6,0-1,0.5-1,1
				c0,0.6,0.5,1,1,1h1.9l1.2,5.4L49.3,54.1L49.3,54.1z"/>
			<polygon class="st17" points="48,50.3 48.3,49.2 49.7,49.6 49.4,50.7 			"/>
			<path class="st17" d="M51,38.4c0.1-0.3,0.4-0.6,0.7-0.6c0.1,0,0.1,0,0.2,0c0.4,0.1,0.6,0.5,0.5,0.9l-2.3,8.9l-1.5-0.4
				C48.7,47.3,51,38.4,51,38.4z"/>
			<path class="st17" d="M58.5,36.4v0.4c0,0.4-0.3,0.8-0.8,0.8c-0.4,0-0.8-0.3-0.8-0.8v-0.4c0.1,0,0.2,0,0.3,0
				C57.7,36.5,58.1,36.5,58.5,36.4z"/>
			<path class="st17" d="M57.3,34.5c-3.9,0-7.1-3.2-7.1-7.2l0-4.1c0.3,0,0.7,0,1,0c2.9,0,5.7-0.9,8-2.6c1.6,1,3.4,1.8,5.3,2.1
				c0,1.1,0,3,0,4.6C64.5,31.3,61.3,34.5,57.3,34.5z"/>
			<path class="st17" d="M47,27.9v-5.3c0-5.4,4.4-9.8,9.7-9.8h1.2c5.4,0,9.7,4.4,9.7,9.8v5.3c0,2.9-1.3,5.6-3.3,7.4
				c-0.3-0.4-0.6-0.7-1-1c1.9-1.7,3.1-4.2,3.1-6.9c0-1.8,0-4,0-5c0-0.8-0.6-1.5-1.4-1.6c-1.8-0.2-3.5-0.9-5-1.9
				c-0.3-0.2-0.6-0.3-0.9-0.3c-0.4,0-0.7,0.1-1,0.3c-2,1.5-4.5,2.4-7,2.4c-0.4,0-0.8,0-1.2-0.1c-0.5,0-0.9,0.1-1.3,0.4
				c-0.3,0.3-0.5,0.7-0.5,1.2l0,4.5c0,2.8,1.2,5.2,3.1,6.9c-0.4,0.3-0.7,0.6-1,1C48.3,33.4,47,30.8,47,27.9z"/>
			<path class="st17" d="M69.2,16h0.3v1.9c0,0.5,0,1,0.1,1.4h-0.4c0,0,0,0,0,0c-0.2-0.8-0.6-1.6-1-2.4C68.3,16.4,68.7,16,69.2,16z"
				/>
			<path class="st17" d="M69.3,11.7c0-5.3,4.3-9.6,9.6-9.6h0.5c5.3,0,9.6,4.3,9.6,9.6v1.4l-3.8,0c-0.6,0-1,0.5-1,1c0,0.6,0.5,1,1,1
				h1.6v2.8c0,4.3-3.4,7.8-7.6,7.8c-4.2,0-7.6-3.5-7.6-7.8v-2.8h1.8c0.5,0,0.9-0.3,1.2-0.7l0.6-1h0.2l0.6,1c0.2,0.4,0.7,0.7,1.2,0.7
				h3.6c0.6,0,1-0.5,1-1c0-0.6-0.5-1-1-1h-3.2l-1.2-2c-0.2-0.4-0.6-0.6-1.1-0.6c-0.4,0-0.9,0.2-1.1,0.6l-1.2,2h-3.7
				C69.3,13.1,69.3,11.7,69.3,11.7z"/>
			<path class="st17" d="M90.1,17v1.3c0,0.6-0.5,1-1,1h-0.4c0.1-0.5,0.1-0.9,0.1-1.4V16h0.3C89.7,16,90.1,16.5,90.1,17z"/>
			<path class="st17" d="M89,25.3c0,0.2-0.2,0.3-0.3,0.3h-3.4c-0.1,0-0.1-0.1-0.2-0.1c1.4-1.1,2.4-2.6,3.1-4.2H89
				C89,21.3,89,25.3,89,25.3z"/>
			<path class="st17" d="M69.7,31.5v3.3l-3.9,3.9c-0.1-0.6-0.2-1.2-0.5-1.7c1.5-1.2,2.6-2.7,3.4-4.5C68.7,32.5,69.7,31.5,69.7,31.5z
				"/>
			<path class="st17" d="M69.6,28.7c0-0.3,0-0.6,0-0.9v-0.2h1c-0.1,0.1-0.1,0.2-0.2,0.3c-0.2,0.1-0.3,0.3-0.5,0.4L69.6,28.7z"/>
			<path class="st17" d="M73,25.6h-3.3v-3.1c0-0.4,0-0.8-0.1-1.3h0.5c0.6,1.7,1.7,3.1,3.1,4.2C73.1,25.6,73,25.6,73,25.6z"/>
			<path class="st17" d="M78.2,27.6c0.3,0,0.7,0.1,1,0.1c0.3,0,0.7,0,1-0.1c0,0.5-0.5,0.9-1,0.9C78.6,28.5,78.2,28.1,78.2,27.6z"/>
			<path class="st17" d="M79.2,30.6c1.7,0,3-1.4,3-3v-0.4c0.1,0,0.2-0.1,0.3-0.1h0.4c2.1,0,3.8,1.7,3.8,3.8v9.7H71.7v-9.7
				c0-2.1,1.7-3.8,3.8-3.8h0.4c0.1,0,0.2,0.1,0.3,0.1v0.4C76.1,29.2,77.5,30.6,79.2,30.6z"/>
			<path class="st17" d="M73.7,62.7L73.7,62.7C73.7,62.7,73.7,62.7,73.7,62.7z"/>
			<polygon class="st17" points="73.7,62.7 73.7,52.1 76.3,52.1 76.3,62.7 			"/>
			<polygon class="st17" points="79,52.1 79,62.7 78.3,62.7 78.3,52.1 			"/>
			<polygon class="st17" points="87.9,50.1 70.4,50.1 71.5,42.6 86.8,42.6 			"/>
			<path class="st17" d="M88.6,37.8l1.1,4.3l-0.9,0.2c0,0-0.1-0.8-0.2-0.9C88.6,41.4,88.6,37.8,88.6,37.8z"/>
			<polygon class="st17" points="90.7,45.9 89.4,46.2 89.1,44.3 90.2,44 			"/>
			<path class="st17" d="M79.7,16.7c-0.6,0-1,0.5-1,1v0.5h-0.1c-0.6,0-1,0.5-1,1c0,0.6,0.5,1,1,1h0.7c0.8,0,1.5-0.7,1.5-1.5v-1
				C80.7,17.1,80.3,16.7,79.7,16.7z"/>
			<path class="st17" d="M83.2,15.7c-0.6,0-1,0.5-1,1v1.1c0,0.6,0.5,1,1,1s1-0.5,1-1v-1.1C84.2,16.1,83.7,15.7,83.2,15.7z"/>
			<path class="st17" d="M75.1,15.7c-0.6,0-1,0.5-1,1v1.1c0,0.6,0.5,1,1,1c0.6,0,1-0.5,1-1v-1.1C76.1,16.1,75.7,15.7,75.1,15.7z"/>
			<path class="st17" d="M81.2,20.5c-0.6,0-1,0.5-1,1c0,0.6-0.5,1-1,1c-0.6,0-1-0.5-1-1c0-0.6-0.5-1-1-1c-0.6,0-1,0.5-1,1
				c0,1.7,1.4,3,3,3c1.7,0,3-1.4,3-3C82.2,21,81.7,20.5,81.2,20.5z"/>
			<path class="st17" d="M57.7,25.7c-0.6,0-1,0.5-1,1v0.2c-0.5,0.1-0.8,0.5-0.8,1c0,0.6,0.5,1,1,1h0.3c0.8,0,1.5-0.7,1.5-1.5v-0.7
				C58.7,26.1,58.3,25.7,57.7,25.7z"/>
			<path class="st17" d="M61.3,25.1c-0.6,0-1,0.5-1,1v0.6c0,0.6,0.5,1,1,1c0.6,0,1-0.5,1-1v-0.6C62.3,25.5,61.8,25.1,61.3,25.1z"/>
			<path class="st17" d="M53.4,25.1c-0.6,0-1,0.5-1,1v0.6c0,0.6,0.5,1,1,1c0.6,0,1-0.5,1-1v-0.6C54.4,25.5,54,25.1,53.4,25.1z"/>
			<path class="st17" d="M60.1,29.4c-0.5-0.2-1.1,0-1.3,0.6c-0.2,0.6-0.8,1-1.5,1c-0.6,0-1.2-0.4-1.5-1c-0.2-0.5-0.8-0.8-1.3-0.6
				c-0.5,0.2-0.8,0.8-0.6,1.3c0.6,1.4,1.9,2.3,3.3,2.3s2.8-0.9,3.3-2.3C60.9,30.2,60.6,29.6,60.1,29.4z"/>
			<path class="st17" d="M95.6,66.8h-6.4v-1.7c0-1.3-1.1-2.4-2.4-2.4h-1.1v-7.5c0-0.6-0.5-1-1-1c-0.6,0-1,0.5-1,1v7.5h-2.6V52.1h2.6
				v3.1c0,0.6,0.5,1,1,1c0.6,0,1-0.5,1-1v-3.1h2.7c0.5,0,0.9-0.2,1.2-0.5s0.4-0.8,0.4-1.3l-0.3-2l1.9-0.5c0.9-0.2,1.4-1.1,1.2-2
				c0,0-4.1-15.9-4.3-16.2c-0.2-0.7-0.4-1.3-0.8-1.8h1c1.3,0,2.4-1.1,2.4-2.4v-4.7c0.7-0.6,1.1-1.4,1.1-2.3V17
				c0-0.9-0.4-1.7-1.1-2.3v-1c0,0,0,0,0,0c0,0,0,0,0,0l0-2.1C91.1,5.2,85.8,0,79.4,0h-0.5c-6.4,0-11.7,5.2-11.7,11.7v2.1
				c0,0,0,0,0,0c0,0,0,0,0,0v1c-0.1,0.1-0.2,0.2-0.3,0.3c-2.2-2.6-5.4-4.2-9-4.2h-1.2c-6.5,0-11.7,5.3-11.7,11.8v5.3
				c0,3.7,1.7,7,4.3,9.1c-0.2,0.5-0.4,1-0.5,1.6l-3,11.6c-0.1,0.4,0,0.9,0.2,1.3c0.2,0.4,0.6,0.7,1,0.8l0.5,0.1l-0.5,2.1
				c-0.1,0.4,0,0.8,0.2,1.1c0.3,0.3,0.6,0.5,1,0.5H51v10.7h-9c-0.6,0-1,0.5-1,1c0,0.6,0.5,1,1,1h53.6c0.6,0,1-0.5,1-1
				C96.6,67.2,96.2,66.8,95.6,66.8L95.6,66.8z M65.1,67.6l0-2.7l-2.3-0.8l-1.2-1.5l0.1-7.7l4.8-0.2l-1.3-5.2L65,44.8v-3.7l2.9-2.9
				l2.6-2.2l0.3,5.2l-0.9,5.6l-0.5,4l3,0.4l0,16.4C72.4,67.6,65.1,67.6,65.1,67.6z"/>
		</g>
		<polygon class="st18" points="79.7,50.5 84.6,50.5 84.6,64.4 79.7,64.4 		"/>
		<g>
			<path class="st2" d="M95.6,66.8h-6.4v-1.7c0-1.3-1.1-2.4-2.4-2.4h-1.1v-7.5c0-0.6-0.5-1-1-1c-0.6,0-1,0.5-1,1v7.5h-2.6V52.1h2.6
				v3.1c0,0.6,0.5,1,1,1c0.6,0,1-0.5,1-1v-3.1h2.7c0.5,0,0.9-0.2,1.2-0.5c0.3-0.3,0.4-0.8,0.4-1.3l-0.3-2l1.9-0.5
				c0.9-0.2,1.4-1.1,1.2-2c0,0-4.1-15.9-4.3-16.2c-0.2-0.7-0.4-1.3-0.8-1.8h1c1.3,0,2.4-1.1,2.4-2.4v-4.7c0.7-0.6,1.1-1.4,1.1-2.3
				V17c0-0.9-0.4-1.7-1.1-2.3v-1c0,0,0,0,0,0c0,0,0,0,0,0v-2.1C91.1,5.2,85.8,0,79.4,0h-0.5c-6.4,0-11.7,5.2-11.7,11.7v2.1
				c0,0,0,0,0,0c0,0,0,0,0,0v1c-0.1,0.1-0.2,0.2-0.3,0.3c-2.2-2.6-5.4-4.2-9-4.2h-1.2c-6.5,0-11.7,5.3-11.7,11.8v5.3
				c0,3.7,1.7,7,4.3,9.1c-0.2,0.5-0.4,1-0.5,1.6l-3,11.6c-0.1,0.4,0,0.9,0.2,1.3c0.2,0.4,0.6,0.7,1,0.8l0.5,0.1l-0.5,2.1
				c-0.1,0.4,0,0.8,0.2,1.1c0.3,0.3,0.6,0.5,1,0.5H51v10.7h-9c-0.6,0-1,0.5-1,1c0,0.6,0.5,1,1,1h53.6c0.6,0,1-0.5,1-1
				C96.6,67.2,96.2,66.8,95.6,66.8L95.6,66.8z M90.7,45.9l-1.3,0.3l-0.3-1.9l1.1-0.3C90.2,44,90.7,45.9,90.7,45.9z M88.6,37.8
				l1.1,4.3l-0.9,0.2c0,0-0.1-0.8-0.2-0.9V37.8z M87.9,50.1H70.4l1.1-7.5h15.3L87.9,50.1z M79,52.1v10.6h-0.7V52.1
				C78.3,52.1,79,52.1,79,52.1z M73.7,62.7V52.1h2.6v10.6H73.7z M73.7,62.7L73.7,62.7C73.7,62.7,73.7,62.7,73.7,62.7z M79.2,30.6
				c1.7,0,3-1.4,3-3v-0.4c0.1,0,0.2-0.1,0.3-0.1h0.4c2.1,0,3.8,1.7,3.8,3.8v9.7H71.7v-9.7c0-2.1,1.7-3.8,3.8-3.8h0.4
				c0.1,0,0.2,0.1,0.3,0.1v0.4C76.1,29.2,77.5,30.6,79.2,30.6z M78.2,27.6c0.3,0,0.7,0.1,1,0.1c0.3,0,0.7,0,1-0.1
				c0,0.5-0.5,0.9-1,0.9C78.6,28.5,78.2,28.1,78.2,27.6z M73,25.7h-3.3v-3.1c0-0.4,0-0.8-0.1-1.3h0.5c0.6,1.7,1.7,3.1,3.1,4.2
				C73.1,25.6,73,25.6,73,25.7z M69.6,28.7c0-0.3,0-0.6,0-0.9v-0.2h1c-0.1,0.1-0.1,0.2-0.2,0.3c-0.2,0.1-0.3,0.3-0.5,0.4
				C70,28.4,69.6,28.7,69.6,28.7z M69.7,31.5v3.3l-3.9,3.9c-0.1-0.6-0.2-1.2-0.5-1.7c1.5-1.2,2.6-2.7,3.4-4.5
				C68.7,32.5,69.7,31.5,69.7,31.5z M89,25.3c0,0.2-0.2,0.3-0.3,0.3h-3.4c-0.1,0-0.1-0.1-0.2-0.1c1.4-1.1,2.4-2.6,3.1-4.2H89
				C89,21.3,89,25.3,89,25.3z M90.1,17v1.3c0,0.6-0.5,1-1,1h-0.4c0.1-0.5,0.1-0.9,0.1-1.4V16h0.3C89.7,16,90.1,16.5,90.1,17z
				 M69.3,11.7c0-5.3,4.3-9.6,9.6-9.6h0.5c5.3,0,9.6,4.3,9.6,9.6v1.4l-3.8,0c-0.6,0-1,0.5-1,1c0,0.6,0.5,1,1,1h1.6v2.8
				c0,4.3-3.4,7.8-7.6,7.8c-4.2,0-7.6-3.5-7.6-7.8v-2.8h1.8c0.5,0,0.9-0.3,1.2-0.7l0.6-1h0.2l0.6,1c0.2,0.4,0.7,0.7,1.2,0.7h3.6
				c0.6,0,1-0.5,1-1c0-0.6-0.5-1-1-1h-3.2l-1.2-2c-0.2-0.4-0.6-0.6-1.1-0.6c-0.4,0-0.9,0.2-1.1,0.6l-1.2,2h-3.7
				C69.3,13.1,69.3,11.7,69.3,11.7z M69.2,16h0.3v1.9c0,0.5,0,1,0.1,1.4h-0.4c0,0,0,0,0,0c-0.2-0.8-0.6-1.6-1-2.4
				C68.3,16.4,68.7,16,69.2,16z M47,27.9v-5.3c0-5.4,4.4-9.8,9.7-9.8h1.2c5.4,0,9.7,4.4,9.7,9.8v5.3c0,2.9-1.3,5.6-3.3,7.4
				c-0.3-0.4-0.6-0.7-1-1c1.9-1.7,3.1-4.2,3.1-6.9c0-1.8,0-4,0-5c0-0.8-0.6-1.5-1.4-1.6c-1.8-0.2-3.5-0.9-5-1.9
				c-0.3-0.2-0.6-0.3-0.9-0.3c-0.4,0-0.7,0.1-1,0.3c-2,1.5-4.5,2.4-7,2.4c-0.4,0-0.8,0-1.2-0.1c-0.5,0-0.9,0.1-1.3,0.4
				c-0.3,0.3-0.5,0.7-0.5,1.2l0,4.5c0,2.8,1.2,5.2,3.1,6.9c-0.4,0.3-0.7,0.6-1,1C48.3,33.4,47,30.8,47,27.9z M57.3,34.5
				c-3.9,0-7.1-3.2-7.1-7.2l0-4.1c0.3,0,0.7,0,1,0c2.9,0,5.7-0.9,8-2.6c1.6,1,3.4,1.8,5.3,2.1c0,1.1,0,3,0,4.6
				C64.5,31.3,61.3,34.5,57.3,34.5z M58.5,36.4v0.4c0,0.4-0.3,0.8-0.8,0.8c-0.4,0-0.8-0.3-0.8-0.8v-0.4c0.1,0,0.2,0,0.3,0
				C57.7,36.5,58.1,36.5,58.5,36.4z M51,38.4c0.1-0.3,0.4-0.6,0.7-0.6c0.1,0,0.1,0,0.2,0c0.4,0.1,0.6,0.5,0.5,0.9l-2.3,8.9l-1.5-0.4
				C48.7,47.3,51,38.4,51,38.4z M48,50.3l0.3-1.1l1.4,0.4l-0.3,1.1L48,50.3z M49.3,54.1l0.3-1.3c0.8,0,1.4-0.5,1.6-1.3l0.7-2.8h5.5
				c0.6,0,1-0.5,1-1c0-0.6-0.5-1-1-1h-5l1.9-7.4c0.4-1.5-0.5-3-2-3.4c0.1-0.1,0.1-0.1,0.2-0.2c0.1-0.1,0.3-0.2,0.4-0.3
				c0.6,0.3,1.2,0.6,1.9,0.8v0.7c0,1.5,1.3,2.8,2.8,2.8c1.5,0,2.8-1.3,2.8-2.8v-1c0.4-0.1,0.7-0.3,1.1-0.5c0.1,0.1,0.3,0.2,0.4,0.3
				c1.2,1,1.9,2.5,1.9,4.2v6.8h-1.7c-0.6,0-1,0.5-1,1c0,0.6,0.5,1,1,1h1.9l1.2,5.4L49.3,54.1L49.3,54.1z M57.2,56.1v7.2h-0.6v-7.2
				C56.7,56.1,57.2,56.1,57.2,56.1z M54.6,56.1v7.2h-1.6v-7.2C53.1,56.1,54.6,56.1,54.6,56.1z M57.7,66.8h-4.6v-1.5h4.6V66.8z
				 M59.2,56.1h1.6v7.2h-1.6V56.1z M63.9,66.8h-4.2v-1.5h4.2V66.8z M65.9,66.8V65c0-0.9-0.8-1.7-1.7-1.7h-1.4v-7.2h3.4
				c0.4,0,0.8-0.2,1-0.5c0.3-0.3,0.3-0.7,0.3-1.1L66,47.9c0-0.1-0.1-0.2-0.1-0.3v-6.1l3.8-3.8v3.7c0,0.1-1.3,8.8-1.3,8.8
				c-0.1,0.5,0.1,0.9,0.4,1.3c0.3,0.3,0.7,0.5,1.2,0.5h1.7V65c0,0,0,0,0,0c0,0,0,0,0,0v1.4c0,0.1,0,0.2,0,0.3
				C71.7,66.8,65.9,66.8,65.9,66.8z M79.8,66.4c0,0.2-0.2,0.3-0.3,0.3H74c-0.2,0-0.3-0.2-0.3-0.3v-1.4c0-0.2,0.2-0.3,0.3-0.3h5.5
				c0.2,0,0.3,0.2,0.3,0.3L79.8,66.4z M81.1,62.7L81.1,62.7C81.1,62.7,81.1,62.7,81.1,62.7z M87.2,66.4c0,0.2-0.2,0.3-0.3,0.3h-5.1
				c0-0.1,0-0.2,0-0.3v-1.4c0-0.1,0-0.2,0-0.3h5.1c0.2,0,0.3,0.2,0.3,0.3V66.4z M89.2,66.8C89.2,66.7,89.2,66.8,89.2,66.8L89.2,66.8
				z"/>
			<path class="st2" d="M79.7,16.7c-0.6,0-1,0.5-1,1v0.5h-0.1c-0.6,0-1,0.5-1,1c0,0.6,0.5,1,1,1h0.7c0.8,0,1.5-0.7,1.5-1.5v-1
				C80.7,17.1,80.3,16.7,79.7,16.7z"/>
			<path class="st2" d="M83.2,15.7c-0.6,0-1,0.5-1,1v1.1c0,0.6,0.5,1,1,1s1-0.5,1-1v-1.1C84.2,16.1,83.7,15.7,83.2,15.7z"/>
			<path class="st2" d="M75.1,15.7c-0.6,0-1,0.5-1,1v1.1c0,0.6,0.5,1,1,1c0.6,0,1-0.5,1-1v-1.1C76.1,16.1,75.7,15.7,75.1,15.7z"/>
			<path class="st2" d="M81.2,20.5c-0.6,0-1,0.5-1,1c0,0.6-0.5,1-1,1c-0.6,0-1-0.5-1-1c0-0.6-0.5-1-1-1c-0.6,0-1,0.5-1,1
				c0,1.7,1.4,3,3,3c1.7,0,3-1.4,3-3C82.2,21,81.7,20.5,81.2,20.5z"/>
			<path class="st2" d="M57.7,25.7c-0.6,0-1,0.5-1,1v0.2c-0.5,0.1-0.8,0.5-0.8,1c0,0.6,0.5,1,1,1h0.3c0.8,0,1.5-0.7,1.5-1.5v-0.7
				C58.7,26.1,58.3,25.7,57.7,25.7z"/>
			<path class="st2" d="M61.3,25.1c-0.6,0-1,0.5-1,1v0.6c0,0.6,0.5,1,1,1c0.6,0,1-0.5,1-1v-0.6C62.3,25.5,61.8,25.1,61.3,25.1z"/>
			<path class="st2" d="M53.4,25.1c-0.6,0-1,0.5-1,1v0.6c0,0.6,0.5,1,1,1c0.6,0,1-0.5,1-1v-0.6C54.4,25.5,54,25.1,53.4,25.1z"/>
			<path class="st2" d="M60.1,29.4c-0.5-0.2-1.1,0-1.3,0.6c-0.2,0.6-0.8,1-1.5,1c-0.6,0-1.2-0.4-1.5-1c-0.2-0.5-0.8-0.8-1.3-0.6
				c-0.5,0.2-0.8,0.8-0.6,1.3c0.6,1.4,1.9,2.3,3.3,2.3c1.5,0,2.8-0.9,3.3-2.3C60.9,30.2,60.6,29.6,60.1,29.4z"/>
		</g>
	</g>
</g>
</svg>
