<?xml version="1.0" encoding="utf-8"?>
<!-- Generator: Adobe Illustrator 26.0.3, SVG Export Plug-In . SVG Version: 6.00 Build 0)  -->
<svg version="1.1" id="Layer_1" xmlns="http://www.w3.org/2000/svg" xmlns:xlink="http://www.w3.org/1999/xlink" x="0px" y="0px"
	 viewBox="0 0 63.8 21.1" style="enable-background:new 0 0 63.8 21.1;" xml:space="preserve">
<path d="M52.7,13.2c0-0.6,0.1-1.3,0.2-1.9c0.1-0.7,0.4-1.3,0.7-1.8c0.3-0.5,0.8-1,1.3-1.3c0.5-0.3,1.2-0.5,2-0.5
	c0.8,0,1.5,0.2,2,0.5c0.5,0.3,1,0.8,1.3,1.3c0.3,0.5,0.6,1.1,0.7,1.8c0.1,0.7,0.2,1.3,0.2,1.9c0,0.6-0.1,1.3-0.2,1.9
	c-0.1,0.7-0.4,1.3-0.7,1.8c-0.3,0.5-0.8,1-1.3,1.3c-0.5,0.3-1.2,0.5-2,0.5c-0.8,0-1.4-0.2-2-0.5c-0.5-0.3-1-0.8-1.3-1.3
	c-0.3-0.5-0.6-1.1-0.7-1.8C52.8,14.5,52.7,13.8,52.7,13.2 M50.1,13.2c0,1,0.2,2,0.5,2.9c0.3,0.9,0.7,1.8,1.3,2.5
	c0.6,0.7,1.3,1.3,2.2,1.7c0.9,0.4,1.8,0.6,2.9,0.6c1.1,0,2.1-0.2,2.9-0.6c0.9-0.4,1.6-1,2.2-1.7c0.6-0.7,1-1.6,1.3-2.5
	c0.3-0.9,0.5-1.9,0.5-2.9s-0.2-2-0.5-2.9c-0.3-0.9-0.7-1.8-1.3-2.5C61.5,7,60.7,6.5,59.9,6C59,5.6,58.1,5.4,57,5.4
	c-1.1,0-2.1,0.2-2.9,0.6c-0.9,0.4-1.6,1-2.2,1.7c-0.6,0.7-1,1.6-1.3,2.5C50.3,11.2,50.1,12.2,50.1,13.2z"/>
<path d="M37.2,2.3h3c1.2,0,2,0.3,2.6,0.9c0.5,0.6,0.8,1.4,0.8,2.3c0,1-0.3,1.8-0.9,2.4c-0.6,0.6-1.5,1-2.6,1h-2.9V2.3z M37.2,11.1
	h3.8c0.7,0,1.3,0.1,1.8,0.3c0.5,0.2,1,0.5,1.3,0.8c0.4,0.4,0.6,0.8,0.8,1.2c0.2,0.5,0.3,1,0.3,1.5c0,1.2-0.4,2.1-1.2,2.8
	c-0.8,0.7-1.9,1.1-3.1,1.1h-3.6V11.1z M34.6,19.6c0,0.4,0.1,0.7,0.3,1c0.2,0.3,0.6,0.4,1.1,0.4h5c1.1,0,2.1-0.2,2.9-0.5
	c0.9-0.3,1.6-0.8,2.1-1.3c0.6-0.6,1-1.2,1.3-1.9c0.3-0.7,0.5-1.5,0.5-2.3c0-0.7-0.1-1.3-0.4-1.9c-0.2-0.6-0.6-1.1-1-1.6
	c-0.4-0.4-0.9-0.8-1.4-1.1c-0.5-0.3-1.1-0.5-1.8-0.5V9.7c0.9-0.3,1.6-0.8,2.1-1.6c0.5-0.8,0.8-1.8,0.8-2.9c0-0.6-0.1-1.2-0.4-1.8
	c-0.2-0.6-0.6-1.1-1.1-1.6c-0.5-0.5-1.1-0.9-1.8-1.2c-0.7-0.3-1.5-0.4-2.4-0.4H36c-0.5,0-0.8,0.1-1.1,0.4c-0.2,0.3-0.3,0.6-0.3,1
	V19.6z"/>
<path d="M8.1,16.7L8.1,16.7l-5.3-15C2.6,1.3,2.4,0.9,2.2,0.6C2,0.3,1.7,0.1,1.2,0.1c-0.4,0-0.6,0.1-0.8,0.3C0.1,0.6,0,0.9,0,1.2
	c0,0.3,0.1,0.6,0.2,1l6.4,17.5c0.2,0.4,0.3,0.8,0.5,1C7.3,20.9,7.6,21,8,21c0.4,0,0.8-0.1,1-0.4c0.2-0.2,0.4-0.6,0.5-1l6.4-17.5
	c0.1-0.3,0.2-0.7,0.2-1c0-0.3-0.1-0.5-0.3-0.7c-0.2-0.2-0.5-0.3-0.8-0.3c-0.5,0-0.9,0.2-1.1,0.5c-0.2,0.3-0.4,0.7-0.5,1.2L8.1,16.7z
	"/>
<path d="M19.7,21c-0.7,0-1.3-0.6-1.3-1.3c0-0.7,0.6-1.3,1.3-1.3h8.9c0.7,0,1.3,0.6,1.3,1.3c0,0.7-0.6,1.3-1.3,1.3H19.7z"/>
<path d="M52.5,2.6c-0.7,0-1.3-0.6-1.3-1.3c0-0.7,0.6-1.3,1.3-1.3h8.9c0.7,0,1.3,0.6,1.3,1.3c0,0.7-0.6,1.3-1.3,1.3H52.5z"/>
<path d="M19.8,7.9c0-0.6,0.1-1.3,0.2-1.9c0.1-0.7,0.4-1.3,0.7-1.8c0.3-0.5,0.8-1,1.3-1.3c0.5-0.3,1.2-0.5,2-0.5c0.8,0,1.5,0.2,2,0.5
	c0.5,0.3,1,0.8,1.3,1.3C27.8,4.7,28,5.3,28.2,6c0.1,0.7,0.2,1.3,0.2,1.9c0,0.6-0.1,1.3-0.2,1.9c-0.1,0.7-0.4,1.3-0.7,1.8
	c-0.3,0.5-0.8,1-1.3,1.3c-0.5,0.3-1.2,0.5-2,0.5c-0.8,0-1.4-0.2-2-0.5c-0.5-0.3-1-0.8-1.3-1.3c-0.3-0.5-0.6-1.1-0.7-1.8
	C19.9,9.2,19.8,8.6,19.8,7.9 M17.3,7.9c0,1,0.2,2,0.5,2.9c0.3,0.9,0.7,1.8,1.3,2.5c0.6,0.7,1.3,1.3,2.2,1.7c0.9,0.4,1.8,0.6,2.9,0.6
	c1.1,0,2.1-0.2,2.9-0.6c0.9-0.4,1.6-1,2.2-1.7c0.6-0.7,1-1.6,1.3-2.5C30.8,9.9,31,8.9,31,7.9s-0.2-2-0.5-2.9
	c-0.3-0.9-0.7-1.8-1.3-2.5c-0.6-0.7-1.3-1.3-2.2-1.7c-0.9-0.4-1.8-0.6-2.9-0.6c-1.1,0-2.1,0.2-2.9,0.6c-0.9,0.4-1.6,1-2.2,1.7
	c-0.6,0.7-1,1.6-1.3,2.5C17.4,5.9,17.3,6.9,17.3,7.9z"/>
<path d="M28.5,1.4c0-0.7,0.6-1.3,1.3-1.3c0.7,0,1.3,0.6,1.3,1.3v8.9c0,0.7-0.6,1.3-1.3,1.3c-0.7,0-1.3-0.6-1.3-1.3V1.4z"/>
<path d="M28.5,5.6c0-0.7,0.6-1.3,1.3-1.3c0.7,0,1.3,0.6,1.3,1.3v8.9c0,0.7-0.6,1.3-1.3,1.3c-0.7,0-1.3-0.6-1.3-1.3V5.6z"/>
</svg>
