<?xml version="1.0" encoding="utf-8"?>
<!-- Generator: Adobe Illustrator 26.0.3, SVG Export Plug-In . SVG Version: 6.00 Build 0)  -->
<svg version="1.1" id="Layer_1" xmlns="http://www.w3.org/2000/svg" xmlns:xlink="http://www.w3.org/1999/xlink" x="0px" y="0px"
	 viewBox="0 0 137.8 116.4" style="enable-background:new 0 0 137.8 116.4;" xml:space="preserve">
<style type="text/css">
	.st0{fill-rule:evenodd;clip-rule:evenodd;fill:#FFFFFF;}
	.st1{fill-rule:evenodd;clip-rule:evenodd;fill:#F9D2E5;}
	.st2{fill-rule:evenodd;clip-rule:evenodd;fill:#B0A18B;}
	.st3{fill-rule:evenodd;clip-rule:evenodd;fill:#EAE0C7;}
	
		.st4{clip-path:url(#SVGID_00000173865688302913423030000003792432331032597678_);fill-rule:evenodd;clip-rule:evenodd;fill:#FFFFFF;}
	.st5{clip-path:url(#SVGID_00000173865688302913423030000003792432331032597678_);}
	
		.st6{clip-path:url(#SVGID_00000109030124448474040570000013459354768853918862_);fill-rule:evenodd;clip-rule:evenodd;fill:#DB415D;}
	
		.st7{clip-path:url(#SVGID_00000173865688302913423030000003792432331032597678_);fill-rule:evenodd;clip-rule:evenodd;fill:#D9DADA;}
	
		.st8{clip-path:url(#SVGID_00000080920550975000933410000009322611275965425556_);fill-rule:evenodd;clip-rule:evenodd;fill:#F9D2E5;}
	.st9{fill-rule:evenodd;clip-rule:evenodd;fill:#A7D3AE;}
</style>
<path class="st0" d="M68.9,8.5c27.4,0,49.7,22.2,49.7,49.7c0,27.4-22.2,49.7-49.7,49.7c-27.4,0-49.7-22.2-49.7-49.7
	C19.2,30.8,41.5,8.5,68.9,8.5"/>
<path class="st1" d="M68.9,15C92.7,15,112,34.4,112,58.2c0,23.8-19.3,43.2-43.2,43.2C45,101.4,25.7,82,25.7,58.2
	C25.7,34.4,45,15,68.9,15 M68.9,0.7c31.8,0,57.5,25.7,57.5,57.5c0,31.8-25.7,57.5-57.5,57.5S11.4,90,11.4,58.2
	C11.4,26.4,37.1,0.7,68.9,0.7z"/>
<path d="M99,28.1c-7.7-7.7-18.3-12.5-30.1-12.5c-11.8,0-22.4,4.8-30.1,12.5c-7.7,7.7-12.5,18.3-12.5,30.1c0,11.8,4.8,22.4,12.5,30.1
	c7.7,7.7,18.3,12.5,30.1,12.5c11.8,0,22.4-4.8,30.1-12.5c7.7-7.7,12.5-18.3,12.5-30.1C111.4,46.4,106.7,35.8,99,28.1 M68.9,14.4
	c12.1,0,23,4.9,30.9,12.8c7.9,7.9,12.8,18.9,12.8,30.9c0,12.1-4.9,23-12.8,30.9C91.9,97.1,81,102,68.9,102c-12.1,0-23-4.9-30.9-12.8
	C30,81.2,25.1,70.3,25.1,58.2c0-12.1,4.9-23,12.8-30.9C45.9,19.3,56.8,14.4,68.9,14.4z M109.1,18C98.8,7.7,84.6,1.3,68.9,1.3
	S38.9,7.7,28.6,18C18.3,28.3,12,42.5,12,58.2c0,15.7,6.4,29.9,16.7,40.2c10.3,10.3,24.5,16.7,40.2,16.7s29.9-6.4,40.2-16.7
	c10.3-10.3,16.7-24.5,16.7-40.2C125.8,42.5,119.4,28.3,109.1,18z M68.9,0.1c16,0,30.6,6.5,41.1,17s17,25,17,41.1
	c0,16-6.5,30.6-17,41.1c-10.5,10.5-25,17-41.1,17s-30.6-6.5-41.1-17c-10.5-10.5-17-25-17-41.1c0-16,6.5-30.6,17-41.1
	S52.8,0.1,68.9,0.1z"/>
<path class="st1" d="M136.5,67.7H111c0.7-3.1,1.1-6.2,1.1-9.5s-0.4-6.4-1.1-9.5h25.5l-7,9.5L136.5,67.7z M1.2,67.7h25.5
	c-0.7-3.1-1.1-6.2-1.1-9.5s0.4-6.4,1.1-9.5H1.2l7,9.5L1.2,67.7z"/>
<path d="M111.7,67.1h23.6l-6.5-8.9l6.5-8.9h-23.6c0.3,1.3,0.5,2.7,0.6,4.1c0.2,1.6,0.3,3.2,0.3,4.8c0,1.6-0.1,3.2-0.3,4.8
	C112.2,64.4,112,65.8,111.7,67.1 M136.5,68.3h-26.3l0.2-0.7c0.3-1.5,0.6-3.1,0.8-4.6c0.2-1.5,0.3-3.1,0.3-4.7c0-1.6-0.1-3.2-0.3-4.7
	c-0.2-1.6-0.4-3.1-0.8-4.6l-0.2-0.7h27.4l-7.4,10.1l7.4,10.1H136.5z M26.8,68.3H0.1l7.4-10.1L0.1,48.1h27.4l-0.2,0.7
	c-0.3,1.5-0.6,3.1-0.8,4.6c-0.2,1.5-0.3,3.1-0.3,4.7c0,1.6,0.1,3.2,0.3,4.7c0.2,1.6,0.4,3.1,0.8,4.6l0.2,0.7H26.8z M2.4,67.1H26
	c-0.3-1.3-0.5-2.7-0.6-4.1c-0.2-1.6-0.3-3.2-0.3-4.8c0-1.6,0.1-3.2,0.3-4.8c0.2-1.4,0.4-2.7,0.6-4.1H2.4l6.5,8.9L2.4,67.1z"/>
<path d="M20,55.5c0.3,0,0.5,0.1,0.7,0.2c0.2,0.1,0.3,0.4,0.5,0.6c0.1,0.3,0.2,0.6,0.3,0.9c0.1,0.4,0.1,0.8,0.1,1.2s0,0.8-0.1,1.2
	c-0.1,0.4-0.2,0.7-0.3,0.9c-0.1,0.3-0.3,0.5-0.5,0.6c-0.2,0.1-0.4,0.2-0.7,0.2c-0.3,0-0.5-0.1-0.7-0.2c-0.2-0.1-0.3-0.4-0.5-0.6
	c-0.1-0.3-0.2-0.6-0.3-0.9c-0.1-0.4-0.1-0.8-0.1-1.2s0-0.8,0.1-1.2c0.1-0.4,0.2-0.7,0.3-0.9c0.1-0.3,0.3-0.5,0.5-0.6
	C19.5,55.5,19.7,55.5,20,55.5 M20,62c0.3,0,0.5-0.1,0.8-0.2c0.3-0.1,0.5-0.3,0.7-0.6c0.2-0.3,0.4-0.7,0.6-1.1c0.1-0.5,0.2-1,0.2-1.7
	c0-0.7-0.1-1.3-0.2-1.7c-0.1-0.5-0.3-0.8-0.6-1.1c-0.2-0.3-0.5-0.5-0.7-0.6c-0.3-0.1-0.5-0.2-0.8-0.2c-0.3,0-0.5,0.1-0.8,0.2
	c-0.3,0.1-0.5,0.3-0.7,0.6c-0.2,0.3-0.4,0.7-0.6,1.1c-0.1,0.5-0.2,1-0.2,1.7c0,0.7,0.1,1.3,0.2,1.7c0.1,0.5,0.3,0.8,0.6,1.1
	c0.2,0.3,0.5,0.5,0.7,0.6C19.4,62,19.7,62,20,62z M12.8,61.4l2.3-3.1c0.3-0.3,0.4-0.6,0.5-0.9c0.1-0.3,0.2-0.5,0.2-0.8
	c0-0.6-0.2-1-0.5-1.4c-0.4-0.3-0.8-0.5-1.4-0.5c-0.3,0-0.6,0.1-0.9,0.2c-0.3,0.1-0.5,0.3-0.7,0.5c-0.2,0.2-0.3,0.4-0.4,0.7
	c-0.1,0.3-0.2,0.6-0.2,0.9c0,0.2,0,0.3,0.1,0.4c0.1,0.1,0.2,0.1,0.3,0.1c0.1,0,0.2,0,0.3-0.1c0.1-0.1,0.1-0.2,0.1-0.3
	c0-0.6,0.1-1,0.4-1.2c0.2-0.3,0.6-0.4,1-0.4c0.4,0,0.6,0.1,0.9,0.3c0.2,0.2,0.3,0.5,0.3,0.9c0,0.2,0,0.4-0.1,0.6
	c-0.1,0.2-0.3,0.5-0.5,0.8L12,61.3c-0.1,0.1-0.1,0.2-0.2,0.3c0,0.1,0,0.1,0,0.2c0,0.1,0,0.1,0.1,0.2C11.9,62,12,62,12.2,62h3.4
	c0.1,0,0.2,0,0.3-0.1c0.1-0.1,0.1-0.1,0.1-0.2c0-0.1,0-0.2-0.1-0.2c-0.1-0.1-0.2-0.1-0.3-0.1H12.8z"/>
<path d="M125.1,59.4h-2.4l2.3-4.1h0V59.4z M125.1,61.6c0,0.3,0.1,0.5,0.4,0.5c0.2,0,0.4-0.2,0.4-0.5v-1.5h0.4c0.1,0,0.2,0,0.3-0.1
	c0.1-0.1,0.1-0.1,0.1-0.2c0-0.1,0-0.2-0.1-0.2c-0.1-0.1-0.2-0.1-0.3-0.1h-0.4v-4c0-0.2-0.1-0.3-0.2-0.4c-0.1-0.1-0.3-0.2-0.4-0.2
	c-0.2,0-0.3,0-0.4,0.1c-0.1,0.1-0.2,0.2-0.3,0.3l-2.4,4c-0.1,0.1-0.2,0.3-0.2,0.4c0,0.1-0.1,0.2-0.1,0.3c0,0.1,0,0.2,0.1,0.2
	c0.1,0,0.2,0.1,0.3,0.1h2.9V61.6z M117,61.4l2.3-3.1c0.3-0.3,0.4-0.6,0.5-0.9c0.1-0.3,0.2-0.5,0.2-0.8c0-0.6-0.2-1-0.5-1.4
	c-0.4-0.3-0.8-0.5-1.4-0.5c-0.3,0-0.6,0.1-0.9,0.2c-0.3,0.1-0.5,0.3-0.7,0.5c-0.2,0.2-0.3,0.4-0.4,0.7c-0.1,0.3-0.2,0.6-0.2,0.9
	c0,0.2,0,0.3,0.1,0.4c0.1,0.1,0.2,0.1,0.3,0.1c0.1,0,0.2,0,0.3-0.1c0.1-0.1,0.1-0.2,0.1-0.3c0-0.6,0.1-1,0.4-1.2
	c0.2-0.3,0.6-0.4,1-0.4c0.4,0,0.6,0.1,0.9,0.3c0.2,0.2,0.3,0.5,0.3,0.9c0,0.2,0,0.4-0.1,0.6c-0.1,0.2-0.3,0.5-0.5,0.8l-2.4,3.2
	c-0.1,0.1-0.1,0.2-0.2,0.3c0,0.1,0,0.1,0,0.2c0,0.1,0,0.1,0.1,0.2c0.1,0.1,0.2,0.1,0.3,0.1h3.4c0.1,0,0.2,0,0.3-0.1
	c0.1-0.1,0.1-0.1,0.1-0.2c0-0.1,0-0.2-0.1-0.2c-0.1-0.1-0.2-0.1-0.3-0.1H117z"/>
<path class="st2" d="M68.9,67.6c6.2,0,11.8-0.3,15.9-0.8c4.1-0.5,6.6-1.1,6.6-1.8c0-0.8,0-1.6,0-2.4h-2.5h-40h-2.5V65
	c0,0.7,2.5,1.4,6.6,1.8C57.1,67.3,62.7,67.6,68.9,67.6"/>
<path d="M77.5,68c-2.7,0.1-5.6,0.2-8.6,0.2c-3,0-5.9-0.1-8.6-0.2c-2.8-0.1-5.3-0.3-7.3-0.6c-2.1-0.2-3.8-0.5-5-0.9
	c-1.4-0.4-2.1-0.9-2.1-1.6v-2.4c0-0.3,0.3-0.6,0.6-0.6h44.9c0.3,0,0.6,0.3,0.6,0.6V65c0,0.7-0.8,1.2-2.1,1.6c-1.2,0.3-2.9,0.6-5,0.9
	C82.8,67.7,80.3,67.9,77.5,68 M68.9,67c3.1,0,5.9-0.1,8.6-0.2c2.7-0.1,5.2-0.3,7.3-0.6c2-0.2,3.7-0.5,4.8-0.8
	c0.8-0.2,1.3-0.4,1.3-0.4v-1.8H47V65c0,0,0.5,0.2,1.3,0.4c1.1,0.3,2.7,0.6,4.8,0.8c2.1,0.2,4.5,0.4,7.3,0.6
	C62.9,66.9,65.8,67,68.9,67z"/>
<path class="st3" d="M68.9,65.3c6.2,0,11.8-0.3,15.9-0.8c4.1-0.5,6.6-1.1,6.6-1.8c0-0.7-2.5-1.4-6.6-1.8c-4.1-0.5-9.7-0.8-15.9-0.8
	c-6.2,0-11.8,0.3-15.9,0.8c-4.1,0.5-6.6,1.1-6.6,1.8c0,0.7,2.5,1.4,6.6,1.8C57.1,65,62.7,65.3,68.9,65.3"/>
<path d="M77.5,65.6c-2.7,0.1-5.6,0.2-8.6,0.2c-3,0-5.9-0.1-8.6-0.2c-2.8-0.1-5.3-0.3-7.3-0.6c-2.1-0.2-3.8-0.5-5-0.9
	c-1.4-0.4-2.1-0.9-2.1-1.6c0-0.7,0.8-1.2,2.1-1.6c1.2-0.3,2.9-0.6,5-0.9c2.1-0.2,4.6-0.4,7.3-0.6c2.7-0.1,5.6-0.2,8.6-0.2
	c3,0,5.9,0.1,8.6,0.2c2.8,0.1,5.3,0.3,7.3,0.6c2.1,0.2,3.8,0.5,5,0.9c1.4,0.4,2.1,0.9,2.1,1.6c0,0.7-0.8,1.2-2.1,1.6
	c-1.2,0.3-2.9,0.6-5,0.9C82.8,65.3,80.3,65.5,77.5,65.6 M68.9,64.7c3.1,0,5.9-0.1,8.6-0.2c2.7-0.1,5.2-0.3,7.3-0.6
	c2-0.2,3.7-0.5,4.8-0.8c0.8-0.2,1.3-0.4,1.3-0.4c0,0-0.5-0.2-1.3-0.4c-1.1-0.3-2.7-0.6-4.8-0.8c-2.1-0.2-4.5-0.4-7.3-0.6
	c-2.6-0.1-5.5-0.2-8.6-0.2c-3.1,0-5.9,0.1-8.6,0.2c-2.7,0.1-5.2,0.3-7.3,0.6c-2,0.2-3.7,0.5-4.8,0.8c-0.8,0.2-1.3,0.4-1.3,0.4
	c0,0,0.5,0.2,1.3,0.4c1.1,0.3,2.7,0.6,4.8,0.8c2.1,0.2,4.5,0.4,7.3,0.6C62.9,64.6,65.8,64.7,68.9,64.7z"/>
<path class="st0" d="M79.8,63L79.8,63c0-1.3-5.2-2.3-10.9-2.3S58.8,61.9,58,63c-0.5-1.8-0.8-3.7-0.8-5.7c0-8.6,5.2-15.5,11.7-15.5
	s11.7,6.9,11.7,15.5C80.6,59.3,80.3,61.2,79.8,63"/>
<g>
	<defs>
		<path id="SVGID_1_" d="M79.8,63L79.8,63c0-1.3-5.2-2.3-10.9-2.3S58.8,61.9,58,63c-0.5-1.8-0.8-3.7-0.8-5.7
			c0-8.6,5.2-15.5,11.7-15.5s11.7,6.9,11.7,15.5C80.6,59.3,80.3,61.2,79.8,63"/>
	</defs>
	<clipPath id="SVGID_00000141451167908128296770000014321033294601305761_">
		<use xlink:href="#SVGID_1_"  style="overflow:visible;"/>
	</clipPath>
	
		<path style="clip-path:url(#SVGID_00000141451167908128296770000014321033294601305761_);fill-rule:evenodd;clip-rule:evenodd;fill:#FFFFFF;" d="
		M77.3,62.2c-0.4-7-4-12.5-8.4-12.5c-4.4,0-8,5.5-8.4,12.5c2.2-0.3,5.2-0.4,8.4-0.4S75.1,61.9,77.3,62.2"/>
	<g style="clip-path:url(#SVGID_00000141451167908128296770000014321033294601305761_);">
		<defs>
			<path id="SVGID_00000089552176289948938220000016743786434236109710_" d="M77.3,62.2c-0.4-7-4-12.5-8.4-12.5
				c-4.4,0-8,5.5-8.4,12.5c2.2-0.3,5.2-0.4,8.4-0.4S75.1,61.9,77.3,62.2"/>
		</defs>
		<clipPath id="SVGID_00000099645717868803020140000016123970061860139438_">
			<use xlink:href="#SVGID_00000089552176289948938220000016743786434236109710_"  style="overflow:visible;"/>
		</clipPath>
		
			<path style="clip-path:url(#SVGID_00000099645717868803020140000016123970061860139438_);fill-rule:evenodd;clip-rule:evenodd;fill:#DB415D;" d="
			M75.9,62.7c-0.4-7-4-12.5-8.4-12.5c-4.4,0-8,5.5-8.4,12.5c2.2-0.3,5.2-0.4,8.4-0.4C70.8,62.3,73.7,62.5,75.9,62.7"/>
	</g>
	<path style="clip-path:url(#SVGID_00000141451167908128296770000014321033294601305761_);" d="M75.1,53c1.6,2.3,2.6,5.6,2.8,9.2
		l0,0.7l-0.7-0.1c-1.1-0.1-2.4-0.2-3.9-0.3c-1.4-0.1-2.9-0.1-4.5-0.1c-1.6,0-3.1,0-4.5,0.1c-1.4,0.1-2.7,0.2-3.9,0.3l-0.7,0.1l0-0.7
		c0.2-3.6,1.2-6.9,2.8-9.2c1.6-2.4,3.8-3.8,6.2-3.8S73.5,50.6,75.1,53 M76.7,61.5c-0.3-3.1-1.2-5.9-2.6-7.9
		c-1.4-2.1-3.2-3.3-5.2-3.3c-2,0-3.8,1.3-5.2,3.3c-1.4,2-2.3,4.8-2.6,7.9c1-0.1,2.1-0.2,3.2-0.2c1.4-0.1,3-0.1,4.5-0.1
		c1.6,0,3.1,0,4.5,0.1C74.6,61.4,75.7,61.4,76.7,61.5z"/>
	
		<path style="clip-path:url(#SVGID_00000141451167908128296770000014321033294601305761_);fill-rule:evenodd;clip-rule:evenodd;fill:#D9DADA;" d="
		M67.4,31.9c11.5,0,20.9,9.1,20.9,20.4c0,3.6-0.9,6.9-2.6,9.9c-1.7,0.3-4.3,0.6-7.4,0.8c0.5-1.8,0.8-3.7,0.8-5.7
		c0-8.6-5.2-15.5-11.7-15.5c-6.5,0-11.7,6.9-11.7,15.5c0,2,0.3,4,0.8,5.7c-3.1-0.2-5.6-0.5-7.4-0.8c-1.7-2.9-2.6-6.3-2.6-9.9
		C46.5,41.1,55.9,31.9,67.4,31.9"/>
</g>
<path d="M76.6,60.8c1.2,0.3,2.2,0.6,2.8,1c0.1-0.6,0.2-1.1,0.3-1.7c0.1-0.9,0.2-1.9,0.2-2.8c0-4.2-1.3-7.9-3.3-10.6
	c-2-2.7-4.8-4.3-7.8-4.3c-3,0-5.8,1.6-7.8,4.3c-2,2.7-3.3,6.5-3.3,10.6c0,1,0.1,1.9,0.2,2.8c0.1,0.6,0.2,1.3,0.4,1.9
	c0.8-0.5,2-0.9,3.5-1.2c1.9-0.4,4.3-0.7,7-0.7C71.8,60.1,74.6,60.4,76.6,60.8 M79.8,63.6c-0.3,0-0.6-0.3-0.6-0.6l0,0
	c-0.1-0.3-1.1-0.7-2.8-1c-2-0.4-4.7-0.7-7.5-0.7c-2.6,0-5,0.3-6.8,0.6c-2,0.4-3.3,0.9-3.6,1.4c-0.2,0.3-0.6,0.3-0.8,0.1
	c-0.1-0.1-0.2-0.2-0.2-0.3c-0.3-0.9-0.5-1.9-0.6-2.9c-0.1-1-0.2-2-0.2-3c0-4.4,1.4-8.4,3.6-11.3c2.2-3,5.3-4.8,8.8-4.8
	c3.4,0,6.5,1.8,8.8,4.8c2.2,2.9,3.6,6.9,3.6,11.3c0,1-0.1,2-0.2,3c-0.1,1-0.4,2-0.6,2.9C80.3,63.4,80,63.6,79.8,63.6z"/>
<path d="M83.1,82.3c0-0.4,0-0.9,0.2-1.3c0.1-0.4,0.3-0.9,0.5-1.2c0.2-0.4,0.5-0.7,0.9-0.9c0.4-0.2,0.8-0.4,1.4-0.4
	c0.5,0,1,0.1,1.4,0.4c0.4,0.2,0.7,0.5,0.9,0.9c0.2,0.4,0.4,0.8,0.5,1.2c0.1,0.4,0.2,0.9,0.2,1.3c0,0.4-0.1,0.9-0.2,1.3
	c-0.1,0.4-0.3,0.9-0.5,1.2c-0.2,0.4-0.5,0.7-0.9,0.9C87,86,86.5,86.1,86,86.1c-0.5,0-1-0.1-1.4-0.4c-0.4-0.2-0.7-0.5-0.9-0.9
	c-0.2-0.4-0.4-0.8-0.5-1.2C83.1,83.2,83.1,82.8,83.1,82.3 M81.3,82.3c0,0.7,0.1,1.4,0.3,2c0.2,0.6,0.5,1.2,0.9,1.7
	c0.4,0.5,0.9,0.9,1.5,1.2c0.6,0.3,1.2,0.4,2,0.4c0.7,0,1.4-0.1,2-0.4c0.6-0.3,1.1-0.7,1.5-1.2c0.4-0.5,0.7-1.1,0.9-1.7
	c0.2-0.6,0.3-1.3,0.3-2c0-0.7-0.1-1.4-0.3-2c-0.2-0.6-0.5-1.2-0.9-1.7c-0.4-0.5-0.9-0.9-1.5-1.2c-0.6-0.3-1.2-0.4-2-0.4
	c-0.7,0-1.4,0.1-2,0.4c-0.6,0.3-1.1,0.7-1.5,1.2c-0.4,0.5-0.7,1.1-0.9,1.7C81.4,81,81.3,81.6,81.3,82.3z"/>
<path d="M72.5,74.9h2.1c0.8,0,1.4,0.2,1.7,0.6c0.4,0.4,0.6,0.9,0.6,1.6c0,0.7-0.2,1.2-0.6,1.6c-0.4,0.4-1,0.7-1.8,0.7h-2V74.9z
	 M72.5,80.9H75c0.5,0,0.9,0.1,1.2,0.2c0.4,0.1,0.7,0.3,0.9,0.6c0.3,0.2,0.4,0.5,0.6,0.8c0.1,0.3,0.2,0.7,0.2,1
	c0,0.8-0.3,1.4-0.8,1.9c-0.6,0.5-1.3,0.7-2.1,0.7h-2.5V80.9z M70.7,86.7c0,0.3,0.1,0.5,0.2,0.7c0.1,0.2,0.4,0.3,0.7,0.3H75
	c0.7,0,1.4-0.1,2-0.3c0.6-0.2,1.1-0.5,1.5-0.9c0.4-0.4,0.7-0.8,0.9-1.3c0.2-0.5,0.3-1,0.3-1.6c0-0.5-0.1-0.9-0.2-1.3
	c-0.2-0.4-0.4-0.8-0.7-1.1c-0.3-0.3-0.6-0.6-1-0.8c-0.4-0.2-0.8-0.3-1.2-0.4v0c0.6-0.2,1.1-0.6,1.4-1.1c0.4-0.6,0.6-1.2,0.6-2
	c0-0.4-0.1-0.8-0.3-1.2c-0.2-0.4-0.4-0.8-0.7-1.1c-0.3-0.3-0.7-0.6-1.2-0.8c-0.5-0.2-1-0.3-1.7-0.3h-3.1c-0.3,0-0.6,0.1-0.7,0.3
	c-0.1,0.2-0.2,0.4-0.2,0.7V86.7z"/>
<path d="M52.6,84.7L52.6,84.7L49,74.5c-0.1-0.3-0.2-0.6-0.4-0.8c-0.1-0.2-0.4-0.3-0.7-0.3c-0.2,0-0.4,0.1-0.6,0.2
	c-0.1,0.1-0.2,0.3-0.2,0.5c0,0.2,0,0.4,0.1,0.7l4.3,11.9c0.1,0.3,0.2,0.5,0.4,0.7c0.1,0.2,0.4,0.3,0.7,0.3c0.3,0,0.5-0.1,0.7-0.3
	c0.1-0.2,0.3-0.4,0.4-0.7l4.3-11.9c0.1-0.2,0.1-0.5,0.1-0.7c0-0.2-0.1-0.3-0.2-0.5c-0.1-0.1-0.3-0.2-0.6-0.2c-0.3,0-0.6,0.1-0.7,0.3
	c-0.1,0.2-0.3,0.5-0.4,0.8L52.6,84.7z"/>
<path d="M60.5,87.6c-0.5,0-0.9-0.4-0.9-0.9c0-0.5,0.4-0.9,0.9-0.9h6.1c0.5,0,0.9,0.4,0.9,0.9c0,0.5-0.4,0.9-0.9,0.9H60.5z"/>
<path d="M82.9,75.1c-0.5,0-0.9-0.4-0.9-0.9c0-0.5,0.4-0.9,0.9-0.9H89c0.5,0,0.9,0.4,0.9,0.9c0,0.5-0.4,0.9-0.9,0.9H82.9z"/>
<path d="M60.6,78.7c0-0.4,0.1-0.9,0.2-1.3c0.1-0.4,0.3-0.9,0.5-1.2c0.2-0.4,0.5-0.7,0.9-0.9c0.4-0.2,0.8-0.4,1.4-0.4
	c0.5,0,1,0.1,1.4,0.4c0.4,0.2,0.7,0.5,0.9,0.9c0.2,0.4,0.4,0.8,0.5,1.2c0.1,0.4,0.1,0.9,0.1,1.3s0,0.9-0.1,1.3
	c-0.1,0.4-0.3,0.9-0.5,1.2c-0.2,0.4-0.5,0.7-0.9,0.9c-0.4,0.2-0.8,0.4-1.4,0.4c-0.5,0-1-0.1-1.4-0.4c-0.4-0.2-0.7-0.5-0.9-0.9
	c-0.2-0.4-0.4-0.8-0.5-1.2C60.7,79.6,60.6,79.1,60.6,78.7 M58.9,78.7c0,0.7,0.1,1.4,0.3,2c0.2,0.6,0.5,1.2,0.9,1.7
	c0.4,0.5,0.9,0.9,1.5,1.2c0.6,0.3,1.2,0.4,2,0.4c0.7,0,1.4-0.1,2-0.4c0.6-0.3,1.1-0.7,1.5-1.2c0.4-0.5,0.7-1.1,0.9-1.7
	c0.2-0.6,0.3-1.3,0.3-2s-0.1-1.4-0.3-2c-0.2-0.6-0.5-1.2-0.9-1.7c-0.4-0.5-0.9-0.9-1.5-1.2c-0.6-0.3-1.2-0.4-2-0.4
	c-0.7,0-1.4,0.1-2,0.4c-0.6,0.3-1.1,0.7-1.5,1.2c-0.4,0.5-0.7,1.1-0.9,1.7C59,77.3,58.9,78,58.9,78.7z"/>
<path d="M66.5,74.2c0-0.5,0.4-0.9,0.9-0.9c0.5,0,0.9,0.4,0.9,0.9v6.1c0,0.5-0.4,0.9-0.9,0.9c-0.5,0-0.9-0.4-0.9-0.9V74.2z"/>
<path d="M66.5,77.1c0-0.5,0.4-0.9,0.9-0.9c0.5,0,0.9,0.4,0.9,0.9v6.1c0,0.5-0.4,0.9-0.9,0.9c-0.5,0-0.9-0.4-0.9-0.9V77.1z"/>
<path class="st0" d="M68.9,31.9c11.5,0,20.9,9.1,20.9,20.4c0,3.6-0.9,6.9-2.6,9.9c-1.7,0.3-4.3,0.6-7.4,0.8c0.5-1.8,0.8-3.7,0.8-5.7
	c0-8.6-5.2-15.5-11.7-15.5c-6.5,0-11.7,6.9-11.7,15.5c0,2,0.3,4,0.8,5.7c-3.1-0.2-5.6-0.5-7.4-0.8C49,59.3,48,55.9,48,52.3
	C48,41.1,57.4,31.9,68.9,31.9"/>
<g>
	<defs>
		<path id="SVGID_00000125575849241407779530000001587792871522456503_" d="M68.9,31.9c11.5,0,20.9,9.1,20.9,20.4
			c0,3.6-0.9,6.9-2.6,9.9c-1.7,0.3-4.3,0.6-7.4,0.8c0.5-1.8,0.8-3.7,0.8-5.7c0-8.6-5.2-15.5-11.7-15.5c-6.5,0-11.7,6.9-11.7,15.5
			c0,2,0.3,4,0.8,5.7c-3.1-0.2-5.6-0.5-7.4-0.8C49,59.3,48,55.9,48,52.3C48,41.1,57.4,31.9,68.9,31.9"/>
	</defs>
	<clipPath id="SVGID_00000034068291398455332770000010786275130593812145_">
		<use xlink:href="#SVGID_00000125575849241407779530000001587792871522456503_"  style="overflow:visible;"/>
	</clipPath>
	
		<path style="clip-path:url(#SVGID_00000034068291398455332770000010786275130593812145_);fill-rule:evenodd;clip-rule:evenodd;fill:#F9D2E5;" d="
		M67.1,32.7c11.5,0,20.9,9.1,20.9,20.4c0,3.6-0.9,6.9-2.6,9.9c-1.7,0.3-4.3,0.6-7.4,0.8c0.5-1.8,0.8-3.7,0.8-5.7
		c0-8.6-5.2-15.5-11.7-15.5c-6.5,0-2.9,10.3-2.9,15.6c0,5.3-0.4,4.4,0.2,6.2c-3.1-0.2-13.8-0.9-15.6-1.3c-1.6-2.9-2.6-6.3-2.6-9.9
		C46.2,41.9,55.6,32.7,67.1,32.7"/>
</g>
<path d="M83.2,38.3c-3.7-3.6-8.7-5.8-14.3-5.8c-5.6,0-10.7,2.2-14.3,5.8c-3.7,3.6-5.9,8.6-5.9,14c0,1.7,0.2,3.4,0.6,5
	c0.4,1.5,1,3,1.7,4.4c0.8,0.1,1.8,0.3,2.9,0.4c1,0.1,2.1,0.2,3.3,0.3c-0.2-0.7-0.3-1.4-0.4-2.1c-0.1-1-0.2-2-0.2-3
	c0-4.4,1.4-8.4,3.6-11.3c2.2-3,5.3-4.8,8.8-4.8c3.4,0,6.5,1.8,8.8,4.8c2.2,2.9,3.6,6.9,3.6,11.3c0,1-0.1,2-0.2,3
	c-0.1,0.7-0.2,1.4-0.4,2.1c1.2-0.1,2.3-0.2,3.3-0.3c1.1-0.1,2.1-0.3,2.9-0.4c0.7-1.4,1.3-2.8,1.7-4.4c0.4-1.6,0.6-3.2,0.6-5
	C89.1,46.9,86.9,41.9,83.2,38.3 M68.9,31.3c5.9,0,11.3,2.4,15.2,6.2c3.9,3.8,6.3,9.1,6.3,14.9c0,1.8-0.2,3.6-0.7,5.2
	c-0.5,1.7-1.1,3.4-2,4.9c-0.1,0.2-0.2,0.3-0.4,0.3v0c-0.9,0.2-2,0.3-3.2,0.5c-1.3,0.1-2.7,0.3-4.2,0.4c-0.3,0-0.6-0.2-0.6-0.6
	c0-0.1,0-0.1,0-0.2c0.3-0.9,0.5-1.8,0.6-2.7c0.1-0.9,0.2-1.9,0.2-2.8c0-4.2-1.3-7.9-3.3-10.6c-2-2.7-4.8-4.3-7.8-4.3
	c-3,0-5.8,1.6-7.8,4.3c-2,2.7-3.3,6.5-3.3,10.6c0,1,0.1,1.9,0.2,2.8c0.1,0.9,0.3,1.9,0.6,2.7c0.1,0.3-0.1,0.6-0.4,0.7
	c-0.1,0-0.2,0-0.2,0c-1.5-0.1-3-0.2-4.2-0.4c-1.3-0.1-2.3-0.3-3.2-0.5c-0.2,0-0.3-0.2-0.4-0.3c-0.9-1.5-1.5-3.2-2-4.9
	c-0.4-1.7-0.7-3.4-0.7-5.2c0-5.8,2.4-11.1,6.3-14.9C57.6,33.7,63,31.3,68.9,31.3z"/>
<path class="st9" d="M68.9,31.9c-1.4,0.6-3.7,0.6-6-0.1c-2.3-0.8-4.1-2.1-4.9-3.4c1.4-0.6,3.7-0.6,6,0.1
	C66.3,29.2,68.1,30.6,68.9,31.9"/>
<path d="M66.2,31.8c0.7,0,1.2,0,1.8-0.2c-0.3-0.4-0.8-0.8-1.3-1.2c-0.8-0.5-1.8-1-2.8-1.4c-1.1-0.4-2.2-0.5-3.1-0.6
	c-0.7,0-1.2,0-1.8,0.2c0.3,0.4,0.8,0.8,1.3,1.2c0.8,0.5,1.8,1,2.8,1.4C64.2,31.6,65.2,31.8,66.2,31.8 M69.1,32.4
	c-0.8,0.4-1.8,0.5-3,0.5c-1.1,0-2.3-0.2-3.5-0.6c-1.2-0.4-2.3-0.9-3.2-1.5c-0.9-0.7-1.7-1.4-2.1-2.2l-0.3-0.6l0.6-0.3
	c0.8-0.4,1.8-0.5,3-0.5c1.1,0,2.3,0.2,3.5,0.6c1.2,0.4,2.3,0.9,3.2,1.5c0.9,0.7,1.7,1.4,2.1,2.2l0.3,0.6L69.1,32.4z"/>
<path class="st9" d="M77.4,24.2c-0.2,1.5-1.3,3.5-3.1,5.1c-1.8,1.6-3.9,2.5-5.4,2.5c0.2-1.5,1.3-3.5,3.1-5.1
	C73.8,25.1,75.9,24.2,77.4,24.2"/>
<path d="M76,26.5c0.3-0.6,0.6-1.1,0.7-1.6c-0.5,0.1-1.1,0.3-1.7,0.6c-0.9,0.4-1.8,1-2.6,1.8c-0.9,0.8-1.5,1.6-2,2.4
	c-0.3,0.6-0.6,1.1-0.7,1.6c0.5-0.1,1.1-0.3,1.7-0.6c0.9-0.4,1.8-1,2.6-1.8C74.8,28.2,75.5,27.3,76,26.5 M78,24.3
	c-0.1,0.9-0.5,1.8-1,2.8c-0.6,0.9-1.3,1.8-2.3,2.7c-0.9,0.8-1.9,1.5-2.9,2c-1,0.5-2,0.7-2.9,0.7l-0.7,0l0.1-0.6
	c0.1-0.9,0.5-1.8,1-2.8c0.6-0.9,1.3-1.8,2.3-2.7c0.9-0.8,1.9-1.5,2.9-2c1-0.5,2-0.7,2.9-0.7l0.7,0L78,24.3z"/>
<path d="M112.6,41c0.1,0.3,0.3,0.5,0.5,0.7c0.2,0.2,0.4,0.4,0.6,0.5c0.2,0.1,0.5,0.2,0.8,0.2c0.3,0,0.5-0.1,0.8-0.2
	c0.3-0.1,0.5-0.3,0.7-0.5c0.1-0.2,0.2-0.5,0.3-0.7c0-0.3,0.1-0.5,0-0.8c0-0.3,0-0.6,0-0.8c0-0.3,0.1-0.5,0.1-0.7
	c0.1-0.2,0.2-0.3,0.4-0.4c0.1,0,0.3-0.1,0.4-0.1c0.1,0,0.3,0,0.4,0.1c0.1,0.1,0.2,0.2,0.3,0.3c0.1,0.1,0.2,0.3,0.2,0.4
	c0.1,0.2,0.1,0.3,0.1,0.4c0,0.1,0,0.2,0,0.4c0,0.1,0,0.2-0.1,0.3c0,0.1,0,0.2,0,0.3c0,0.1,0.1,0.1,0.2,0.1c0.1,0,0.2,0,0.3,0
	c0.1,0,0.1-0.1,0.2-0.2c0-0.1,0.1-0.2,0.1-0.4c0-0.2,0-0.3,0-0.5c0-0.2-0.1-0.4-0.1-0.5c-0.1-0.2-0.2-0.4-0.4-0.6
	c-0.2-0.2-0.3-0.3-0.5-0.4c-0.2-0.1-0.4-0.2-0.6-0.2c-0.2,0-0.5,0-0.7,0.1c-0.3,0.1-0.5,0.3-0.6,0.5c-0.1,0.2-0.2,0.5-0.2,0.7
	c0,0.3,0,0.5,0,0.8c0,0.3,0,0.5,0,0.8c0,0.3-0.1,0.5-0.1,0.7c-0.1,0.2-0.3,0.3-0.5,0.4c-0.2,0.1-0.3,0.1-0.5,0.1
	c-0.2,0-0.4,0-0.5-0.1c-0.2-0.1-0.3-0.2-0.5-0.3c-0.1-0.1-0.3-0.3-0.3-0.5c0-0.1-0.1-0.2-0.1-0.3c0-0.1,0-0.2,0-0.3
	c0-0.1,0-0.2,0-0.3c0-0.1,0-0.1,0-0.2c0,0,0-0.1,0-0.2c0-0.1,0-0.1,0-0.2c0-0.1-0.1-0.1-0.2-0.2c-0.1,0-0.2,0-0.2,0
	c-0.1,0-0.2,0.1-0.2,0.2c-0.1,0.1-0.1,0.3-0.1,0.4c0,0.2,0,0.4,0,0.6C112.4,40.5,112.5,40.8,112.6,41 M112.7,34.3l0.8,1.6
	c0,0.1,0.1,0.2,0.2,0.2c0.1,0,0.2,0,0.2,0c0.1,0,0.1-0.1,0.1-0.2c0-0.1,0-0.2,0-0.3l-0.8-1.6l2.1-1.1l0.9,1.7c0,0.1,0.1,0.2,0.2,0.2
	c0.1,0,0.2,0,0.2,0c0.1,0,0.1-0.1,0.1-0.2c0-0.1,0-0.2,0-0.3l-1-1.9c-0.1-0.1-0.1-0.2-0.2-0.2c-0.1,0-0.2,0-0.3,0l-5.2,2.7
	c-0.1,0.1-0.2,0.1-0.2,0.2c0,0.1,0,0.2,0.1,0.3l1,2c0,0.1,0.1,0.2,0.2,0.2c0.1,0,0.2,0,0.2,0c0.1,0,0.1-0.1,0.1-0.2
	c0-0.1,0-0.2,0-0.3l-0.9-1.8L112.7,34.3z M109.3,28.6l-0.6,4.3c0,0.1,0,0.2,0,0.2c0,0.1,0,0.1,0.1,0.2c0.1,0.1,0.1,0.1,0.2,0.1
	c0.1,0,0.1,0,0.2,0c0,0,0.1-0.1,0.1-0.1c0,0,0-0.1,0.1-0.2l0.6-4.2l3.7,0.9c0.1,0,0.1,0,0.2,0c0,0,0.1,0,0.1-0.1
	c0.1,0,0.1-0.1,0.1-0.2c0-0.1,0-0.1-0.1-0.2c0-0.1-0.1-0.1-0.2-0.1c-0.1,0-0.1-0.1-0.2-0.1l-3.8-0.9l2-1.4c0.2-0.2,0.3-0.3,0.1-0.5
	c-0.1-0.2-0.3-0.2-0.5,0l-4.7,3.3c-0.2,0.2-0.3,0.3-0.1,0.5c0.1,0.2,0.3,0.2,0.5,0L109.3,28.6z M105.8,26l-1.9-1.9l3.6-1.6l0,0
	L105.8,26z M103.3,24.3l2.2,2.3l-0.5,1.1c0,0.1-0.1,0.2-0.1,0.2c0,0.1,0,0.2,0.1,0.2c0.1,0.1,0.1,0.1,0.2,0.1c0.1,0,0.1,0,0.2-0.1
	c0.1-0.1,0.1-0.1,0.2-0.2l2.6-5.3c0-0.1,0.1-0.1,0.1-0.2c0-0.1,0-0.1,0-0.2c0-0.1,0-0.1,0-0.2c0-0.1-0.1-0.1-0.1-0.2
	c-0.1-0.1-0.1-0.1-0.2-0.1c-0.1,0-0.1,0-0.2,0c-0.1,0-0.1,0-0.2,0c-0.1,0-0.1,0-0.2,0.1l-5.5,2.3c-0.1,0-0.2,0.1-0.2,0.1
	c0,0-0.1,0.1-0.1,0.2c0,0.1,0,0.1,0.1,0.2c0.1,0.1,0.2,0.1,0.2,0.1c0.1,0,0.1,0,0.2,0L103.3,24.3z M103,17c-0.4-0.3-0.8-0.5-1.2-0.5
	c-0.4-0.1-0.8-0.1-1.2,0c-0.4,0.1-0.7,0.3-1.1,0.5c-0.3,0.2-0.6,0.5-0.9,0.9c-0.3,0.3-0.5,0.7-0.6,1.1c-0.1,0.4-0.2,0.7-0.2,1.1
	c0,0.4,0.1,0.7,0.3,1.1c0.2,0.4,0.5,0.7,0.9,1c0.2,0.2,0.5,0.3,0.7,0.4c0.2,0.1,0.5,0.2,0.7,0.2c0.2,0,0.4,0,0.5,0
	c0.1,0,0.2-0.1,0.3-0.1c0.1-0.1,0.1-0.2,0.1-0.2c0-0.1,0-0.1-0.1-0.2c0,0-0.1-0.1-0.2-0.1c-0.1,0-0.2,0-0.4,0
	c-0.2,0-0.3-0.1-0.5-0.1c-0.2-0.1-0.4-0.2-0.6-0.4c-0.3-0.2-0.5-0.5-0.7-0.8c-0.1-0.3-0.2-0.6-0.2-0.9c0-0.3,0.1-0.6,0.2-0.9
	c0.1-0.3,0.3-0.6,0.5-0.8c0.2-0.3,0.4-0.5,0.7-0.7c0.3-0.2,0.6-0.4,0.9-0.4c0.3-0.1,0.6-0.1,0.9-0.1c0.3,0,0.6,0.2,0.9,0.4
	c0.2,0.2,0.4,0.3,0.5,0.5c0.1,0.2,0.2,0.3,0.2,0.5c0,0.1,0.1,0.3,0.1,0.4c0,0.1,0.1,0.2,0.1,0.2c0.1,0,0.1,0.1,0.2,0.1
	c0.1,0,0.2-0.1,0.2-0.1c0-0.1,0.1-0.2,0.1-0.3c0-0.2-0.1-0.3-0.1-0.5c-0.1-0.2-0.2-0.4-0.3-0.6C103.4,17.4,103.2,17.2,103,17z
	 M90.7,13.3l1.6,0.8c0.1,0,0.2,0.1,0.3,0c0.1,0,0.1-0.1,0.2-0.1c0-0.1,0-0.2,0-0.2c0-0.1-0.1-0.1-0.2-0.2L91,12.8l1.1-2.1l1.7,0.9
	c0.1,0,0.2,0.1,0.3,0c0.1,0,0.1-0.1,0.2-0.1c0-0.1,0-0.2,0-0.2c0-0.1-0.1-0.1-0.2-0.2l-1.9-1c-0.1-0.1-0.2-0.1-0.3-0.1
	c-0.1,0-0.1,0.1-0.2,0.2l-2.7,5.2c-0.1,0.1-0.1,0.2,0,0.3c0,0.1,0.1,0.2,0.2,0.2l2,1c0.1,0,0.2,0.1,0.3,0c0.1,0,0.1-0.1,0.2-0.1
	c0-0.1,0-0.2,0-0.2c0-0.1-0.1-0.1-0.2-0.2l-1.8-0.9L90.7,13.3z M85.1,14.1c0.3,0.1,0.6,0.2,0.9,0.2c0.3,0,0.5-0.1,0.8-0.2
	c0.2-0.1,0.4-0.3,0.6-0.4c0.2-0.2,0.3-0.4,0.4-0.7c0.1-0.3,0.2-0.6,0.1-0.9c-0.1-0.3-0.2-0.5-0.3-0.7c-0.2-0.2-0.4-0.4-0.6-0.6
	c-0.2-0.2-0.4-0.4-0.6-0.5c-0.2-0.2-0.3-0.4-0.4-0.5c-0.1-0.2-0.1-0.4,0-0.6C86,9,86,8.9,86.1,8.8c0.1-0.1,0.2-0.2,0.3-0.2
	c0.1,0,0.3-0.1,0.4-0.1c0.2,0,0.3,0,0.5,0.1c0.2,0.1,0.3,0.1,0.4,0.2C87.9,9,87.9,9.1,88,9.2c0.1,0.1,0.1,0.2,0.2,0.2
	c0.1,0.1,0.1,0.1,0.2,0.2c0.1,0,0.1,0,0.2,0c0.1,0,0.1-0.1,0.2-0.2c0-0.1,0-0.2,0-0.3c-0.1-0.1-0.1-0.2-0.2-0.3
	c-0.1-0.1-0.2-0.2-0.4-0.3c-0.1-0.1-0.3-0.2-0.5-0.3C87.4,8,87.2,8,86.9,8c-0.2,0-0.5,0-0.7,0.1c-0.2,0.1-0.4,0.2-0.6,0.3
	c-0.2,0.2-0.3,0.3-0.4,0.6c-0.1,0.3-0.1,0.6-0.1,0.8c0.1,0.2,0.2,0.5,0.4,0.7c0.2,0.2,0.4,0.4,0.6,0.6c0.2,0.2,0.4,0.4,0.6,0.5
	c0.2,0.2,0.3,0.4,0.4,0.6c0.1,0.2,0.1,0.4,0,0.7c-0.1,0.2-0.2,0.3-0.3,0.4c-0.1,0.1-0.3,0.2-0.4,0.3c-0.2,0.1-0.4,0.1-0.6,0.1
	c-0.2,0-0.4,0-0.6-0.1c-0.1,0-0.2-0.1-0.3-0.2c-0.1-0.1-0.2-0.1-0.3-0.2c-0.1-0.1-0.1-0.1-0.2-0.2c-0.1-0.1-0.1-0.1-0.1-0.1
	c0,0-0.1-0.1-0.1-0.2c0-0.1-0.1-0.1-0.1-0.1c-0.1,0-0.2,0-0.2,0c-0.1,0-0.1,0.1-0.2,0.2c0,0.1,0,0.2,0,0.3c0,0.1,0.1,0.2,0.2,0.4
	c0.1,0.1,0.3,0.3,0.5,0.4C84.6,13.9,84.8,14,85.1,14.1z M79.9,12.6c0.3,0.1,0.6,0.1,0.9,0c0.3,0,0.5-0.1,0.7-0.3
	c0.2-0.1,0.4-0.3,0.6-0.5c0.2-0.2,0.3-0.5,0.3-0.8c0.1-0.3,0.1-0.6,0-0.9c-0.1-0.2-0.2-0.5-0.4-0.6c-0.2-0.2-0.4-0.3-0.7-0.5
	c-0.2-0.1-0.5-0.3-0.7-0.4c-0.2-0.1-0.4-0.3-0.5-0.5C80,8,80,7.8,80,7.6c0-0.1,0.1-0.2,0.2-0.4c0.1-0.1,0.2-0.2,0.3-0.3
	c0.1-0.1,0.3-0.1,0.4-0.1c0.2,0,0.3,0,0.5,0c0.2,0,0.3,0.1,0.4,0.2C82,7.1,82,7.2,82.1,7.2c0.1,0.1,0.1,0.1,0.2,0.2
	c0.1,0.1,0.1,0.1,0.2,0.1c0.1,0,0.1,0,0.2-0.1c0.1,0,0.1-0.1,0.1-0.2c0-0.1,0-0.2-0.1-0.3c-0.1-0.1-0.2-0.2-0.3-0.3
	c-0.1-0.1-0.3-0.2-0.4-0.3c-0.2-0.1-0.3-0.1-0.5-0.2c-0.2,0-0.5-0.1-0.7,0c-0.2,0-0.5,0.1-0.7,0.2c-0.2,0.1-0.4,0.2-0.5,0.4
	c-0.1,0.2-0.2,0.4-0.3,0.6c-0.1,0.3-0.1,0.6,0,0.8c0.1,0.2,0.3,0.4,0.4,0.6c0.2,0.2,0.4,0.3,0.7,0.5c0.2,0.1,0.5,0.3,0.7,0.4
	c0.2,0.2,0.4,0.3,0.5,0.5c0.1,0.2,0.1,0.4,0.1,0.7c0,0.2-0.1,0.3-0.2,0.5c-0.1,0.1-0.2,0.3-0.4,0.4C81,11.9,80.8,12,80.6,12
	c-0.2,0-0.4,0-0.6,0c-0.1,0-0.2-0.1-0.3-0.1c-0.1-0.1-0.2-0.1-0.3-0.2c-0.1-0.1-0.2-0.1-0.2-0.2c-0.1-0.1-0.1-0.1-0.1-0.1
	c0,0-0.1-0.1-0.1-0.1c-0.1-0.1-0.1-0.1-0.1-0.1c-0.1,0-0.2,0-0.2,0c-0.1,0-0.1,0.1-0.1,0.2c0,0.1,0,0.2,0.1,0.3
	c0.1,0.1,0.2,0.2,0.3,0.3c0.1,0.1,0.3,0.2,0.5,0.3C79.4,12.4,79.7,12.5,79.9,12.6z M71.7,9c0,0.4,0,0.7,0.1,1
	c0.1,0.3,0.3,0.5,0.5,0.8c0.2,0.2,0.4,0.4,0.7,0.5c0.3,0.1,0.6,0.2,0.9,0.3c0.3,0,0.6,0,0.9,0c0.3-0.1,0.6-0.2,0.8-0.3
	c0.2-0.2,0.5-0.4,0.6-0.6c0.2-0.3,0.3-0.6,0.3-0.9l0.5-3.9c0-0.3-0.1-0.4-0.3-0.5c-0.2,0-0.3,0.1-0.4,0.4L76,9.4
	c0,0.3-0.1,0.5-0.2,0.7c-0.1,0.2-0.3,0.4-0.5,0.5c-0.2,0.1-0.4,0.2-0.6,0.2c-0.2,0-0.4,0-0.7,0c-0.2,0-0.4-0.1-0.6-0.2
	c-0.2-0.1-0.4-0.2-0.5-0.4c-0.1-0.2-0.3-0.4-0.3-0.6c-0.1-0.2-0.1-0.5-0.1-0.8l0.5-3.8c0-0.3-0.1-0.4-0.3-0.5
	c-0.2,0-0.3,0.1-0.4,0.4L71.7,9z M66.6,10.7c-0.4,0-0.7-0.1-1-0.2c-0.3-0.2-0.5-0.4-0.6-0.6c-0.2-0.3-0.3-0.5-0.4-0.8
	c-0.1-0.3-0.1-0.6-0.1-0.9c0-0.3,0-0.6,0.1-0.9c0.1-0.3,0.2-0.6,0.3-0.9c0.2-0.3,0.4-0.5,0.6-0.7c0.3-0.2,0.6-0.3,1-0.3
	c0.4,0,0.7,0.1,1,0.2c0.3,0.2,0.5,0.4,0.6,0.6c0.2,0.3,0.3,0.5,0.4,0.8c0.1,0.3,0.1,0.6,0.1,0.9c0,0.3,0,0.6-0.1,0.9
	c-0.1,0.3-0.2,0.6-0.3,0.9c-0.2,0.3-0.4,0.5-0.6,0.6C67.3,10.6,67,10.7,66.6,10.7z M63.7,8.1c0,0.4,0.1,0.8,0.2,1.2
	c0.1,0.4,0.3,0.7,0.5,1c0.2,0.3,0.5,0.5,0.9,0.7c0.4,0.2,0.8,0.3,1.2,0.2c0.5,0,0.9-0.1,1.2-0.3c0.3-0.2,0.6-0.4,0.8-0.8
	c0.2-0.3,0.4-0.7,0.5-1.1c0.1-0.4,0.2-0.8,0.1-1.2c0-0.4-0.1-0.8-0.2-1.2c-0.1-0.4-0.3-0.7-0.5-1C68.3,5.5,68,5.2,67.6,5
	c-0.4-0.2-0.8-0.3-1.2-0.2c-0.5,0-0.9,0.1-1.2,0.3c-0.3,0.2-0.6,0.4-0.8,0.8c-0.2,0.3-0.4,0.7-0.5,1.1C63.8,7.3,63.7,7.7,63.7,8.1z
	 M58.3,11.3L58.3,11.3l-2.6-4.5c-0.1-0.3-0.3-0.4-0.6-0.3c-0.1,0-0.1,0-0.2,0.1c-0.1,0-0.1,0.1-0.2,0.1c-0.1,0-0.1,0.1-0.1,0.2
	c0,0.1,0,0.2,0,0.3l0.4,5.2c0,0,0,0.1,0,0.2c0,0.1,0,0.1,0,0.2c0,0.1,0,0.1,0,0.2c0,0,0,0.1,0,0.1c0,0.1,0.1,0.2,0.2,0.2
	c0.1,0,0.1,0,0.2,0c0.1,0,0.2-0.1,0.2-0.2c0-0.1,0-0.2,0-0.3l-0.4-5.5l0,0l2.9,5c0.1,0.1,0.1,0.2,0.2,0.2c0.1,0,0.1,0.1,0.2,0
	c0.1,0,0.2-0.1,0.2-0.1c0-0.1,0.1-0.2,0.1-0.4l0.4-5.6l0,0l2,5.1c0,0.1,0.1,0.2,0.2,0.3c0.1,0.1,0.1,0.1,0.3,0
	c0.1,0,0.1-0.1,0.2-0.1c0.1-0.1,0.1-0.1,0-0.3c0,0,0,0,0-0.1c0,0,0-0.1-0.1-0.2c0-0.1,0-0.1-0.1-0.2c0-0.1,0-0.1-0.1-0.1l-1.9-4.8
	c0-0.1-0.1-0.2-0.1-0.2c-0.1-0.1-0.1-0.1-0.2-0.1c-0.1,0-0.1,0-0.2,0c-0.1,0-0.1,0-0.2,0c-0.1,0-0.2,0.1-0.3,0.2
	c-0.1,0.1-0.1,0.2-0.1,0.3L58.3,11.3z M43,12.7L43,12.7l5.5,2.9c0.1,0,0.2,0.1,0.2,0.1c0.1,0,0.1,0,0.2,0c0.1,0,0.1-0.1,0.2-0.2
	c0-0.1,0-0.2-0.1-0.3l-2.6-5.1c-0.1-0.2-0.3-0.3-0.5-0.2c-0.2,0.1-0.2,0.3-0.1,0.5l2.2,4.3l0,0l-5.4-2.9c-0.1,0-0.1-0.1-0.2-0.1
	c-0.1,0-0.1,0-0.2,0c-0.1,0-0.1,0.1-0.2,0.2c0,0.1,0,0.2,0,0.3l2.6,5.1c0.1,0.2,0.3,0.3,0.5,0.2c0.2-0.1,0.2-0.3,0.1-0.5L43,12.7z
	 M41,17.9l-2.2,1.6l-1-3.8l0,0L41,17.9z M39,20.2l2.6-1.9l1,0.7c0.1,0,0.1,0.1,0.2,0.1c0.1,0,0.2,0,0.3-0.1c0.1-0.1,0.1-0.1,0.1-0.2
	c0-0.1,0-0.1,0-0.2c0-0.1-0.1-0.1-0.2-0.2L38,15.1c0,0-0.1-0.1-0.2-0.1c-0.1,0-0.1-0.1-0.2-0.1c-0.1,0-0.1,0-0.2,0
	c-0.1,0-0.1,0-0.2,0.1c-0.1,0-0.1,0.1-0.1,0.2c0,0.1,0,0.1-0.1,0.2c0,0.1,0,0.1,0,0.2c0,0.1,0,0.1,0,0.2l1.5,5.7
	c0,0.1,0.1,0.2,0.1,0.3c0,0.1,0.1,0.1,0.2,0.1c0.1,0,0.1,0,0.2-0.1c0.1-0.1,0.1-0.1,0.1-0.2c0-0.1,0-0.1,0-0.2L39,20.2z M36.4,24.4
	c0.2-0.2,0.4-0.4,0.5-0.7c0.1-0.3,0.2-0.5,0.2-0.8c0-0.3,0-0.5-0.1-0.8c-0.1-0.2-0.3-0.5-0.5-0.7c-0.2-0.2-0.5-0.4-0.7-0.4
	c-0.3,0-0.5,0-0.8,0c-0.3,0.1-0.5,0.2-0.8,0.3c-0.3,0.1-0.5,0.2-0.7,0.3c-0.2,0.1-0.5,0.1-0.7,0.1c-0.2,0-0.4-0.1-0.6-0.2
	c-0.1-0.1-0.2-0.2-0.2-0.3c0-0.1-0.1-0.3,0-0.4c0-0.1,0.1-0.3,0.1-0.4c0.1-0.1,0.2-0.3,0.3-0.4c0.1-0.1,0.3-0.2,0.4-0.3
	c0.1,0,0.2-0.1,0.3-0.1c0.1,0,0.2,0,0.3-0.1c0.1,0,0.2-0.1,0.2-0.1c0,0,0.1-0.1,0.1-0.2c0-0.1,0-0.2-0.1-0.2
	c-0.1-0.1-0.1-0.1-0.3-0.1c-0.1,0-0.3,0-0.4,0.1c-0.2,0-0.3,0.1-0.5,0.2c-0.2,0.1-0.3,0.2-0.4,0.3c-0.2,0.2-0.3,0.4-0.4,0.6
	c-0.1,0.2-0.2,0.4-0.2,0.6c0,0.2,0,0.4,0,0.7c0.1,0.2,0.2,0.4,0.4,0.6c0.2,0.2,0.5,0.4,0.7,0.4c0.2,0,0.5,0,0.8,0
	c0.3-0.1,0.5-0.2,0.8-0.3c0.3-0.1,0.5-0.2,0.7-0.3c0.2-0.1,0.5-0.1,0.7-0.1c0.2,0,0.4,0.1,0.6,0.3c0.1,0.1,0.2,0.3,0.3,0.4
	c0.1,0.2,0.1,0.3,0.1,0.5c0,0.2,0,0.4-0.1,0.6c-0.1,0.2-0.2,0.4-0.4,0.5c-0.1,0.1-0.2,0.2-0.3,0.2c-0.1,0.1-0.2,0.1-0.3,0.2
	c-0.1,0-0.2,0.1-0.3,0.1c-0.1,0-0.1,0-0.2,0c0,0-0.1,0-0.2,0c-0.1,0-0.1,0-0.2,0.1c-0.1,0.1-0.1,0.1-0.1,0.2c0,0.1,0,0.2,0.1,0.2
	c0.1,0.1,0.2,0.1,0.3,0.1c0.1,0,0.3,0,0.4-0.1c0.2-0.1,0.3-0.1,0.5-0.3C36,24.7,36.2,24.5,36.4,24.4z M29.2,23
	c-0.2-0.2-0.4-0.2-0.5,0c-0.1,0.2-0.1,0.3,0.1,0.5l4.3,3.7c0.2,0.2,0.4,0.2,0.5,0c0.1-0.2,0.1-0.3-0.1-0.5L29.2,23z M26.4,26.7
	l0.7-1c0.1-0.1,0.1-0.2,0.1-0.3c0-0.1,0-0.2-0.1-0.2c-0.1,0-0.1-0.1-0.2,0c-0.1,0-0.2,0.1-0.2,0.2l-1.9,2.6
	c-0.1,0.1-0.1,0.2-0.1,0.3c0,0.1,0,0.2,0.1,0.2c0.1,0,0.1,0.1,0.2,0c0.1,0,0.2-0.1,0.2-0.2l0.7-1l4.5,3.2c0.2,0.2,0.4,0.2,0.5,0
	c0.1-0.2,0.1-0.3-0.1-0.5L26.4,26.7z M22.4,33l0.6-1c0.5-0.8,1-1,1.8-0.5c0.3,0.2,0.5,0.4,0.6,0.7c0.1,0.3,0,0.6-0.2,1l-0.6,1
	L22.4,33z M25,34.4l3.7-0.9c0.1,0,0.2-0.1,0.3-0.2c0-0.1,0-0.1,0-0.2c0-0.1-0.1-0.1-0.1-0.2c-0.1,0-0.1-0.1-0.1-0.1c0,0-0.1,0-0.2,0
	l-3.2,0.8l0.3-0.5c0.1-0.2,0.2-0.5,0.2-0.7c0-0.2,0-0.5-0.1-0.7c-0.1-0.2-0.2-0.4-0.3-0.6c-0.2-0.2-0.3-0.3-0.6-0.5
	c-0.2-0.1-0.4-0.2-0.6-0.2s-0.5,0-0.7,0c-0.2,0.1-0.4,0.2-0.6,0.3c-0.2,0.2-0.4,0.4-0.6,0.7l-0.7,1.2c-0.1,0.1-0.1,0.2-0.1,0.3
	c0,0.1,0.1,0.1,0.2,0.2l5,2.9c0.2,0.1,0.4,0.1,0.5-0.1c0.1-0.2,0-0.4-0.2-0.5L25,34.4z M24,38.6l-1,2.6l-2.9-2.6l0,0L24,38.6z
	 M23.5,41.6l1.1-3l1.2,0c0.1,0,0.2,0,0.2,0c0.1,0,0.1-0.1,0.2-0.2c0-0.1,0-0.2,0-0.2c0-0.1-0.1-0.1-0.1-0.1c-0.1,0-0.2,0-0.3,0
	l-5.9-0.1c-0.1,0-0.1,0-0.2,0c-0.1,0-0.1,0-0.2,0c-0.1,0-0.1,0-0.2,0.1c0,0-0.1,0.1-0.1,0.2c0,0.1,0,0.1,0,0.2c0,0.1,0,0.1,0.1,0.2
	c0,0.1,0.1,0.1,0.1,0.1c0,0,0.1,0.1,0.1,0.1l4.4,4c0.1,0.1,0.2,0.1,0.2,0.2c0.1,0,0.1,0,0.2,0c0.1,0,0.1-0.1,0.2-0.2
	c0-0.1,0-0.2,0-0.3c0-0.1-0.1-0.1-0.1-0.2L23.5,41.6z"/>
<path d="M115.7,78.1l0.7-1.7c0-0.1,0-0.2,0-0.3c0-0.1-0.1-0.1-0.2-0.2c-0.1,0-0.2,0-0.2,0c-0.1,0-0.1,0.1-0.2,0.2l-0.7,1.7l-2.2-0.9
	l0.7-1.8c0-0.1,0-0.2,0-0.3c0-0.1-0.1-0.1-0.2-0.2c-0.1,0-0.2,0-0.2,0c-0.1,0-0.1,0.1-0.2,0.2l-0.8,2c-0.1,0.1-0.1,0.2,0,0.3
	c0,0.1,0.1,0.1,0.2,0.2l5.4,2.2c0.1,0,0.2,0,0.3,0c0.1,0,0.1-0.1,0.2-0.3l0.8-2.1c0-0.1,0-0.2,0-0.3c0-0.1-0.1-0.1-0.2-0.2
	c-0.1,0-0.2,0-0.2,0c-0.1,0-0.1,0.1-0.2,0.2l-0.7,1.9L115.7,78.1z M114.7,84.3L114.7,84.3l-5.4-1c-0.2,0-0.3,0-0.4,0.1
	c-0.1,0.1-0.1,0.2,0,0.3c0,0.1,0.1,0.1,0.1,0.2c0.1,0,0.2,0.1,0.5,0.1l5.6,1c0.1,0,0.2,0,0.3,0c0.1,0,0.2-0.1,0.2-0.2
	c0.1-0.1,0.1-0.2,0-0.3c0-0.1-0.1-0.2-0.2-0.2l-3.7-4.4c-0.2-0.2-0.3-0.3-0.3-0.3c-0.1,0-0.2-0.1-0.2,0c-0.1,0-0.1,0.1-0.2,0.2
	c-0.1,0.1-0.1,0.3,0.1,0.4L114.7,84.3z M110.6,91.3c-0.2,0.3-0.5,0.5-0.8,0.6c-0.3,0.1-0.6,0.1-0.9,0.1c-0.3,0-0.6-0.1-0.9-0.2
	c-0.3-0.1-0.6-0.3-0.8-0.5c-0.2-0.2-0.5-0.4-0.7-0.6c-0.2-0.2-0.4-0.5-0.5-0.8c-0.1-0.3-0.1-0.6-0.1-0.9c0-0.3,0.2-0.6,0.4-0.9
	c0.2-0.3,0.5-0.5,0.8-0.6c0.3-0.1,0.6-0.1,0.9-0.1c0.3,0,0.6,0.1,0.9,0.2c0.3,0.1,0.6,0.3,0.8,0.5c0.2,0.2,0.5,0.4,0.7,0.6
	c0.2,0.2,0.4,0.5,0.5,0.8c0.1,0.3,0.1,0.6,0.1,0.9C110.9,90.7,110.8,91,110.6,91.3z M106.8,91.9c0.3,0.2,0.7,0.4,1.1,0.6
	c0.4,0.1,0.8,0.2,1.1,0.2c0.4,0,0.8-0.1,1.1-0.2c0.4-0.2,0.7-0.4,1-0.8c0.3-0.4,0.5-0.7,0.5-1.1c0.1-0.4,0-0.8-0.1-1.1
	c-0.1-0.4-0.3-0.7-0.5-1.1c-0.2-0.3-0.5-0.6-0.8-0.9c-0.3-0.3-0.7-0.4-1.1-0.6c-0.4-0.1-0.8-0.2-1.1-0.2c-0.4,0-0.8,0.1-1.1,0.2
	c-0.4,0.2-0.7,0.4-1,0.8c-0.3,0.4-0.5,0.7-0.5,1.1c-0.1,0.4,0,0.8,0.1,1.1c0.1,0.4,0.3,0.7,0.5,1.1
	C106.2,91.3,106.4,91.6,106.8,91.9z M101.5,93c-0.2-0.2-0.4-0.2-0.5-0.1c-0.2,0.2-0.1,0.3,0.1,0.5l4,4.2c0.1,0.1,0.1,0.1,0.2,0.1
	c0.1,0,0.2,0,0.2-0.1l1.5-1.4c0.1-0.1,0.1-0.2,0.1-0.2c0-0.1,0-0.2-0.1-0.2c-0.1-0.1-0.1-0.1-0.2-0.1c-0.1,0-0.2,0-0.2,0.1l-1.2,1.2
	L101.5,93z M93.7,102.6l3-1.9l1.4,2.2c0.1,0.2,0.3,0.3,0.5,0.2c0.2-0.1,0.2-0.3,0.1-0.5l-3.1-4.8c-0.1-0.2-0.3-0.3-0.5-0.2
	c-0.2,0.1-0.2,0.3-0.1,0.5l1.3,2.1l-3,1.9l-1.3-2.1c-0.1-0.2-0.3-0.3-0.5-0.2c-0.2,0.1-0.2,0.3-0.1,0.5l3.1,4.8
	c0.1,0.2,0.3,0.3,0.5,0.2c0.2-0.1,0.2-0.3,0.1-0.5L93.7,102.6z M88.1,102.1l1.2-0.5c0.1,0,0.2-0.1,0.2-0.2c0-0.1,0-0.2,0-0.2
	c0-0.1-0.1-0.1-0.2-0.2c-0.1,0-0.2,0-0.3,0l-2.9,1.3c-0.1,0-0.2,0.1-0.2,0.2c0,0.1,0,0.2,0,0.2c0,0.1,0.1,0.1,0.2,0.2
	c0.1,0,0.2,0,0.3,0l1.2-0.5l2.3,5c0.1,0.3,0.3,0.3,0.5,0.2c0.2-0.1,0.2-0.3,0.1-0.5L88.1,102.1z M83.5,103.6
	c-0.1-0.3-0.2-0.4-0.4-0.3c-0.2,0.1-0.3,0.2-0.2,0.5l1.8,5.4c0.1,0.3,0.2,0.4,0.4,0.3c0.2-0.1,0.3-0.2,0.2-0.5L83.5,103.6z
	 M76.1,110.8L76.1,110.8l-1.9-5.2c0-0.1-0.1-0.2-0.2-0.2c-0.1,0-0.1,0-0.2,0c-0.1,0-0.2,0.1-0.2,0.1c0,0.1-0.1,0.1,0,0.2
	c0,0,0,0,0,0.1c0,0,0,0.1,0,0.1c0,0,0,0.1,0.1,0.2c0,0.1,0.1,0.2,0.1,0.3l1.9,5c0,0.1,0.1,0.2,0.2,0.2c0.1,0,0.2,0.1,0.3,0
	c0.1,0,0.2-0.1,0.3-0.1c0.1-0.1,0.1-0.2,0.1-0.3l0.5-5.3l0,0l2.3,4.8c0.1,0.1,0.1,0.2,0.2,0.2c0.1,0,0.2,0,0.3,0
	c0.1,0,0.2-0.1,0.3-0.1c0.1-0.1,0.1-0.2,0.1-0.3l0-5.3c0-0.2,0-0.3,0-0.4c0-0.1,0-0.2,0-0.2c0-0.1-0.1-0.1-0.1-0.2
	c-0.1,0-0.1,0-0.2,0c-0.1,0-0.1,0-0.2,0.1c-0.1,0.1-0.1,0.1-0.1,0.3l0.1,5.5l0,0l-2.6-5.1c0-0.1-0.1-0.1-0.1-0.2
	c-0.1-0.1-0.1-0.1-0.3,0c-0.1,0-0.2,0.1-0.2,0.1c0,0.1-0.1,0.1-0.1,0.2L76.1,110.8z M65,108.9l1.8,0.1c0.1,0,0.2,0,0.3-0.1
	c0.1-0.1,0.1-0.1,0.1-0.2c0-0.1,0-0.2-0.1-0.2c-0.1-0.1-0.1-0.1-0.2-0.1l-1.8-0.1l0.2-2.4l1.9,0.1c0.1,0,0.2,0,0.3-0.1
	c0.1-0.1,0.1-0.1,0.1-0.2c0-0.1,0-0.2-0.1-0.2c-0.1-0.1-0.1-0.1-0.2-0.1l-2.2-0.2c-0.1,0-0.3,0-0.3,0.1c-0.1,0.1-0.1,0.1-0.1,0.3
	l-0.4,5.8c0,0.1,0,0.2,0.1,0.3c0.1,0.1,0.2,0.1,0.3,0.1l2.3,0.2c0.1,0,0.2,0,0.3-0.1c0.1-0.1,0.1-0.1,0.1-0.2c0-0.1,0-0.2-0.1-0.2
	c-0.1-0.1-0.1-0.1-0.2-0.1l-2-0.2L65,108.9z M57.7,104.8l1.3,0.2c0.4,0.1,0.7,0.2,0.9,0.4c0.2,0.2,0.4,0.4,0.5,0.7
	c0.1,0.3,0.2,0.6,0.2,0.9c0,0.3,0,0.6-0.1,0.9c-0.1,0.4-0.2,0.7-0.3,1c-0.1,0.3-0.3,0.6-0.5,0.8c-0.2,0.2-0.5,0.4-0.8,0.5
	c-0.3,0.1-0.6,0.1-1,0l-1.3-0.2L57.7,104.8z M56,110.2c0,0.1,0,0.2,0,0.3s0.1,0.1,0.3,0.1l1.6,0.3c0.4,0.1,0.8,0.1,1.1,0
	c0.4-0.1,0.7-0.2,1-0.5c0.3-0.2,0.6-0.5,0.8-0.9c0.2-0.4,0.4-0.8,0.5-1.3c0.1-0.4,0.1-0.8,0.1-1.2c0-0.4-0.1-0.8-0.3-1.1
	c-0.2-0.4-0.4-0.7-0.7-0.9c-0.3-0.3-0.7-0.4-1.2-0.5l-1.6-0.3c-0.1,0-0.3,0-0.3,0c-0.1,0-0.1,0.1-0.1,0.2L56,110.2z M52.3,107.4
	l-2.6-1l2.6-2.9l0,0L52.3,107.4z M49.3,106.9l3,1.1l0,1.2c0,0.1,0,0.2,0,0.2c0,0.1,0.1,0.1,0.2,0.2c0.1,0,0.2,0,0.2,0
	c0.1,0,0.1-0.1,0.1-0.1c0-0.1,0-0.2,0-0.3l0.1-5.9c0-0.1,0-0.1,0-0.2c0-0.1,0-0.1,0-0.2c0-0.1,0-0.1-0.1-0.2c0,0-0.1-0.1-0.2-0.1
	c-0.1,0-0.1,0-0.2,0c-0.1,0-0.1,0-0.2,0.1c-0.1,0-0.1,0.1-0.1,0.1c0,0-0.1,0.1-0.1,0.1l-4,4.4c-0.1,0.1-0.1,0.2-0.2,0.2
	c0,0.1,0,0.1,0,0.2c0,0.1,0.1,0.1,0.2,0.2c0.1,0,0.2,0,0.3,0c0.1,0,0.1-0.1,0.2-0.1L49.3,106.9z M42.6,103.9L42.6,103.9l1.2-5
	c0.1-0.3,0-0.5-0.2-0.6c-0.1,0-0.1-0.1-0.2-0.1c-0.1,0-0.1,0-0.2,0c-0.1,0-0.1,0-0.2,0.1c-0.1,0-0.1,0.1-0.2,0.2l-3.3,4.1
	c0,0-0.1,0.1-0.1,0.1c0,0-0.1,0.1-0.1,0.1c0,0-0.1,0.1-0.1,0.1c0,0,0,0.1-0.1,0.1c-0.1,0.1-0.1,0.2,0,0.3c0,0.1,0.1,0.1,0.1,0.2
	c0.1,0.1,0.2,0.1,0.3,0c0.1,0,0.1-0.1,0.2-0.2l3.4-4.3l0,0l-1.3,5.6c0,0.1,0,0.2,0,0.3c0,0.1,0.1,0.1,0.1,0.2c0.1,0.1,0.2,0.1,0.3,0
	c0.1,0,0.2-0.1,0.3-0.2l4.1-3.9l0,0l-2,5.1c0,0.1-0.1,0.2-0.1,0.3c0,0.1,0.1,0.2,0.2,0.2c0.1,0,0.1,0.1,0.2,0.1
	c0.1,0,0.2-0.1,0.2-0.2c0,0,0,0,0-0.1c0,0,0-0.1,0.1-0.2c0-0.1,0-0.1,0.1-0.2c0-0.1,0-0.1,0.1-0.1l1.9-4.8c0-0.1,0.1-0.2,0-0.3
	c0-0.1,0-0.1-0.1-0.2c0-0.1-0.1-0.1-0.1-0.2c-0.1-0.1-0.1-0.1-0.2-0.1c-0.1-0.1-0.2-0.1-0.3-0.1c-0.1,0-0.2,0.1-0.3,0.2L42.6,103.9z
	 M37.1,94.1l1,0.9c0.3,0.3,0.5,0.5,0.6,0.8c0.1,0.3,0.1,0.6,0.1,0.9c0,0.3-0.1,0.6-0.3,0.9c-0.1,0.3-0.3,0.5-0.5,0.8
	c-0.3,0.3-0.5,0.5-0.8,0.7c-0.3,0.2-0.6,0.3-0.8,0.4c-0.3,0.1-0.6,0.1-0.9,0c-0.3-0.1-0.6-0.2-0.9-0.5l-1-0.8L37.1,94.1z M33,97.8
	c-0.1,0.1-0.1,0.2-0.1,0.3c0,0.1,0.1,0.2,0.2,0.3l1.2,1c0.3,0.3,0.6,0.4,1,0.6c0.4,0.1,0.7,0.1,1.1,0.1c0.4,0,0.7-0.2,1.1-0.4
	c0.4-0.2,0.7-0.5,1.1-0.9c0.2-0.3,0.5-0.6,0.6-1c0.2-0.4,0.3-0.7,0.3-1.1c0-0.4,0-0.8-0.1-1.2c-0.1-0.4-0.4-0.7-0.8-1.1l-1.2-1.1
	c-0.1-0.1-0.2-0.1-0.3-0.1c-0.1,0-0.2,0-0.2,0.1L33,97.8z M31.3,88.9L31.3,88.9l-1.6,6c0,0.1,0,0.2,0,0.2c0,0.1,0,0.1,0.1,0.2
	c0.1,0.1,0.1,0.1,0.2,0.1c0.1,0,0.2,0,0.3-0.1l4.3-3.7c0.2-0.2,0.2-0.4,0.1-0.5c-0.1-0.2-0.3-0.2-0.5,0l-3.7,3.2l0,0l1.6-5.9
	c0-0.1,0-0.2,0-0.2c0-0.1,0-0.1-0.1-0.2c-0.1-0.1-0.1-0.1-0.2-0.1c-0.1,0-0.2,0-0.3,0.1l-4.4,3.7c-0.2,0.2-0.2,0.4-0.1,0.5
	c0.1,0.2,0.3,0.2,0.5,0L31.3,88.9z M25.9,87.1l-1.5-2.3l3.9-0.8l0,0L25.9,87.1z M23.7,84.9l1.8,2.7l-0.7,1c-0.1,0.1-0.1,0.1-0.1,0.2
	c0,0.1,0,0.2,0.1,0.3c0.1,0.1,0.1,0.1,0.2,0.1c0.1,0,0.1,0,0.2,0c0.1,0,0.1-0.1,0.2-0.2l3.6-4.7c0,0,0.1-0.1,0.1-0.1
	c0-0.1,0.1-0.1,0.1-0.2c0-0.1,0-0.1,0-0.2c0-0.1,0-0.1-0.1-0.2c0-0.1-0.1-0.1-0.1-0.2c-0.1,0-0.1-0.1-0.2-0.1c-0.1,0-0.1,0-0.2,0
	c-0.1,0-0.1,0-0.2,0l-5.8,1.2c-0.1,0-0.2,0-0.3,0.1c-0.1,0-0.1,0.1-0.1,0.2c0,0.1,0,0.1,0.1,0.2c0.1,0.1,0.1,0.2,0.2,0.2
	c0.1,0,0.1,0,0.2,0L23.7,84.9z M21.5,76.7L23,80l-2.4,1.1c-0.3,0.1-0.3,0.3-0.2,0.5c0.1,0.2,0.3,0.2,0.5,0.1l5.2-2.4
	c0.3-0.1,0.3-0.3,0.2-0.5c-0.1-0.2-0.3-0.2-0.5-0.1l-2.2,1l-1.5-3.3l2.2-1c0.3-0.1,0.3-0.3,0.2-0.5s-0.3-0.2-0.5-0.1l-5.2,2.4
	c-0.3,0.1-0.3,0.3-0.2,0.5c0.1,0.2,0.3,0.2,0.5,0.1L21.5,76.7z"/>
</svg>
