<?xml version="1.0" encoding="utf-8"?>
<!-- Generator: Adobe Illustrator 26.0.3, SVG Export Plug-In . SVG Version: 6.00 Build 0)  -->
<svg version="1.1" id="Layer_1" xmlns="http://www.w3.org/2000/svg" xmlns:xlink="http://www.w3.org/1999/xlink" x="0px" y="0px"
	 viewBox="0 0 121.9 102" style="enable-background:new 0 0 121.9 102;" xml:space="preserve">
<style type="text/css">
	.st0{fill:#1A1A18;}
	.st1{font-family:'VAGRoundedLTPro-Light';}
	.st2{font-size:11.989px;}
	.st3{fill:#FFFFFF;}
	.st4{fill-rule:evenodd;clip-rule:evenodd;fill:#FFFFFF;}
</style>
<text transform="matrix(1 0 0 1 3.8794 84.954)" class="st0 st1 st2">Y</text>
<g>
	<path class="st0" d="M12.2,78.5c0.4,0,0.8,0.1,1.2,0.3s0.6,0.4,0.9,0.7c0.2,0.3,0.4,0.6,0.6,1s0.2,0.8,0.2,1.2S15,82.6,14.8,83
		c-0.1,0.4-0.3,0.7-0.5,1s-0.5,0.5-0.9,0.7S12.7,85,12.2,85c-0.5,0-0.9-0.1-1.2-0.3c-0.4-0.2-0.6-0.4-0.9-0.7
		c-0.2-0.3-0.4-0.6-0.5-1c-0.1-0.4-0.2-0.8-0.2-1.1c0-0.5,0.1-0.9,0.2-1.3c0.1-0.4,0.3-0.8,0.6-1.1s0.5-0.5,0.9-0.7
		C11.4,78.6,11.8,78.5,12.2,78.5z M10.5,81.8c0,0.3,0,0.6,0.1,0.9c0.1,0.3,0.2,0.5,0.3,0.7s0.3,0.4,0.6,0.5c0.2,0.1,0.5,0.2,0.7,0.2
		s0.5-0.1,0.7-0.2c0.2-0.1,0.4-0.3,0.6-0.5c0.2-0.2,0.3-0.5,0.3-0.7c0.1-0.3,0.1-0.6,0.1-0.9c0-0.3,0-0.7-0.1-1
		c-0.1-0.3-0.2-0.5-0.3-0.7c-0.2-0.2-0.3-0.4-0.6-0.5c-0.2-0.1-0.5-0.2-0.7-0.2c-0.3,0-0.5,0.1-0.7,0.2c-0.2,0.1-0.4,0.3-0.6,0.5
		c-0.2,0.2-0.3,0.5-0.3,0.7C10.5,81.1,10.5,81.4,10.5,81.8z"/>
	<path class="st0" d="M16.7,78.5c0.2,0,0.3,0.1,0.4,0.2c0.1,0.1,0.1,0.2,0.1,0.4v3.5c0,0.5,0.1,0.9,0.4,1.2c0.2,0.3,0.6,0.4,1.1,0.4
		c0.5,0,0.9-0.1,1.1-0.4c0.2-0.3,0.4-0.7,0.4-1.2V79c0-0.2,0-0.3,0.1-0.4c0.1-0.1,0.2-0.2,0.4-0.2c0.2,0,0.3,0.1,0.4,0.2
		c0.1,0.1,0.1,0.2,0.1,0.4v3.5c0,0.8-0.2,1.4-0.7,1.8c-0.4,0.4-1.1,0.7-1.9,0.7c-0.8,0-1.4-0.2-1.9-0.7c-0.4-0.4-0.7-1.1-0.7-1.8V79
		c0-0.2,0-0.3,0.1-0.4C16.4,78.6,16.5,78.5,16.7,78.5z"/>
	<path class="st0" d="M28.1,78.5c0.4,0,0.7,0.1,1,0.2c0.3,0.1,0.5,0.4,0.8,0.6h0V79c0-0.2,0-0.3,0.1-0.4c0.1-0.1,0.2-0.1,0.3-0.1
		c0.1,0,0.3,0,0.3,0.1s0.1,0.2,0.1,0.4v5.5c0,0.1,0,0.3-0.1,0.3C30.6,85,30.5,85,30.4,85s-0.3,0-0.4-0.1c-0.1-0.1-0.1-0.2-0.1-0.4
		v-0.4h0c-0.2,0.3-0.5,0.6-0.8,0.7c-0.3,0.2-0.6,0.2-1,0.2c-0.4,0-0.8-0.1-1.2-0.3c-0.3-0.2-0.6-0.4-0.9-0.7s-0.4-0.6-0.6-1
		s-0.2-0.8-0.2-1.2c0-0.5,0.1-0.9,0.2-1.3c0.1-0.4,0.3-0.8,0.6-1c0.2-0.3,0.5-0.5,0.9-0.7S27.7,78.5,28.1,78.5z M26.4,81.8
		c0,0.3,0,0.6,0.1,0.9c0.1,0.3,0.2,0.5,0.3,0.7s0.3,0.4,0.6,0.5c0.2,0.1,0.5,0.2,0.7,0.2s0.5-0.1,0.7-0.2c0.2-0.1,0.4-0.3,0.6-0.5
		s0.3-0.5,0.3-0.7c0.1-0.3,0.1-0.6,0.1-0.9c0-0.3,0-0.7-0.1-0.9c-0.1-0.3-0.2-0.5-0.3-0.7c-0.1-0.2-0.3-0.4-0.6-0.5
		c-0.2-0.1-0.5-0.2-0.7-0.2c-0.3,0-0.5,0.1-0.7,0.2c-0.2,0.1-0.4,0.3-0.6,0.5c-0.2,0.2-0.3,0.5-0.3,0.7
		C26.4,81.1,26.4,81.4,26.4,81.8z"/>
	<path class="st0" d="M32.8,78.5c0.2,0,0.3,0,0.4,0.2c0.1,0.1,0.1,0.2,0.1,0.4v0.5h0c0.2-0.3,0.4-0.6,0.6-0.8
		c0.3-0.2,0.5-0.3,0.8-0.3c0.2,0,0.3,0.1,0.4,0.2c0.1,0.1,0.1,0.2,0.1,0.4c0,0.3-0.2,0.5-0.7,0.6c-0.4,0.1-0.8,0.3-1,0.6
		c-0.2,0.3-0.4,0.7-0.4,1.2v3c0,0.2,0,0.3-0.1,0.4S32.9,85,32.8,85c-0.2,0-0.3-0.1-0.4-0.2s-0.1-0.2-0.1-0.4V79c0-0.2,0-0.3,0.1-0.4
		C32.5,78.6,32.6,78.5,32.8,78.5z"/>
	<path class="st0" d="M38.5,78.5c0.4,0,0.8,0.1,1.2,0.3s0.6,0.4,0.9,0.7c0.2,0.3,0.4,0.6,0.5,1c0.1,0.4,0.2,0.7,0.2,1.1
		c0,0.2,0,0.4-0.1,0.5c-0.1,0.1-0.2,0.1-0.5,0.1h-4c0,0.6,0.2,1.1,0.5,1.4s0.8,0.5,1.4,0.5c0.3,0,0.6,0,0.9-0.2
		c0.3-0.1,0.5-0.2,0.8-0.4c0.2-0.2,0.4-0.3,0.5-0.3c0.1,0,0.2,0,0.3,0.1c0.1,0.1,0.1,0.2,0.1,0.3c0,0.1-0.1,0.3-0.2,0.4
		c-0.1,0.1-0.2,0.2-0.4,0.3s-0.3,0.2-0.5,0.3c-0.2,0.1-0.4,0.2-0.7,0.2C39.1,85,38.8,85,38.6,85c-0.5,0-0.9-0.1-1.2-0.2
		c-0.4-0.2-0.7-0.4-0.9-0.7s-0.4-0.6-0.6-1c-0.1-0.4-0.2-0.8-0.2-1.3c0-0.4,0.1-0.9,0.2-1.3c0.1-0.4,0.3-0.7,0.6-1
		c0.2-0.3,0.5-0.5,0.9-0.7S38.1,78.5,38.5,78.5z M40.2,81.4c0-0.6-0.2-1.1-0.5-1.4c-0.3-0.4-0.7-0.5-1.2-0.5c-0.5,0-0.9,0.2-1.2,0.5
		c-0.3,0.3-0.5,0.8-0.5,1.5H40.2z"/>
	<path class="st0" d="M45.1,78.5c0.2,0,0.3,0,0.4,0.2c0.1,0.1,0.2,0.2,0.2,0.4l1.4,4.4h0l1.3-4.1c0.1-0.2,0.1-0.4,0.2-0.6
		c0.1-0.1,0.2-0.2,0.4-0.2c0.2,0,0.3,0,0.4,0.1c0.1,0.1,0.1,0.2,0.2,0.3l1.4,4.4h0l1.4-4.4c0.1-0.4,0.3-0.5,0.6-0.5
		c0.2,0,0.3,0,0.4,0.1c0.1,0.1,0.1,0.2,0.1,0.3c0,0,0,0.1,0,0.2s-0.1,0.3-0.2,0.5l-1.6,4.8c-0.1,0.2-0.2,0.4-0.3,0.4
		C51.2,85,51.1,85,51,85c-0.3,0-0.5-0.2-0.6-0.5L49,80.2h0l-1.4,4.4c0,0.1-0.1,0.3-0.2,0.3C47.3,85,47.2,85,47,85
		c-0.2,0-0.3-0.1-0.4-0.2s-0.2-0.2-0.2-0.4l-1.6-4.8c-0.1-0.2-0.1-0.4-0.2-0.5s0-0.1,0-0.2c0-0.1,0-0.2,0.1-0.3
		C44.8,78.6,44.9,78.5,45.1,78.5z"/>
	<path class="st0" d="M54.7,75.7c0.2,0,0.3,0.1,0.4,0.2s0.1,0.2,0.1,0.4v3.1l0,0c0.2-0.3,0.5-0.5,0.8-0.6c0.3-0.1,0.6-0.2,0.9-0.2
		c0.3,0,0.6,0.1,0.9,0.2c0.3,0.1,0.5,0.3,0.7,0.5c0.2,0.2,0.4,0.5,0.5,0.7c0.1,0.3,0.2,0.6,0.2,1v3.6c0,0.2,0,0.3-0.1,0.4
		C59,85,58.9,85,58.7,85c-0.2,0-0.3-0.1-0.4-0.2s-0.1-0.2-0.1-0.4V81c0-0.5-0.1-0.8-0.4-1.1c-0.3-0.3-0.6-0.4-1.1-0.4
		c-0.2,0-0.4,0-0.6,0.1c-0.2,0.1-0.3,0.2-0.5,0.3s-0.2,0.3-0.3,0.5c-0.1,0.2-0.1,0.4-0.1,0.6v3.5c0,0.2,0,0.3-0.1,0.4
		C55,85,54.9,85,54.7,85c-0.2,0-0.3-0.1-0.4-0.2s-0.1-0.2-0.1-0.4v-8.2c0-0.2,0-0.3,0.1-0.4S54.5,75.7,54.7,75.7z"/>
	<path class="st0" d="M63.1,78.5c0.4,0,0.7,0.1,1,0.2c0.3,0.1,0.5,0.4,0.8,0.6h0V79c0-0.2,0-0.3,0.1-0.4c0.1-0.1,0.2-0.1,0.3-0.1
		c0.1,0,0.3,0,0.3,0.1c0.1,0.1,0.1,0.2,0.1,0.4v5.5c0,0.1,0,0.3-0.1,0.3C65.6,85,65.5,85,65.4,85c-0.1,0-0.3,0-0.4-0.1
		s-0.1-0.2-0.1-0.4v-0.4h0c-0.2,0.3-0.5,0.6-0.8,0.7c-0.3,0.2-0.6,0.2-1,0.2c-0.4,0-0.8-0.1-1.2-0.3c-0.3-0.2-0.6-0.4-0.9-0.7
		c-0.2-0.3-0.4-0.6-0.6-1s-0.2-0.8-0.2-1.2c0-0.5,0.1-0.9,0.2-1.3c0.1-0.4,0.3-0.8,0.6-1c0.2-0.3,0.5-0.5,0.9-0.7
		S62.7,78.5,63.1,78.5z M61.4,81.8c0,0.3,0,0.6,0.1,0.9s0.2,0.5,0.3,0.7c0.1,0.2,0.3,0.4,0.6,0.5c0.2,0.1,0.5,0.2,0.7,0.2
		c0.3,0,0.5-0.1,0.8-0.2c0.2-0.1,0.4-0.3,0.6-0.5c0.1-0.2,0.3-0.5,0.3-0.7c0.1-0.3,0.1-0.6,0.1-0.9c0-0.3,0-0.7-0.1-0.9
		c-0.1-0.3-0.2-0.5-0.3-0.7c-0.1-0.2-0.3-0.4-0.6-0.5c-0.2-0.1-0.5-0.2-0.7-0.2c-0.3,0-0.5,0.1-0.7,0.2c-0.2,0.1-0.4,0.3-0.6,0.5
		c-0.2,0.2-0.3,0.5-0.3,0.7C61.4,81.1,61.4,81.4,61.4,81.8z"/>
	<path class="st0" d="M68.1,76.6c0.2,0,0.3,0.1,0.4,0.2c0.1,0.1,0.1,0.2,0.1,0.4v1.4h0.4c0.4,0,0.5,0.2,0.5,0.5s-0.2,0.5-0.5,0.5
		h-0.4v5c0,0.2,0,0.3-0.1,0.4S68.3,85,68.1,85s-0.3-0.1-0.4-0.2s-0.1-0.2-0.1-0.4v-5h-0.4c-0.4,0-0.5-0.2-0.5-0.5s0.2-0.5,0.5-0.5
		h0.4v-1.4c0-0.2,0-0.3,0.1-0.4C67.8,76.7,68,76.6,68.1,76.6z"/>
	<path class="st0" d="M73.4,78.5c0.1,0,0.2,0,0.3,0.1c0.1,0.1,0.2,0.2,0.2,0.3l1.5,4.4h0l1.4-4.4c0-0.1,0.1-0.2,0.2-0.3
		c0.1-0.1,0.2-0.1,0.3-0.1c0.1,0,0.2,0,0.3,0.1c0.1,0.1,0.1,0.2,0.1,0.3c0,0.1,0,0.1,0,0.2s0,0.2-0.1,0.2L75,87.1
		c0,0.1-0.1,0.2-0.2,0.3s-0.2,0.1-0.3,0.1c-0.1,0-0.2,0-0.3-0.1S74,87.2,74,87.1c0-0.1,0-0.2,0-0.2c0-0.1,0.1-0.2,0.1-0.4l0.6-1.7
		L73,79.5c0-0.1-0.1-0.2-0.1-0.3c0-0.1,0-0.2,0-0.2c0-0.1,0-0.2,0.1-0.3S73.2,78.5,73.4,78.5z"/>
	<path class="st0" d="M81.2,78.5c0.4,0,0.8,0.1,1.2,0.3s0.6,0.4,0.9,0.7c0.2,0.3,0.4,0.6,0.6,1s0.2,0.8,0.2,1.2S84,82.6,83.9,83
		s-0.3,0.7-0.5,1c-0.2,0.3-0.5,0.5-0.9,0.7S81.7,85,81.2,85c-0.5,0-0.9-0.1-1.2-0.3s-0.6-0.4-0.9-0.7c-0.2-0.3-0.4-0.6-0.5-1
		c-0.1-0.4-0.2-0.8-0.2-1.1c0-0.5,0.1-0.9,0.2-1.3c0.1-0.4,0.3-0.8,0.6-1.1c0.2-0.3,0.5-0.5,0.9-0.7S80.8,78.5,81.2,78.5z
		 M79.5,81.8c0,0.3,0,0.6,0.1,0.9c0.1,0.3,0.2,0.5,0.3,0.7c0.1,0.2,0.3,0.4,0.6,0.5c0.2,0.1,0.5,0.2,0.7,0.2c0.3,0,0.5-0.1,0.7-0.2
		c0.2-0.1,0.4-0.3,0.6-0.5c0.2-0.2,0.3-0.5,0.3-0.7s0.1-0.6,0.1-0.9c0-0.3,0-0.7-0.1-1c-0.1-0.3-0.2-0.5-0.3-0.7
		c-0.2-0.2-0.3-0.4-0.6-0.5c-0.2-0.1-0.5-0.2-0.7-0.2c-0.3,0-0.5,0.1-0.7,0.2c-0.2,0.1-0.4,0.3-0.6,0.5c-0.2,0.2-0.3,0.5-0.3,0.7
		C79.5,81.1,79.5,81.4,79.5,81.8z"/>
	<path class="st0" d="M85.7,78.5c0.2,0,0.3,0.1,0.4,0.2c0.1,0.1,0.1,0.2,0.1,0.4v3.5c0,0.5,0.1,0.9,0.4,1.2c0.2,0.3,0.6,0.4,1.1,0.4
		c0.5,0,0.9-0.1,1.1-0.4c0.2-0.3,0.4-0.7,0.4-1.2V79c0-0.2,0-0.3,0.1-0.4c0.1-0.1,0.2-0.2,0.4-0.2s0.3,0.1,0.4,0.2
		c0.1,0.1,0.1,0.2,0.1,0.4v3.5c0,0.8-0.2,1.4-0.7,1.8c-0.4,0.4-1.1,0.7-1.9,0.7c-0.8,0-1.4-0.2-1.9-0.7c-0.4-0.4-0.7-1.1-0.7-1.8V79
		c0-0.2,0-0.3,0.1-0.4C85.4,78.6,85.5,78.5,85.7,78.5z"/>
	<path class="st0" d="M97.1,78.5c0.4,0,0.8,0.1,1.2,0.3s0.6,0.4,0.9,0.7c0.2,0.3,0.4,0.6,0.5,1c0.1,0.4,0.2,0.7,0.2,1.1
		c0,0.2,0,0.4-0.1,0.5s-0.2,0.1-0.5,0.1h-4c0,0.6,0.2,1.1,0.5,1.4s0.8,0.5,1.4,0.5c0.3,0,0.6,0,0.9-0.2c0.3-0.1,0.5-0.2,0.8-0.4
		c0.2-0.2,0.4-0.3,0.5-0.3c0.1,0,0.2,0,0.3,0.1c0.1,0.1,0.1,0.2,0.1,0.3c0,0.1-0.1,0.3-0.2,0.4c-0.1,0.1-0.2,0.2-0.4,0.3
		s-0.3,0.2-0.5,0.3c-0.2,0.1-0.4,0.2-0.7,0.2C97.7,85,97.4,85,97.1,85c-0.5,0-0.9-0.1-1.2-0.2c-0.4-0.2-0.7-0.4-0.9-0.7
		s-0.4-0.6-0.6-1s-0.2-0.8-0.2-1.3c0-0.4,0.1-0.9,0.2-1.3c0.1-0.4,0.3-0.7,0.6-1c0.2-0.3,0.5-0.5,0.9-0.7S96.6,78.5,97.1,78.5z
		 M98.8,81.4c0-0.6-0.2-1.1-0.5-1.4c-0.3-0.4-0.7-0.5-1.2-0.5c-0.5,0-0.9,0.2-1.2,0.5c-0.3,0.3-0.5,0.8-0.5,1.5H98.8z"/>
	<path class="st0" d="M103.4,78.5c0.4,0,0.7,0.1,1,0.2c0.3,0.1,0.5,0.4,0.8,0.6h0V79c0-0.2,0-0.3,0.1-0.4c0.1-0.1,0.2-0.1,0.3-0.1
		c0.1,0,0.3,0,0.3,0.1c0.1,0.1,0.1,0.2,0.1,0.4v5.5c0,0.1,0,0.3-0.1,0.3c-0.1,0.1-0.2,0.1-0.4,0.1c-0.1,0-0.3,0-0.4-0.1
		s-0.1-0.2-0.1-0.4v-0.4h0c-0.2,0.3-0.5,0.6-0.8,0.7c-0.3,0.2-0.6,0.2-1,0.2c-0.4,0-0.8-0.1-1.2-0.3c-0.3-0.2-0.6-0.4-0.9-0.7
		c-0.2-0.3-0.4-0.6-0.6-1s-0.2-0.8-0.2-1.2c0-0.5,0.1-0.9,0.2-1.3c0.1-0.4,0.3-0.8,0.6-1c0.2-0.3,0.5-0.5,0.9-0.7
		S102.9,78.5,103.4,78.5z M101.6,81.8c0,0.3,0,0.6,0.1,0.9c0.1,0.3,0.2,0.5,0.3,0.7c0.1,0.2,0.3,0.4,0.6,0.5
		c0.2,0.1,0.5,0.2,0.7,0.2c0.3,0,0.5-0.1,0.8-0.2c0.2-0.1,0.4-0.3,0.6-0.5c0.1-0.2,0.3-0.5,0.3-0.7c0.1-0.3,0.1-0.6,0.1-0.9
		c0-0.3,0-0.7-0.1-0.9c-0.1-0.3-0.2-0.5-0.3-0.7c-0.1-0.2-0.3-0.4-0.6-0.5c-0.2-0.1-0.5-0.2-0.7-0.2c-0.3,0-0.5,0.1-0.7,0.2
		c-0.2,0.1-0.4,0.3-0.6,0.5c-0.2,0.2-0.3,0.5-0.3,0.7C101.7,81.1,101.6,81.4,101.6,81.8z"/>
	<path class="st0" d="M108.4,76.6c0.2,0,0.3,0.1,0.4,0.2c0.1,0.1,0.1,0.2,0.1,0.4v1.4h0.4c0.4,0,0.5,0.2,0.5,0.5s-0.2,0.5-0.5,0.5
		h-0.4v5c0,0.2,0,0.3-0.1,0.4s-0.2,0.2-0.4,0.2s-0.3-0.1-0.4-0.2s-0.1-0.2-0.1-0.4v-5h-0.4c-0.4,0-0.5-0.2-0.5-0.5s0.2-0.5,0.5-0.5
		h0.4v-1.4c0-0.2,0-0.3,0.1-0.4C108.1,76.7,108.2,76.6,108.4,76.6z"/>
	<path class="st0" d="M111.4,83.8c0.2,0,0.3,0.1,0.4,0.2c0.1,0.1,0.2,0.3,0.2,0.4c0,0.2-0.1,0.3-0.2,0.4c-0.1,0.1-0.3,0.2-0.4,0.2
		c-0.2,0-0.3-0.1-0.4-0.2c-0.1-0.1-0.2-0.3-0.2-0.4c0-0.2,0.1-0.3,0.2-0.4C111.1,83.9,111.3,83.8,111.4,83.8z"/>
	<path class="st0" d="M114.4,83.8c0.2,0,0.3,0.1,0.4,0.2c0.1,0.1,0.2,0.3,0.2,0.4c0,0.2-0.1,0.3-0.2,0.4c-0.1,0.1-0.3,0.2-0.4,0.2
		c-0.2,0-0.3-0.1-0.4-0.2c-0.1-0.1-0.2-0.3-0.2-0.4c0-0.2,0.1-0.3,0.2-0.4C114.1,83.9,114.3,83.8,114.4,83.8z"/>
	<path class="st0" d="M117.4,83.8c0.2,0,0.3,0.1,0.4,0.2c0.1,0.1,0.2,0.3,0.2,0.4c0,0.2-0.1,0.3-0.2,0.4c-0.1,0.1-0.3,0.2-0.4,0.2
		c-0.2,0-0.3-0.1-0.4-0.2c-0.1-0.1-0.2-0.3-0.2-0.4c0-0.2,0.1-0.3,0.2-0.4C117.1,83.9,117.3,83.8,117.4,83.8z"/>
</g>
<g>
	<path class="st0" d="M2.5,93.1c0.2,0,0.5,0,0.7,0.1c0.3,0.1,0.5,0.1,0.7,0.2c0.2,0.1,0.4,0.2,0.5,0.4c0.1,0.1,0.2,0.3,0.2,0.4
		c0,0.1,0,0.2-0.1,0.3s-0.2,0.1-0.4,0.1c-0.1,0-0.1,0-0.2,0c-0.1,0-0.1-0.1-0.2-0.1c-0.1-0.1-0.2-0.1-0.3-0.2
		c-0.1-0.1-0.2-0.1-0.3-0.2S3,94.1,2.9,94c-0.1,0-0.3,0-0.4,0c-0.3,0-0.6,0.1-0.8,0.2c-0.2,0.1-0.3,0.3-0.3,0.6
		c0,0.2,0.1,0.3,0.3,0.5c0.2,0.1,0.5,0.3,0.9,0.5c0.3,0.1,0.6,0.2,0.8,0.3s0.4,0.2,0.6,0.3c0.3,0.2,0.6,0.4,0.7,0.6
		c0.1,0.2,0.2,0.4,0.2,0.6c0,0.3-0.1,0.6-0.2,0.8c-0.1,0.2-0.3,0.4-0.5,0.6c-0.2,0.2-0.4,0.3-0.7,0.4s-0.6,0.1-0.9,0.1
		c-0.3,0-0.6,0-0.9-0.1c-0.3-0.1-0.5-0.2-0.8-0.3c-0.2-0.1-0.4-0.2-0.5-0.4C0.1,98.7,0,98.5,0,98.4c0-0.1,0-0.3,0.1-0.3
		s0.2-0.1,0.3-0.1c0.2,0,0.3,0.1,0.6,0.3c0.2,0.2,0.5,0.3,0.7,0.4c0.2,0.1,0.5,0.1,0.7,0.1c0.4,0,0.7-0.1,0.9-0.3
		c0.2-0.2,0.3-0.4,0.3-0.6c0-0.2-0.1-0.4-0.3-0.6c-0.2-0.2-0.5-0.3-1-0.5c-0.3-0.1-0.6-0.3-0.9-0.4c-0.3-0.1-0.5-0.3-0.7-0.4
		c-0.2-0.1-0.3-0.3-0.4-0.5c-0.1-0.2-0.1-0.4-0.1-0.6c0-0.3,0.1-0.5,0.2-0.8c0.1-0.2,0.3-0.4,0.5-0.6s0.4-0.3,0.7-0.4
		S2.2,93.1,2.5,93.1z"/>
	<path class="st0" d="M8.3,93.1c0.4,0,0.8,0.1,1.2,0.3s0.6,0.4,0.9,0.7c0.2,0.3,0.4,0.6,0.6,1s0.2,0.8,0.2,1.2s-0.1,0.9-0.2,1.3
		c-0.1,0.4-0.3,0.7-0.5,1s-0.5,0.5-0.9,0.7s-0.7,0.3-1.2,0.3c-0.5,0-0.9-0.1-1.2-0.3c-0.4-0.2-0.6-0.4-0.9-0.7
		c-0.2-0.3-0.4-0.6-0.5-1c-0.1-0.4-0.2-0.8-0.2-1.1c0-0.5,0.1-0.9,0.2-1.3C5.8,94.7,6,94.3,6.3,94s0.5-0.5,0.9-0.7
		C7.5,93.2,7.9,93.1,8.3,93.1z M6.6,96.3c0,0.3,0,0.6,0.1,0.9C6.7,97.6,6.9,97.8,7,98s0.3,0.4,0.6,0.5c0.2,0.1,0.5,0.2,0.7,0.2
		s0.5-0.1,0.7-0.2c0.2-0.1,0.4-0.3,0.6-0.5c0.2-0.2,0.3-0.5,0.3-0.7c0.1-0.3,0.1-0.6,0.1-0.9c0-0.3,0-0.7-0.1-1
		c-0.1-0.3-0.2-0.5-0.3-0.7c-0.2-0.2-0.3-0.4-0.6-0.5C8.8,94,8.6,94,8.3,94C8,94,7.8,94,7.6,94.2c-0.2,0.1-0.4,0.3-0.6,0.5
		c-0.2,0.2-0.3,0.5-0.3,0.7C6.6,95.7,6.6,96,6.6,96.3z"/>
	<path class="st0" d="M17.7,93.1c0.4,0,0.8,0.1,1.2,0.3s0.6,0.4,0.9,0.7c0.2,0.3,0.4,0.6,0.5,1c0.1,0.4,0.2,0.7,0.2,1.1
		c0,0.2,0,0.4-0.1,0.5c-0.1,0.1-0.2,0.1-0.5,0.1h-4c0,0.6,0.2,1.1,0.5,1.4s0.8,0.5,1.4,0.5c0.3,0,0.6,0,0.9-0.2
		c0.3-0.1,0.5-0.2,0.8-0.4c0.2-0.2,0.4-0.3,0.5-0.3c0.1,0,0.2,0,0.3,0.1c0.1,0.1,0.1,0.2,0.1,0.3c0,0.1-0.1,0.3-0.2,0.4
		c-0.1,0.1-0.2,0.2-0.4,0.3s-0.3,0.2-0.5,0.3c-0.2,0.1-0.4,0.2-0.7,0.2c-0.2,0.1-0.5,0.1-0.8,0.1c-0.5,0-0.9-0.1-1.2-0.2
		c-0.4-0.2-0.7-0.4-0.9-0.7s-0.4-0.6-0.6-1c-0.1-0.4-0.2-0.8-0.2-1.3c0-0.4,0.1-0.9,0.2-1.3c0.1-0.4,0.3-0.7,0.6-1
		c0.2-0.3,0.5-0.5,0.9-0.7S17.3,93.1,17.7,93.1z M19.4,95.9c0-0.6-0.2-1.1-0.5-1.4c-0.3-0.4-0.7-0.5-1.2-0.5c-0.5,0-0.9,0.2-1.2,0.5
		c-0.3,0.3-0.5,0.8-0.5,1.5H19.4z"/>
	<path class="st0" d="M24,93.1c0.4,0,0.7,0.1,1,0.2c0.3,0.1,0.5,0.4,0.8,0.6h0v-0.3c0-0.2,0-0.3,0.1-0.4c0.1-0.1,0.2-0.1,0.3-0.1
		c0.1,0,0.3,0,0.3,0.1s0.1,0.2,0.1,0.4v5.5c0,0.1,0,0.3-0.1,0.3c-0.1,0.1-0.2,0.1-0.4,0.1s-0.3,0-0.4-0.1c-0.1-0.1-0.1-0.2-0.1-0.4
		v-0.4h0c-0.2,0.3-0.5,0.6-0.8,0.7c-0.3,0.2-0.6,0.2-1,0.2c-0.4,0-0.8-0.1-1.2-0.3c-0.3-0.2-0.6-0.4-0.9-0.7s-0.4-0.6-0.6-1
		s-0.2-0.8-0.2-1.2c0-0.5,0.1-0.9,0.2-1.3c0.1-0.4,0.3-0.8,0.6-1c0.2-0.3,0.5-0.5,0.9-0.7S23.6,93.1,24,93.1z M22.2,96.3
		c0,0.3,0,0.6,0.1,0.9c0.1,0.3,0.2,0.5,0.3,0.7s0.3,0.4,0.6,0.5c0.2,0.1,0.5,0.2,0.7,0.2s0.5-0.1,0.7-0.2c0.2-0.1,0.4-0.3,0.6-0.5
		s0.3-0.5,0.3-0.7c0.1-0.3,0.1-0.6,0.1-0.9c0-0.3,0-0.7-0.1-0.9c-0.1-0.3-0.2-0.5-0.3-0.7c-0.1-0.2-0.3-0.4-0.6-0.5
		C24.5,94,24.3,94,24,94c-0.3,0-0.5,0.1-0.7,0.2c-0.2,0.1-0.4,0.3-0.6,0.5c-0.2,0.2-0.3,0.5-0.3,0.7C22.3,95.7,22.2,96,22.2,96.3z"
		/>
	<path class="st0" d="M29,91.2c0.2,0,0.3,0.1,0.4,0.2c0.1,0.1,0.1,0.2,0.1,0.4v1.4h0.4c0.4,0,0.5,0.2,0.5,0.5s-0.2,0.5-0.5,0.5h-0.4
		v5c0,0.2,0,0.3-0.1,0.4s-0.2,0.2-0.4,0.2s-0.3-0.1-0.4-0.2s-0.1-0.2-0.1-0.4v-5H28c-0.4,0-0.5-0.2-0.5-0.5s0.2-0.5,0.5-0.5h0.4
		v-1.4c0-0.2,0-0.3,0.1-0.4C28.7,91.3,28.8,91.2,29,91.2z"/>
	<path class="st0" d="M36.3,93.1c0.2,0,0.5,0,0.7,0.1c0.3,0.1,0.5,0.1,0.7,0.2c0.2,0.1,0.4,0.2,0.5,0.4c0.1,0.1,0.2,0.3,0.2,0.4
		c0,0.1,0,0.2-0.1,0.3s-0.2,0.1-0.4,0.1c-0.1,0-0.1,0-0.2,0c-0.1,0-0.1-0.1-0.2-0.1c-0.1-0.1-0.2-0.1-0.3-0.2
		c-0.1-0.1-0.2-0.1-0.3-0.2s-0.2-0.1-0.3-0.1c-0.1,0-0.3,0-0.4,0c-0.3,0-0.6,0.1-0.8,0.2c-0.2,0.1-0.3,0.3-0.3,0.6
		c0,0.2,0.1,0.3,0.3,0.5c0.2,0.1,0.5,0.3,0.9,0.5c0.3,0.1,0.6,0.2,0.8,0.3s0.4,0.2,0.6,0.3c0.3,0.2,0.6,0.4,0.7,0.6
		c0.1,0.2,0.2,0.4,0.2,0.6c0,0.3-0.1,0.6-0.2,0.8c-0.1,0.2-0.3,0.4-0.5,0.6c-0.2,0.2-0.4,0.3-0.7,0.4s-0.6,0.1-0.9,0.1
		c-0.3,0-0.6,0-0.9-0.1c-0.3-0.1-0.5-0.2-0.8-0.3c-0.2-0.1-0.4-0.2-0.5-0.4c-0.1-0.1-0.2-0.3-0.2-0.4c0-0.1,0-0.3,0.1-0.3
		s0.2-0.1,0.3-0.1c0.2,0,0.3,0.1,0.6,0.3c0.2,0.2,0.5,0.3,0.7,0.4c0.2,0.1,0.5,0.1,0.7,0.1c0.4,0,0.7-0.1,0.9-0.3
		c0.2-0.2,0.3-0.4,0.3-0.6c0-0.2-0.1-0.4-0.3-0.6c-0.2-0.2-0.5-0.3-1-0.5c-0.3-0.1-0.6-0.3-0.9-0.4c-0.3-0.1-0.5-0.3-0.7-0.4
		c-0.2-0.1-0.3-0.3-0.4-0.5c-0.1-0.2-0.1-0.4-0.1-0.6c0-0.3,0.1-0.5,0.2-0.8c0.1-0.2,0.3-0.4,0.5-0.6s0.4-0.3,0.7-0.4
		S36,93.1,36.3,93.1z"/>
	<path class="st0" d="M42.1,93.1c0.4,0,0.8,0.1,1.2,0.3s0.6,0.4,0.9,0.7c0.2,0.3,0.4,0.6,0.6,1s0.2,0.8,0.2,1.2s-0.1,0.9-0.2,1.3
		c-0.1,0.4-0.3,0.7-0.5,1s-0.5,0.5-0.9,0.7s-0.7,0.3-1.2,0.3c-0.5,0-0.9-0.1-1.2-0.3c-0.4-0.2-0.6-0.4-0.9-0.7
		c-0.2-0.3-0.4-0.6-0.5-1c-0.1-0.4-0.2-0.8-0.2-1.1c0-0.5,0.1-0.9,0.2-1.3c0.1-0.4,0.3-0.8,0.6-1.1s0.5-0.5,0.9-0.7
		C41.3,93.2,41.7,93.1,42.1,93.1z M40.3,96.3c0,0.3,0,0.6,0.1,0.9c0.1,0.3,0.2,0.5,0.3,0.7s0.3,0.4,0.6,0.5c0.2,0.1,0.5,0.2,0.7,0.2
		s0.5-0.1,0.7-0.2c0.2-0.1,0.4-0.3,0.6-0.5c0.2-0.2,0.3-0.5,0.3-0.7c0.1-0.3,0.1-0.6,0.1-0.9c0-0.3,0-0.7-0.1-1
		c-0.1-0.3-0.2-0.5-0.3-0.7c-0.2-0.2-0.3-0.4-0.6-0.5C42.6,94,42.4,94,42.1,94c-0.3,0-0.5,0.1-0.7,0.2c-0.2,0.1-0.4,0.3-0.6,0.5
		c-0.2,0.2-0.3,0.5-0.3,0.7C40.4,95.7,40.3,96,40.3,96.3z"/>
	<path class="st0" d="M46.5,93.1c0.1,0,0.3,0,0.4,0.1c0.1,0.1,0.2,0.2,0.2,0.5v0.1l0,0c0.2-0.3,0.4-0.5,0.7-0.6
		c0.3-0.1,0.6-0.2,0.9-0.2c0.7,0,1.3,0.4,1.8,1.1c0.3-0.4,0.6-0.7,0.9-0.8c0.3-0.2,0.7-0.3,1.1-0.3c0.3,0,0.6,0.1,0.9,0.2
		c0.3,0.1,0.5,0.3,0.7,0.5s0.4,0.5,0.5,0.7c0.1,0.3,0.2,0.6,0.2,1v3.6c0,0.2,0,0.3-0.1,0.4s-0.2,0.2-0.4,0.2s-0.3-0.1-0.4-0.2
		s-0.1-0.2-0.1-0.4v-3.6c0-0.4-0.1-0.8-0.4-1s-0.6-0.4-1-0.4c-0.4,0-0.8,0.1-1,0.4s-0.4,0.6-0.4,1v3.6c0,0.2,0,0.3-0.1,0.4
		c-0.1,0.1-0.2,0.2-0.4,0.2s-0.3-0.1-0.4-0.2c-0.1-0.1-0.1-0.2-0.1-0.4v-3.6c0-0.4-0.1-0.8-0.4-1s-0.6-0.4-1-0.4
		c-0.4,0-0.8,0.1-1,0.4s-0.4,0.6-0.4,1v3.6c0,0.2,0,0.3-0.1,0.4s-0.2,0.2-0.4,0.2c-0.2,0-0.3-0.1-0.4-0.2S46,99.2,46,99.1v-5.4
		c0-0.2,0-0.3,0.1-0.4C46.2,93.1,46.4,93.1,46.5,93.1z"/>
	<path class="st0" d="M58.5,93.1c0.4,0,0.8,0.1,1.2,0.3s0.6,0.4,0.9,0.7c0.2,0.3,0.4,0.6,0.5,1c0.1,0.4,0.2,0.7,0.2,1.1
		c0,0.2,0,0.4-0.1,0.5c-0.1,0.1-0.2,0.1-0.5,0.1h-4c0,0.6,0.2,1.1,0.5,1.4s0.8,0.5,1.4,0.5c0.3,0,0.6,0,0.9-0.2
		c0.3-0.1,0.5-0.2,0.8-0.4c0.2-0.2,0.4-0.3,0.5-0.3c0.1,0,0.2,0,0.3,0.1c0.1,0.1,0.1,0.2,0.1,0.3c0,0.1-0.1,0.3-0.2,0.4
		c-0.1,0.1-0.2,0.2-0.4,0.3s-0.3,0.2-0.5,0.3c-0.2,0.1-0.4,0.2-0.7,0.2c-0.2,0.1-0.5,0.1-0.8,0.1c-0.5,0-0.9-0.1-1.2-0.2
		c-0.4-0.2-0.7-0.4-0.9-0.7s-0.4-0.6-0.6-1c-0.1-0.4-0.2-0.8-0.2-1.3c0-0.4,0.1-0.9,0.2-1.3c0.1-0.4,0.3-0.7,0.6-1
		c0.2-0.3,0.5-0.5,0.9-0.7S58.1,93.1,58.5,93.1z M60.2,95.9c0-0.6-0.2-1.1-0.5-1.4C59.4,94.2,59,94,58.4,94c-0.5,0-0.9,0.2-1.2,0.5
		c-0.3,0.3-0.5,0.8-0.5,1.5H60.2z"/>
	<path class="st0" d="M63.1,91.2c0.2,0,0.3,0.1,0.4,0.2c0.1,0.1,0.1,0.2,0.1,0.4v1.4h0.4c0.4,0,0.5,0.2,0.5,0.5s-0.2,0.5-0.5,0.5
		h-0.4v5c0,0.2,0,0.3-0.1,0.4s-0.2,0.2-0.4,0.2s-0.3-0.1-0.4-0.2s-0.1-0.2-0.1-0.4v-5h-0.4c-0.4,0-0.5-0.2-0.5-0.5s0.2-0.5,0.5-0.5
		h0.4v-1.4c0-0.2,0-0.3,0.1-0.4C62.8,91.3,62.9,91.2,63.1,91.2z"/>
	<path class="st0" d="M65.9,90.3c0.2,0,0.3,0.1,0.4,0.2s0.1,0.2,0.1,0.4v3.1l0,0c0.2-0.3,0.5-0.5,0.8-0.6s0.6-0.2,0.9-0.2
		c0.3,0,0.6,0.1,0.9,0.2c0.3,0.1,0.5,0.3,0.7,0.5c0.2,0.2,0.4,0.5,0.5,0.7c0.1,0.3,0.2,0.6,0.2,1v3.6c0,0.2,0,0.3-0.1,0.4
		s-0.2,0.2-0.4,0.2c-0.2,0-0.3-0.1-0.4-0.2c-0.1-0.1-0.1-0.2-0.1-0.4v-3.5c0-0.5-0.1-0.8-0.4-1.1c-0.3-0.3-0.6-0.4-1.1-0.4
		c-0.2,0-0.4,0-0.6,0.1s-0.3,0.2-0.5,0.3s-0.2,0.3-0.3,0.5c-0.1,0.2-0.1,0.4-0.1,0.6v3.5c0,0.2,0,0.3-0.1,0.4s-0.2,0.2-0.4,0.2
		c-0.2,0-0.3-0.1-0.4-0.2s-0.1-0.2-0.1-0.4v-8.2c0-0.2,0-0.3,0.1-0.4S65.7,90.3,65.9,90.3z"/>
	<path class="st0" d="M72.3,90.9c0.2,0,0.3,0.1,0.5,0.2s0.2,0.3,0.2,0.5c0,0.2-0.1,0.3-0.2,0.5s-0.3,0.2-0.5,0.2S72,92.1,71.9,92
		c-0.1-0.1-0.2-0.3-0.2-0.5c0-0.2,0.1-0.3,0.2-0.5S72.2,90.9,72.3,90.9z M72.3,93.1c0.2,0,0.3,0.1,0.4,0.2c0.1,0.1,0.1,0.2,0.1,0.4
		v5.4c0,0.2,0,0.3-0.1,0.4s-0.2,0.2-0.4,0.2S72,99.5,72,99.4s-0.1-0.2-0.1-0.4v-5.4c0-0.2,0-0.3,0.1-0.4
		C72,93.1,72.2,93.1,72.3,93.1z"/>
	<path class="st0" d="M74.8,93.1c0.1,0,0.2,0,0.4,0.1c0.1,0.1,0.2,0.3,0.2,0.5v0.2l0,0c0.2-0.3,0.5-0.5,0.8-0.6s0.6-0.2,0.9-0.2
		c0.3,0,0.6,0.1,0.9,0.2s0.5,0.3,0.7,0.5c0.2,0.2,0.4,0.5,0.5,0.7c0.1,0.3,0.2,0.6,0.2,1v3.6c0,0.2,0,0.3-0.1,0.4
		c-0.1,0.1-0.2,0.2-0.4,0.2s-0.3-0.1-0.4-0.2c-0.1-0.1-0.1-0.2-0.1-0.4v-3.5c0-0.5-0.1-0.8-0.4-1.1c-0.3-0.3-0.6-0.4-1.1-0.4
		c-0.2,0-0.4,0-0.6,0.1s-0.3,0.2-0.5,0.3s-0.2,0.3-0.3,0.5c-0.1,0.2-0.1,0.4-0.1,0.6v3.5c0,0.2,0,0.3-0.1,0.4s-0.2,0.2-0.4,0.2
		s-0.3-0.1-0.4-0.2s-0.1-0.2-0.1-0.4v-5.4c0-0.2,0-0.3,0.1-0.4C74.5,93.1,74.6,93.1,74.8,93.1z"/>
	<path class="st0" d="M83.2,93.1c0.3,0,0.6,0.1,0.9,0.2s0.5,0.3,0.7,0.6h0v-0.3c0-0.1,0.1-0.2,0.2-0.3c0.1-0.1,0.2-0.1,0.4-0.1
		c0.1,0,0.3,0,0.3,0.1c0.1,0.1,0.1,0.2,0.1,0.4v5.6c0,0.4-0.1,0.8-0.2,1.2c-0.1,0.4-0.3,0.7-0.6,1s-0.5,0.5-0.9,0.6
		c-0.4,0.1-0.8,0.2-1.2,0.2c-0.3,0-0.6,0-0.8-0.1c-0.3-0.1-0.6-0.2-0.8-0.3c-0.2-0.1-0.4-0.2-0.6-0.4s-0.2-0.3-0.2-0.4
		s0-0.3,0.1-0.3c0.1-0.1,0.2-0.1,0.3-0.1c0.1,0,0.3,0,0.4,0.1c0.2,0.2,0.5,0.3,0.8,0.4s0.6,0.2,0.9,0.2c0.6,0,1-0.2,1.3-0.5
		s0.4-0.8,0.4-1.4v-0.6h0c-0.2,0.3-0.4,0.5-0.7,0.7c-0.3,0.2-0.6,0.2-1,0.2c-0.4,0-0.8-0.1-1.2-0.3c-0.3-0.2-0.6-0.4-0.9-0.7
		c-0.2-0.3-0.4-0.6-0.5-1s-0.2-0.8-0.2-1.2c0-0.4,0.1-0.9,0.2-1.3c0.1-0.4,0.3-0.8,0.5-1.1c0.2-0.3,0.5-0.5,0.9-0.7
		S82.8,93.1,83.2,93.1z M81.5,96.3c0,0.3,0,0.6,0.1,0.9c0.1,0.3,0.2,0.5,0.3,0.7c0.1,0.2,0.3,0.4,0.5,0.5c0.2,0.1,0.5,0.2,0.8,0.2
		c0.3,0,0.5-0.1,0.8-0.2c0.2-0.1,0.4-0.3,0.6-0.5c0.1-0.2,0.3-0.5,0.3-0.7s0.1-0.6,0.1-0.9c0-0.3,0-0.6-0.1-0.9
		c-0.1-0.3-0.2-0.5-0.3-0.7c-0.2-0.2-0.3-0.4-0.6-0.5C83.8,94,83.5,94,83.2,94c-0.3,0-0.5,0.1-0.7,0.2c-0.2,0.1-0.4,0.3-0.6,0.5
		c-0.2,0.2-0.3,0.5-0.3,0.7C81.5,95.7,81.5,96,81.5,96.3z"/>
	<path class="st0" d="M92.4,93.1c0.2,0,0.5,0,0.7,0.1c0.3,0.1,0.5,0.1,0.7,0.2c0.2,0.1,0.4,0.2,0.5,0.4s0.2,0.3,0.2,0.4
		c0,0.1,0,0.2-0.1,0.3s-0.2,0.1-0.4,0.1c-0.1,0-0.1,0-0.2,0s-0.1-0.1-0.2-0.1c-0.1-0.1-0.2-0.1-0.3-0.2c-0.1-0.1-0.2-0.1-0.3-0.2
		c-0.1,0-0.2-0.1-0.3-0.1c-0.1,0-0.3,0-0.4,0c-0.3,0-0.6,0.1-0.8,0.2c-0.2,0.1-0.3,0.3-0.3,0.6c0,0.2,0.1,0.3,0.3,0.5
		c0.2,0.1,0.5,0.3,0.9,0.5c0.3,0.1,0.6,0.2,0.8,0.3s0.4,0.2,0.6,0.3c0.3,0.2,0.6,0.4,0.7,0.6c0.1,0.2,0.2,0.4,0.2,0.6
		c0,0.3-0.1,0.6-0.2,0.8c-0.1,0.2-0.3,0.4-0.5,0.6c-0.2,0.2-0.4,0.3-0.7,0.4c-0.3,0.1-0.6,0.1-0.9,0.1c-0.3,0-0.6,0-0.9-0.1
		c-0.3-0.1-0.5-0.2-0.8-0.3c-0.2-0.1-0.4-0.2-0.5-0.4C90,98.7,90,98.5,90,98.4c0-0.1,0-0.3,0.1-0.3s0.2-0.1,0.3-0.1
		c0.2,0,0.3,0.1,0.6,0.3c0.2,0.2,0.5,0.3,0.7,0.4s0.5,0.1,0.7,0.1c0.4,0,0.7-0.1,0.9-0.3c0.2-0.2,0.3-0.4,0.3-0.6
		c0-0.2-0.1-0.4-0.3-0.6c-0.2-0.2-0.5-0.3-1-0.5c-0.3-0.1-0.6-0.3-0.9-0.4c-0.3-0.1-0.5-0.3-0.7-0.4s-0.3-0.3-0.4-0.5
		s-0.1-0.4-0.1-0.6c0-0.3,0.1-0.5,0.2-0.8s0.3-0.4,0.5-0.6c0.2-0.2,0.4-0.3,0.7-0.4S92.1,93.1,92.4,93.1z"/>
	<path class="st0" d="M95.5,93.1c0.2,0,0.3,0,0.4,0.2c0.1,0.1,0.2,0.2,0.2,0.4l1.4,4.4h0l1.3-4.1c0.1-0.2,0.1-0.4,0.2-0.6
		s0.2-0.2,0.4-0.2c0.2,0,0.3,0,0.4,0.1s0.1,0.2,0.2,0.3l1.4,4.4h0l1.4-4.4c0.1-0.4,0.3-0.5,0.6-0.5c0.2,0,0.3,0,0.4,0.1
		c0.1,0.1,0.1,0.2,0.1,0.3c0,0,0,0.1,0,0.2s-0.1,0.3-0.2,0.5L102,99c-0.1,0.2-0.2,0.4-0.3,0.4c-0.1,0.1-0.2,0.1-0.4,0.1
		c-0.3,0-0.5-0.2-0.6-0.5l-1.4-4.4h0L98,99.1c0,0.1-0.1,0.3-0.2,0.3c-0.1,0.1-0.2,0.1-0.4,0.1c-0.2,0-0.3-0.1-0.4-0.2
		s-0.2-0.2-0.2-0.4l-1.6-4.8c-0.1-0.2-0.1-0.4-0.2-0.5s0-0.1,0-0.2c0-0.1,0-0.2,0.1-0.3C95.2,93.1,95.4,93.1,95.5,93.1z"/>
	<path class="st0" d="M107.1,93.1c0.4,0,0.8,0.1,1.2,0.3s0.6,0.4,0.9,0.7c0.2,0.3,0.4,0.6,0.5,1c0.1,0.4,0.2,0.7,0.2,1.1
		c0,0.2,0,0.4-0.1,0.5s-0.2,0.1-0.5,0.1h-4c0,0.6,0.2,1.1,0.5,1.4s0.8,0.5,1.4,0.5c0.3,0,0.6,0,0.9-0.2c0.3-0.1,0.5-0.2,0.8-0.4
		c0.2-0.2,0.4-0.3,0.5-0.3c0.1,0,0.2,0,0.3,0.1c0.1,0.1,0.1,0.2,0.1,0.3c0,0.1-0.1,0.3-0.2,0.4c-0.1,0.1-0.2,0.2-0.4,0.3
		s-0.3,0.2-0.5,0.3c-0.2,0.1-0.4,0.2-0.7,0.2c-0.2,0.1-0.5,0.1-0.8,0.1c-0.5,0-0.9-0.1-1.2-0.2c-0.4-0.2-0.7-0.4-0.9-0.7
		s-0.4-0.6-0.6-1s-0.2-0.8-0.2-1.3c0-0.4,0.1-0.9,0.2-1.3c0.1-0.4,0.3-0.7,0.6-1c0.2-0.3,0.5-0.5,0.9-0.7S106.6,93.1,107.1,93.1z
		 M108.8,95.9c0-0.6-0.2-1.1-0.5-1.4c-0.3-0.4-0.7-0.5-1.2-0.5c-0.5,0-0.9,0.2-1.2,0.5c-0.3,0.3-0.5,0.8-0.5,1.5H108.8z"/>
	<path class="st0" d="M113.3,93.1c0.4,0,0.8,0.1,1.2,0.3s0.6,0.4,0.9,0.7c0.2,0.3,0.4,0.6,0.5,1c0.1,0.4,0.2,0.7,0.2,1.1
		c0,0.2,0,0.4-0.1,0.5s-0.2,0.1-0.5,0.1h-4c0,0.6,0.2,1.1,0.5,1.4s0.8,0.5,1.4,0.5c0.3,0,0.6,0,0.9-0.2c0.3-0.1,0.5-0.2,0.8-0.4
		c0.2-0.2,0.4-0.3,0.5-0.3c0.1,0,0.2,0,0.3,0.1c0.1,0.1,0.1,0.2,0.1,0.3c0,0.1-0.1,0.3-0.2,0.4c-0.1,0.1-0.2,0.2-0.4,0.3
		s-0.3,0.2-0.5,0.3c-0.2,0.1-0.4,0.2-0.7,0.2c-0.2,0.1-0.5,0.1-0.8,0.1c-0.5,0-0.9-0.1-1.2-0.2c-0.4-0.2-0.7-0.4-0.9-0.7
		s-0.4-0.6-0.6-1s-0.2-0.8-0.2-1.3c0-0.4,0.1-0.9,0.2-1.3c0.1-0.4,0.3-0.7,0.6-1c0.2-0.3,0.5-0.5,0.9-0.7S112.9,93.1,113.3,93.1z
		 M115,95.9c0-0.6-0.2-1.1-0.5-1.4c-0.3-0.4-0.7-0.5-1.2-0.5c-0.5,0-0.9,0.2-1.2,0.5c-0.3,0.3-0.5,0.8-0.5,1.5H115z"/>
	<path class="st0" d="M117.9,91.2c0.2,0,0.3,0.1,0.4,0.2c0.1,0.1,0.1,0.2,0.1,0.4v1.4h0.4c0.4,0,0.5,0.2,0.5,0.5s-0.2,0.5-0.5,0.5
		h-0.4v5c0,0.2,0,0.3-0.1,0.4s-0.2,0.2-0.4,0.2s-0.3-0.1-0.4-0.2s-0.1-0.2-0.1-0.4v-5H117c-0.4,0-0.5-0.2-0.5-0.5s0.2-0.5,0.5-0.5
		h0.4v-1.4c0-0.2,0-0.3,0.1-0.4C117.6,91.3,117.8,91.2,117.9,91.2z"/>
	<path class="st0" d="M121.3,98.4c0.2,0,0.3,0.1,0.4,0.2c0.1,0.1,0.2,0.3,0.2,0.4c0,0.2-0.1,0.3-0.2,0.4c-0.1,0.1-0.3,0.2-0.4,0.2
		c-0.2,0-0.3-0.1-0.4-0.2c-0.1-0.1-0.2-0.3-0.2-0.4c0-0.2,0.1-0.3,0.2-0.4C121,98.4,121.1,98.4,121.3,98.4z M121.3,90.9
		c0.2,0,0.3,0.1,0.4,0.2s0.1,0.2,0.1,0.4v5.2c0,0.2,0,0.3-0.1,0.4c-0.1,0.1-0.2,0.2-0.4,0.2s-0.3-0.1-0.4-0.2
		c-0.1-0.1-0.1-0.2-0.1-0.4v-5.2c0-0.2,0-0.3,0.1-0.4S121.1,90.9,121.3,90.9z"/>
</g>
<path class="st3" d="M81.3,66.9C81.3,66.9,81.3,66.9,81.3,66.9L81.3,66.9z"/>
<path class="st3" d="M79.3,66.6c0,0.2-0.2,0.3-0.3,0.3h-5.1c0-0.1,0-0.2,0-0.3v-1.4c0-0.1,0-0.2,0-0.3H79c0.2,0,0.3,0.2,0.3,0.3
	V66.6z"/>
<path class="st3" d="M73.2,62.9L73.2,62.9C73.2,62.9,73.2,62.9,73.2,62.9"/>
<path class="st3" d="M71.9,66.6c0,0.2-0.2,0.3-0.3,0.3h-5.5c-0.2,0-0.3-0.2-0.3-0.3v-1.4c0-0.2,0.2-0.3,0.3-0.3h5.5
	c0.2,0,0.3,0.2,0.3,0.3L71.9,66.6z"/>
<rect x="51.8" y="65.4" class="st3" width="4.2" height="1.5"/>
<rect x="51.4" y="56.2" class="st3" width="1.6" height="7.2"/>
<rect x="45.2" y="65.4" class="st3" width="4.6" height="1.5"/>
<rect x="45.2" y="56.2" class="st3" width="1.6" height="7.2"/>
<rect x="48.8" y="56.2" class="st3" width="0.6" height="7.2"/>
<path class="st3" d="M41.5,54.2l0.3-1.3c0.8,0,1.4-0.5,1.6-1.3l0.7-2.8h5.5c0.6,0,1-0.5,1-1c0-0.6-0.5-1-1-1h-5l1.9-7.4
	c0.4-1.5-0.5-3-2-3.4c0.1-0.1,0.1-0.1,0.2-0.2c0.1-0.1,0.3-0.2,0.4-0.3c0.6,0.3,1.2,0.6,1.9,0.8V37c0,1.5,1.3,2.8,2.8,2.8
	c1.5,0,2.8-1.3,2.8-2.8v-1c0.4-0.1,0.7-0.3,1.1-0.5c0.1,0.1,0.3,0.2,0.4,0.3c1.2,1,1.9,2.5,1.9,4.2v6.8h-1.7c-0.6,0-1,0.5-1,1
	c0,0.6,0.5,1,1,1h1.9l1.2,5.4H41.5z"/>
<rect x="40.4" y="49.4" transform="matrix(0.2492 -0.9685 0.9685 0.2492 -17.7491 77.2834)" class="st3" width="1.2" height="1.5"/>
<path class="st3" d="M43.2,38.5c0.1-0.3,0.4-0.6,0.7-0.6c0.1,0,0.1,0,0.2,0c0.4,0.1,0.6,0.5,0.5,0.9l-2.3,8.9l-1.5-0.4L43.2,38.5z"
	/>
<path class="st3" d="M50.7,36.6V37c0,0.4-0.3,0.8-0.8,0.8c-0.4,0-0.8-0.3-0.8-0.8v-0.4c0.1,0,0.2,0,0.3,0
	C49.9,36.7,50.3,36.6,50.7,36.6"/>
<path class="st3" d="M49.5,34.6c-3.9,0-7.1-3.2-7.1-7.2l0-4.1c0.3,0,0.7,0,1,0c2.9,0,5.7-0.9,8-2.6c1.6,1,3.4,1.8,5.3,2.1
	c0,1.1,0,3,0,4.6C56.6,31.4,53.4,34.6,49.5,34.6"/>
<path class="st3" d="M39.2,28v-5.3c0-5.4,4.4-9.8,9.7-9.8h1.2c5.4,0,9.7,4.4,9.7,9.8V28c0,2.9-1.3,5.6-3.3,7.4c-0.3-0.4-0.6-0.7-1-1
	c1.9-1.7,3.1-4.2,3.1-6.9c0-1.8,0-4,0-5c0-0.8-0.6-1.5-1.4-1.6c-1.8-0.2-3.5-0.9-5-1.9c-0.3-0.2-0.6-0.3-0.9-0.3
	c-0.4,0-0.7,0.1-1,0.3c-2,1.5-4.5,2.4-7,2.4c-0.4,0-0.8,0-1.2-0.1c-0.5,0-0.9,0.1-1.3,0.4c-0.3,0.3-0.5,0.7-0.5,1.2l0,4.5
	c0,2.8,1.2,5.2,3.1,6.9c-0.4,0.3-0.7,0.6-1,1C40.5,33.6,39.2,30.9,39.2,28"/>
<path class="st3" d="M61.4,16.1h0.3V18c0,0.5,0,1,0.1,1.4h-0.4c0,0,0,0,0,0c-0.2-0.8-0.6-1.6-1-2.4C60.4,16.5,60.8,16.1,61.4,16.1"
	/>
<path class="st3" d="M61.4,11.8c0-5.3,4.3-9.6,9.6-9.6h0.5c5.3,0,9.6,4.3,9.6,9.6v1.4l-3.8,0c-0.6,0-1,0.5-1,1c0,0.6,0.5,1,1,1H79
	V18c0,4.3-3.4,7.8-7.6,7.8c-4.2,0-7.6-3.5-7.6-7.8v-2.8h1.8c0.5,0,0.9-0.3,1.2-0.7l0.6-1h0.2l0.6,1c0.2,0.4,0.7,0.7,1.2,0.7h3.6
	c0.6,0,1-0.5,1-1c0-0.6-0.5-1-1-1h-3.2l-1.2-2c-0.2-0.4-0.6-0.6-1.1-0.6c-0.4,0-0.9,0.2-1.1,0.6l-1.2,2h-3.7V11.8z"/>
<path class="st3" d="M82.3,17.2v1.3c0,0.6-0.5,1-1,1h-0.4C80.9,19,81,18.5,81,18v-1.9h0.3C81.8,16.1,82.3,16.6,82.3,17.2"/>
<path class="st3" d="M81.2,25.4c0,0.2-0.2,0.3-0.3,0.3h-3.4c-0.1,0-0.1-0.1-0.2-0.1c1.4-1.1,2.4-2.6,3.1-4.2h0.8V25.4z"/>
<path class="st3" d="M61.8,31.7V35L58,38.9c-0.1-0.6-0.2-1.2-0.5-1.7c1.5-1.2,2.6-2.7,3.4-4.5L61.8,31.7z"/>
<path class="st3" d="M61.8,28.9c0-0.3,0-0.6,0-0.9v-0.2h1c-0.1,0.1-0.1,0.2-0.2,0.3c-0.2,0.1-0.3,0.3-0.5,0.4L61.8,28.9z"/>
<path class="st3" d="M65.1,25.8h-3.3v-3.1c0-0.4,0-0.8-0.1-1.3h0.5c0.6,1.7,1.7,3.1,3.1,4.2C65.3,25.7,65.2,25.7,65.1,25.8"/>
<path class="st3" d="M70.3,27.7c0.3,0,0.7,0.1,1,0.1c0.3,0,0.7,0,1-0.1c0,0.5-0.5,0.9-1,0.9C70.8,28.7,70.3,28.3,70.3,27.7"/>
<path class="st3" d="M71.3,30.7c1.7,0,3-1.4,3-3v-0.4c0.1,0,0.2-0.1,0.3-0.1H75c2.1,0,3.8,1.7,3.8,3.8v9.7H63.8V31
	c0-2.1,1.7-3.8,3.8-3.8H68c0.1,0,0.2,0.1,0.3,0.1v0.4C68.3,29.3,69.6,30.7,71.3,30.7"/>
<path class="st3" d="M65.8,62.9L65.8,62.9C65.8,62.9,65.8,62.9,65.8,62.9"/>
<rect x="65.8" y="52.2" class="st3" width="2.6" height="10.6"/>
<rect x="70.5" y="52.2" class="st3" width="0.7" height="10.6"/>
<polygon class="st3" points="80.1,50.2 62.6,50.2 63.7,42.7 79,42.7 "/>
<path class="st3" d="M80.8,37.9l1.1,4.3L81,42.4c0,0-0.1-0.8-0.2-0.9V37.9z"/>
<polygon class="st3" points="82.9,46 81.5,46.4 81.3,44.4 82.4,44.1 "/>
<path class="st3" d="M71.9,16.8c-0.6,0-1,0.5-1,1v0.5h-0.1c-0.6,0-1,0.5-1,1c0,0.6,0.5,1,1,1h0.7c0.8,0,1.5-0.7,1.5-1.5v-1
	C72.9,17.2,72.4,16.8,71.9,16.8"/>
<path class="st3" d="M75.3,15.8c-0.6,0-1,0.5-1,1V18c0,0.6,0.5,1,1,1c0.6,0,1-0.5,1-1v-1.1C76.3,16.3,75.9,15.8,75.3,15.8"/>
<path class="st3" d="M67.3,15.8c-0.6,0-1,0.5-1,1V18c0,0.6,0.5,1,1,1c0.6,0,1-0.5,1-1v-1.1C68.3,16.3,67.8,15.8,67.3,15.8"/>
<path class="st3" d="M73.3,20.6c-0.6,0-1,0.5-1,1c0,0.6-0.5,1-1,1c-0.6,0-1-0.5-1-1c0-0.6-0.5-1-1-1c-0.6,0-1,0.5-1,1
	c0,1.7,1.4,3,3,3c1.7,0,3-1.4,3-3C74.3,21.1,73.9,20.6,73.3,20.6"/>
<path class="st3" d="M49.9,25.8c-0.6,0-1,0.5-1,1v0.2c-0.5,0.1-0.8,0.5-0.8,1c0,0.6,0.5,1,1,1h0.3c0.8,0,1.5-0.7,1.5-1.5v-0.7
	C50.9,26.3,50.4,25.8,49.9,25.8"/>
<path class="st3" d="M53.4,25.2c-0.6,0-1,0.5-1,1v0.6c0,0.6,0.5,1,1,1c0.6,0,1-0.5,1-1v-0.6C54.4,25.6,54,25.2,53.4,25.2"/>
<path class="st3" d="M45.6,25.2c-0.6,0-1,0.5-1,1v0.6c0,0.6,0.5,1,1,1c0.6,0,1-0.5,1-1v-0.6C46.6,25.6,46.1,25.2,45.6,25.2"/>
<path class="st3" d="M52.3,29.5c-0.5-0.2-1.1,0-1.3,0.6c-0.2,0.6-0.8,1-1.5,1c-0.6,0-1.2-0.4-1.5-1c-0.2-0.5-0.8-0.8-1.3-0.6
	c-0.5,0.2-0.8,0.8-0.6,1.3c0.6,1.4,1.9,2.3,3.3,2.3c1.5,0,2.8-0.9,3.3-2.3C53,30.3,52.8,29.7,52.3,29.5"/>
<path class="st3" d="M57.3,67.8l0-2.7L55,64.3l-1.2-1.5l0.1-7.7l4.8-0.2l-1.3-5.2l-0.3-4.7v-3.7l2.9-2.9l2.6-2.2l0.3,5.2L62.1,47
	l-0.5,4l3,0.4l0,16.4L57.3,67.8z M87.8,66.9h-6.4v-1.7c0-1.3-1.1-2.4-2.4-2.4h-1.1v-7.5c0-0.6-0.5-1-1-1c-0.6,0-1,0.5-1,1v7.5h-2.6
	V52.2h2.6v3.1c0,0.6,0.5,1,1,1c0.6,0,1-0.5,1-1v-3.1h2.7c0.5,0,0.9-0.2,1.2-0.5c0.3-0.3,0.4-0.8,0.4-1.3l-0.3-2l1.9-0.5
	c0.9-0.2,1.4-1.1,1.2-2c0,0-4.1-15.9-4.3-16.2c-0.2-0.7-0.4-1.3-0.8-1.8h1c1.3,0,2.4-1.1,2.4-2.4v-4.7c0.7-0.6,1.1-1.4,1.1-2.3v-1.3
	c0-0.9-0.4-1.7-1.1-2.3v-1c0,0,0,0,0,0c0,0,0,0,0,0l0-2.1c0-6.4-5.2-11.7-11.7-11.7h-0.5c-6.4,0-11.7,5.2-11.7,11.7v2.1c0,0,0,0,0,0
	c0,0,0,0,0,0v1c-0.1,0.1-0.2,0.2-0.3,0.3c-2.2-2.6-5.4-4.2-9-4.2h-1.2c-6.5,0-11.7,5.3-11.7,11.8V28c0,3.7,1.7,7,4.3,9.1
	c-0.2,0.5-0.4,1-0.5,1.6l-3,11.6c-0.1,0.4,0,0.9,0.2,1.3c0.2,0.4,0.6,0.7,1,0.8l0.5,0.1l-0.5,2.1c-0.1,0.4,0,0.8,0.2,1.1
	c0.2,0.3,0.6,0.5,1,0.5h2.6v10.7h-9c-0.6,0-1,0.5-1,1c0,0.6,0.5,1,1,1h53.6c0.6,0,1-0.5,1-1C88.8,67.3,88.3,66.9,87.8,66.9z"/>
<rect x="71.9" y="50.6" class="st4" width="4.8" height="13.9"/>
<path class="st0" d="M81.3,66.9C81.3,66.9,81.3,66.9,81.3,66.9L81.3,66.9z M79.3,66.6c0,0.2-0.2,0.3-0.3,0.3h-5.1c0-0.1,0-0.2,0-0.3
	v-1.4c0-0.1,0-0.2,0-0.3H79c0.2,0,0.3,0.2,0.3,0.3V66.6z M73.2,62.9L73.2,62.9C73.2,62.9,73.2,62.9,73.2,62.9z M71.9,66.6
	c0,0.2-0.2,0.3-0.3,0.3h-5.5c-0.2,0-0.3-0.2-0.3-0.3v-1.4c0-0.2,0.2-0.3,0.3-0.3h5.5c0.2,0,0.3,0.2,0.3,0.3L71.9,66.6z M58,66.9
	v-1.8c0-0.9-0.8-1.7-1.7-1.7H55v-7.2h3.4c0.4,0,0.8-0.2,1-0.5c0.3-0.3,0.3-0.7,0.3-1.1L58.2,48c0-0.1-0.1-0.2-0.1-0.3v-6.1l3.8-3.8
	v3.7c0,0.1-1.3,8.8-1.3,8.8c-0.1,0.5,0.1,0.9,0.4,1.3c0.3,0.3,0.7,0.5,1.2,0.5h1.7v12.9c0,0,0,0,0,0c0,0,0,0,0,0v1.4
	c0,0.1,0,0.2,0,0.3H58z M56,66.9h-4.2v-1.5H56V66.9z M51.4,56.2H53v7.2h-1.6V56.2z M49.8,66.9h-4.6v-1.5h4.6V66.9z M46.8,56.2v7.2
	h-1.6v-7.2L46.8,56.2z M49.4,56.2v7.2h-0.6v-7.2L49.4,56.2z M41.5,54.2l0.3-1.3c0.8,0,1.4-0.5,1.6-1.3l0.7-2.8h5.5c0.6,0,1-0.5,1-1
	c0-0.6-0.5-1-1-1h-5l1.9-7.4c0.4-1.5-0.5-3-2-3.4c0.1-0.1,0.1-0.1,0.2-0.2c0.1-0.1,0.3-0.2,0.4-0.3c0.6,0.3,1.2,0.6,1.9,0.8V37
	c0,1.5,1.3,2.8,2.8,2.8c1.5,0,2.8-1.3,2.8-2.8v-1c0.4-0.1,0.7-0.3,1.1-0.5c0.1,0.1,0.3,0.2,0.4,0.3c1.2,1,1.9,2.5,1.9,4.2v6.8h-1.7
	c-0.6,0-1,0.5-1,1c0,0.6,0.5,1,1,1h1.9l1.2,5.4H41.5z M40.1,50.5l0.3-1.1l1.4,0.4l-0.3,1.1L40.1,50.5z M43.2,38.5
	c0.1-0.3,0.4-0.6,0.7-0.6c0.1,0,0.1,0,0.2,0c0.4,0.1,0.6,0.5,0.5,0.9l-2.3,8.9l-1.5-0.4L43.2,38.5z M50.7,36.6V37
	c0,0.4-0.3,0.8-0.8,0.8c-0.4,0-0.8-0.3-0.8-0.8v-0.4c0.1,0,0.2,0,0.3,0C49.9,36.7,50.3,36.6,50.7,36.6z M49.5,34.6
	c-3.9,0-7.1-3.2-7.1-7.2l0-4.1c0.3,0,0.7,0,1,0c2.9,0,5.7-0.9,8-2.6c1.6,1,3.4,1.8,5.3,2.1c0,1.1,0,3,0,4.6
	C56.6,31.4,53.4,34.6,49.5,34.6z M39.2,28v-5.3c0-5.4,4.4-9.8,9.7-9.8h1.2c5.4,0,9.7,4.4,9.7,9.8V28c0,2.9-1.3,5.6-3.3,7.4
	c-0.3-0.4-0.6-0.7-1-1c1.9-1.7,3.1-4.2,3.1-6.9c0-1.8,0-4,0-5c0-0.8-0.6-1.5-1.4-1.6c-1.8-0.2-3.5-0.9-5-1.9
	c-0.3-0.2-0.6-0.3-0.9-0.3c-0.4,0-0.7,0.1-1,0.3c-2,1.5-4.5,2.4-7,2.4c-0.4,0-0.8,0-1.2-0.1c-0.5,0-0.9,0.1-1.3,0.4
	c-0.3,0.3-0.5,0.7-0.5,1.2l0,4.5c0,2.8,1.2,5.2,3.1,6.9c-0.4,0.3-0.7,0.6-1,1C40.5,33.6,39.2,30.9,39.2,28z M61.4,16.1h0.3V18
	c0,0.5,0,1,0.1,1.4h-0.4c0,0,0,0,0,0c-0.2-0.8-0.6-1.6-1-2.4C60.4,16.5,60.8,16.1,61.4,16.1z M61.4,11.8c0-5.3,4.3-9.6,9.6-9.6h0.5
	c5.3,0,9.6,4.3,9.6,9.6v1.4l-3.8,0c-0.6,0-1,0.5-1,1c0,0.6,0.5,1,1,1H79V18c0,4.3-3.4,7.8-7.6,7.8c-4.2,0-7.6-3.5-7.6-7.8v-2.8h1.8
	c0.5,0,0.9-0.3,1.2-0.7l0.6-1h0.2l0.6,1c0.2,0.4,0.7,0.7,1.2,0.7h3.6c0.6,0,1-0.5,1-1c0-0.6-0.5-1-1-1h-3.2l-1.2-2
	c-0.2-0.4-0.6-0.6-1.1-0.6c-0.4,0-0.9,0.2-1.1,0.6l-1.2,2h-3.7V11.8z M82.3,17.2v1.3c0,0.6-0.5,1-1,1h-0.4C80.9,19,81,18.5,81,18
	v-1.9h0.3C81.8,16.1,82.3,16.6,82.3,17.2z M81.2,25.4c0,0.2-0.2,0.3-0.3,0.3h-3.4c-0.1,0-0.1-0.1-0.2-0.1c1.4-1.1,2.4-2.6,3.1-4.2
	h0.8V25.4z M61.8,31.7V35L58,38.9c-0.1-0.6-0.2-1.2-0.5-1.7c1.5-1.2,2.6-2.7,3.4-4.5L61.8,31.7z M61.8,28.9c0-0.3,0-0.6,0-0.9v-0.2
	h1c-0.1,0.1-0.1,0.2-0.2,0.3c-0.2,0.1-0.3,0.3-0.5,0.4L61.8,28.9z M65.1,25.8h-3.3v-3.1c0-0.4,0-0.8-0.1-1.3h0.5
	c0.6,1.7,1.7,3.1,3.1,4.2C65.3,25.7,65.2,25.7,65.1,25.8z M70.3,27.7c0.3,0,0.7,0.1,1,0.1c0.3,0,0.7,0,1-0.1c0,0.5-0.5,0.9-1,0.9
	C70.8,28.7,70.3,28.3,70.3,27.7z M71.3,30.7c1.7,0,3-1.4,3-3v-0.4c0.1,0,0.2-0.1,0.3-0.1H75c2.1,0,3.8,1.7,3.8,3.8v9.7H63.8V31
	c0-2.1,1.7-3.8,3.8-3.8H68c0.1,0,0.2,0.1,0.3,0.1v0.4C68.3,29.3,69.6,30.7,71.3,30.7z M65.8,62.9L65.8,62.9
	C65.8,62.9,65.8,62.9,65.8,62.9z M65.8,62.9V52.2h2.6v10.6H65.8z M71.2,52.2v10.6h-0.7V52.2H71.2z M80.1,50.2H62.6l1.1-7.5H79
	L80.1,50.2z M80.8,37.9l1.1,4.3L81,42.4c0,0-0.1-0.8-0.2-0.9V37.9z M82.9,46l-1.3,0.3l-0.3-1.9l1.1-0.3L82.9,46z M87.8,66.9h-6.4
	v-1.7c0-1.3-1.1-2.4-2.4-2.4h-1.1v-7.5c0-0.6-0.5-1-1-1c-0.6,0-1,0.5-1,1v7.5h-2.6V52.2h2.6v3.1c0,0.6,0.5,1,1,1c0.6,0,1-0.5,1-1
	v-3.1h2.7c0.5,0,0.9-0.2,1.2-0.5c0.3-0.3,0.4-0.8,0.4-1.3l-0.3-2l1.9-0.5c0.9-0.2,1.4-1.1,1.2-2c0,0-4.1-15.9-4.3-16.2
	c-0.2-0.7-0.4-1.3-0.8-1.8h1c1.3,0,2.4-1.1,2.4-2.4v-4.7c0.7-0.6,1.1-1.4,1.1-2.3v-1.3c0-0.9-0.4-1.7-1.1-2.3v-1c0,0,0,0,0,0
	c0,0,0,0,0,0v-2.1c0-6.4-5.2-11.7-11.7-11.7h-0.5c-6.4,0-11.7,5.2-11.7,11.7v2.1c0,0,0,0,0,0c0,0,0,0,0,0v1
	c-0.1,0.1-0.2,0.2-0.3,0.3c-2.2-2.6-5.4-4.2-9-4.2h-1.2c-6.5,0-11.7,5.3-11.7,11.8V28c0,3.7,1.7,7,4.3,9.1c-0.2,0.5-0.4,1-0.5,1.6
	l-3,11.6c-0.1,0.4,0,0.9,0.2,1.3c0.2,0.4,0.6,0.7,1,0.8l0.5,0.1l-0.5,2.1c-0.1,0.4,0,0.8,0.2,1.1c0.2,0.3,0.6,0.5,1,0.5h2.6v10.7h-9
	c-0.6,0-1,0.5-1,1c0,0.6,0.5,1,1,1h53.6c0.6,0,1-0.5,1-1C88.8,67.3,88.3,66.9,87.8,66.9z"/>
<path class="st0" d="M71.9,16.8c-0.6,0-1,0.5-1,1v0.5h-0.1c-0.6,0-1,0.5-1,1c0,0.6,0.5,1,1,1h0.7c0.8,0,1.5-0.7,1.5-1.5v-1
	C72.9,17.2,72.4,16.8,71.9,16.8"/>
<path class="st0" d="M75.3,15.8c-0.6,0-1,0.5-1,1V18c0,0.6,0.5,1,1,1c0.6,0,1-0.5,1-1v-1.1C76.3,16.3,75.9,15.8,75.3,15.8"/>
<path class="st0" d="M67.3,15.8c-0.6,0-1,0.5-1,1V18c0,0.6,0.5,1,1,1c0.6,0,1-0.5,1-1v-1.1C68.3,16.3,67.8,15.8,67.3,15.8"/>
<path class="st0" d="M73.3,20.6c-0.6,0-1,0.5-1,1c0,0.6-0.5,1-1,1s-1-0.5-1-1c0-0.6-0.5-1-1-1c-0.6,0-1,0.5-1,1c0,1.7,1.4,3,3,3
	c1.7,0,3-1.4,3-3C74.3,21.1,73.9,20.6,73.3,20.6"/>
<path class="st0" d="M49.9,25.8c-0.6,0-1,0.5-1,1v0.2c-0.5,0.1-0.8,0.5-0.8,1c0,0.6,0.5,1,1,1h0.3c0.8,0,1.5-0.7,1.5-1.5v-0.7
	C50.9,26.3,50.4,25.8,49.9,25.8"/>
<path class="st0" d="M53.4,25.2c-0.6,0-1,0.5-1,1v0.6c0,0.6,0.5,1,1,1c0.6,0,1-0.5,1-1v-0.6C54.4,25.6,54,25.2,53.4,25.2"/>
<path class="st0" d="M45.6,25.2c-0.6,0-1,0.5-1,1v0.6c0,0.6,0.5,1,1,1c0.6,0,1-0.5,1-1v-0.6C46.6,25.6,46.1,25.2,45.6,25.2"/>
<path class="st0" d="M52.3,29.5c-0.5-0.2-1.1,0-1.3,0.6c-0.2,0.6-0.8,1-1.5,1c-0.6,0-1.2-0.4-1.5-1c-0.2-0.5-0.8-0.8-1.3-0.6
	c-0.5,0.2-0.8,0.8-0.6,1.3c0.6,1.4,1.9,2.3,3.3,2.3c1.5,0,2.8-0.9,3.3-2.3C53,30.3,52.8,29.7,52.3,29.5"/>
</svg>
